<svg width="200" height="24" viewBox="0 0 200 24" fill="none" xmlns="http://www.w3.org/2000/svg"><path fill-rule="evenodd" clip-rule="evenodd" d="M116.075 8.996h8.172v14.77h4.805V8.996h8.171V5.975h-21.148v3.021Zm42.948 14.871h4.804V6.078h-4.804v17.79Zm11.662-10.607 8.254-7.184h-5.708l-6.94 6.311c-.615.571-1.52 1.41-1.52 2.316 0 .907.74 1.645 1.233 2.081l7.926 7.084h5.789l-9.28-7.923c-.329-.268-.78-.872-.78-1.242 0-.57.657-1.14 1.026-1.443ZM191.76 9h7.762V5.978H190.2c-3.902 0-5.75 1.175-6.653 1.914-2.423 2.047-2.464 5.102-2.464 7.217 0 2.518.164 4.734 1.971 6.479 1.971 1.914 4.846 2.181 6.489 2.181H200v-3.02h-7.789c-2.011 0-4.394-.169-5.46-1.88-.577-.94-.699-2.652-.699-3.693 0-.537.041-2.417.369-3.357.534-1.511 2.095-2.819 5.339-2.819Zm-45.741-2.898h-1.304c-1.863 0-4.361 2.012-4.361 5.26v7.034c0 4.079 2.498 5.261 4.361 5.261h1.304c-.411-1.681-.336-2.759.225-4.405v-.748c-.648-1.9-.648-5.35 0-7.249v-.75c-.56-1.647-.636-2.723-.225-4.403Zm4.14 7.114a7.701 7.701 0 0 0 .001 3.328h1.47a9.145 9.145 0 0 1-.001-3.328h-1.47Zm-2.863 0a7.686 7.686 0 0 0 .002 3.328h1.47a9.123 9.123 0 0 1-.002-3.328h-1.47Zm7.312-7.114h-1.438c-.472.955-.43 1.977.169 2.914h1.422c-.499-.946-.547-1.954-.153-2.914Zm-2.864 0h-1.437c-.472.955-.43 1.977.169 2.914h1.421c-.498-.946-.546-1.954-.153-2.914Zm1.278 7.114a7.701 7.701 0 0 0 .001 3.328h1.47a9.101 9.101 0 0 1-.001-3.328h-1.47Zm-4.14-7.114h-1.437c-.473.955-.43 1.977.169 2.914h1.42c-.497-.946-.546-1.954-.152-2.914Zm5.726 14.624h-1.438c-.472.955-.43 1.977.169 2.915h1.422c-.499-.946-.547-1.955-.153-2.915Zm-2.864 0h-1.437c-.472.955-.43 1.977.169 2.915h1.421c-.498-.946-.546-1.955-.153-2.915Zm-2.862 0h-1.437c-.473.955-.43 1.977.169 2.915h1.42c-.497-.946-.546-1.955-.152-2.915Z" fill="#981D15"/><path fill-rule="evenodd" clip-rule="evenodd" d="M59.429 5.771c-1.807 0-2.998.47-3.696 1.914L50.23 18.998c-.387.79-.823.84-1.232 0L43.495 7.685c-.698-1.444-1.889-1.914-3.696-1.914-1.97 0-3.737.806-3.737 2.552v15.441h4.6v-12.89c0-.1 0-.302.246-.302.164 0 .287.269.328.369l5.585 11.548c.329.704 1.068 1.477 2.793 1.477 1.724 0 2.464-.773 2.792-1.477l5.545-11.548c.082-.134.245-.403.37-.403.081 0 .245.135.245.336v12.89h4.6V8.323c0-1.746-1.766-2.552-3.737-2.552ZM81.44 20.086c-.71.582-1.601.582-2.456.582h-4.468c-.534 0-1.423.03-1.779-.378-.071-.088-.178-.262-.178-1.135v-4.218h6.425c.783 0 1.746.029 2.421.552.748.582.783 1.454.783 2.212 0 .61.036 1.745-.748 2.385Zm-.106-8.205h-8.775V10.28c0-.261 0-.756.357-1.018.32-.204.854-.232 1.316-.232h11.516V5.973H71.242c-1.316 0-2.1.408-2.527.756-.748.64-.854 1.514-.854 2.212v12.077c0 .582.07 1.308.676 1.89.463.437 1.21.816 2.492.816h10.376c2.456 0 3.737-.844 4.271-1.339.713-.67 1.353-1.95 1.353-4.568 0-1.891-.356-3.434-1.281-4.423-1.283-1.338-3.168-1.513-4.414-1.513Zm28.267-6.121c-.986 0-2.095.202-2.958 1.209l-9.69 11.648c-.166.202-.33.47-.577.47-.328 0-.328-.167-.328-.47V5.962H91.45v15.476c0 .94.328 2.517 3.161 2.517 1.642 0 2.341-.47 3.121-1.41l9.568-11.448c.329-.402.494-.468.576-.468.329 0 .246.2.246.468v12.656h4.64V8.48c0-2.652-2.504-2.719-3.161-2.719Zm-78.344 6.92h-5.671l-5.15-10.028C19.41.67 18.178 0 15.714 0c-2.587 0-3.695.67-4.722 2.652L.149 23.766h5.71l9.033-18.664c.165-.337.453-.974.821-.974.37 0 .658.637.822.974l3.668 7.578h-3.71l-1.462 3.155h6.7l3.838 7.93h5.71l-4.073-7.93h5.481l-1.43-3.155Z" fill="#000"/></svg>