<svg width="244" height="64" viewBox="0 0 244 64" fill="none" xmlns="http://www.w3.org/2000/svg"><path d="M228 0H16C7.163 0 0 7.163 0 16v32c0 8.837 7.163 16 16 16h212c8.837 0 16-7.163 16-16V16c0-8.837-7.163-16-16-16Z" fill="#000"/><path fill-rule="evenodd" clip-rule="evenodd" d="M135.814 16c-.078 6.227-.503 9.727-2.838 12.062-2.335 2.335-5.834 2.76-12.06 2.838v.92c6.226.078 9.725.503 12.06 2.838 2.335 2.335 2.76 5.835 2.838 12.062h.92c.078-6.227.503-9.727 2.838-12.062 2.335-2.335 5.834-2.76 12.061-2.838v-.92c-6.227-.078-9.726-.503-12.061-2.838-2.335-2.335-2.76-5.835-2.838-12.062h-.92Z" fill="#fff"/><path d="M31.347 42.88h4.027V19.752h-5.857c-5.89 0-8.985 3.028-8.985 7.488 0 3.56 1.698 5.658 4.726 7.82L20 42.882h4.36l5.856-8.753-2.03-1.364c-2.462-1.665-3.66-2.963-3.66-5.758 0-2.463 1.73-4.127 5.024-4.127h1.797v20.002Zm77.635.333c1.83 0 3.128-.332 4.093-1.031v-3.229c-.998.7-2.196 1.132-3.86 1.132-2.829 0-3.993-2.196-3.993-5.657 0-3.628 1.431-5.492 4.026-5.492 1.531 0 3.028.533 3.827 1.032v-3.361c-.832-.466-2.296-.8-4.259-.8-5.058 0-7.687 3.629-7.687 8.72 0 5.591 2.562 8.686 7.853 8.686ZM84.224 41.75v-3.228c-1.231.832-3.294 1.564-5.224 1.564-2.895 0-3.994-1.364-4.16-4.16h9.55v-2.097c0-5.824-2.562-8.02-6.522-8.02-4.825 0-7.121 3.694-7.121 8.753 0 5.824 2.862 8.652 7.92 8.652 2.529 0 4.392-.665 5.557-1.464ZM47.952 26.141v6.623h-5.29V26.14h-3.96v16.74h3.96v-6.99h5.29v6.99h3.96V26.14h-3.96Zm21.83 13.611h-1.764V26.141H56.471v1.43c0 4.094-.266 9.386-1.663 12.181h-1.232v6.956h3.66V42.88h8.886v3.827h3.66v-6.956Zm27.087 3.129h4.493l-6.356-9.02 5.59-7.72h-3.993l-5.59 7.72v-7.72h-3.96v16.74h3.96v-8.22l5.856 8.22ZM77.802 28.936c1.963 0 2.562 1.631 2.562 3.728v.332H74.84c.1-2.662 1.065-4.06 2.962-4.06ZM64.058 39.752h-5.59c1.098-2.529 1.397-7.088 1.397-9.984v-.499h4.193v10.483Zm98.155 7.953V42.88h12.379v4.825h3.761v-7.954h-2.163V19.75h-14.143l-.399 11.482c-.133 3.727-.533 6.755-1.598 8.52h-1.597v7.953h3.76Zm2.962-15.94.299-8.887h6.689v16.873h-8.319c.699-1.564 1.198-4.26 1.331-7.987Zm19.936 8.319c-2.03 0-4.026-.732-5.091-1.53v3.227c.765.633 2.695 1.431 5.557 1.431 4.226 0 6.456-1.897 6.456-5.258 0-1.964-1.231-3.295-3.428-3.76 2.064-.666 2.929-2.13 2.929-3.994 0-2.829-2.23-4.393-5.824-4.393-2.595 0-4.292.799-5.257 1.398v3.228c1.064-.7 2.529-1.498 4.692-1.498 1.464 0 2.396.7 2.396 1.93 0 1.298-.799 1.997-2.43 1.997h-2.495v2.995h2.495c2.03 0 2.829.6 2.829 2.064 0 1.331-.965 2.163-2.829 2.163Zm21.903 1.664V38.52c-1.232.832-3.295 1.564-5.225 1.564-2.895 0-3.993-1.365-4.159-4.16h9.55v-2.097c0-5.824-2.562-8.02-6.522-8.02-4.825 0-7.121 3.694-7.121 8.753 0 5.823 2.861 8.652 7.92 8.652 2.529 0 4.392-.665 5.557-1.464Zm-6.423-12.813c1.964 0 2.563 1.63 2.563 3.728v.332h-5.524c.1-2.662 1.065-4.06 2.961-4.06Zm18.494-2.795v6.623h-5.291V26.14h-3.96v16.74h3.96v-6.99h5.291v6.99h3.96V26.14h-3.96Z" fill="#fff"/></svg>