<svg width="89" height="40" viewBox="0 0 89 40" fill="none" xmlns="http://www.w3.org/2000/svg"><g clip-path="url(#a)"><path d="M79.146.197H10.78C5.34.197.927 4.582.927 9.991V29.58c0 5.409 4.412 9.794 9.854 9.794h68.365c5.442 0 9.854-4.385 9.854-9.794V9.99C89 4.582 84.588.197 79.146.197Z" fill="#C1C1C1"/><path fill-rule="evenodd" clip-rule="evenodd" d="M22.499 9.991c-.048 3.848-.312 6.01-1.763 7.453-1.45 1.443-3.624 1.705-7.491 1.753v.569c3.867.048 6.04.31 7.491 1.753 1.45 1.443 1.715 3.605 1.763 7.452h.571c.049-3.847.312-6.01 1.763-7.452 1.45-1.443 3.624-1.705 7.491-1.753v-.57c-3.867-.047-6.04-.31-7.491-1.752-1.45-1.443-1.714-3.605-1.763-7.453h-.57Z" fill="#3F3F3F"/><path d="M38.897 29.58v-2.982h7.69v2.982h2.335v-4.914H47.58V12.308h-8.785l-.248 7.094c-.083 2.303-.33 4.174-.992 5.264h-.992v4.914h2.335Zm1.84-9.85.186-5.489h4.154v10.425H39.91c.434-.967.744-2.632.827-4.935Zm12.382 5.141c-1.26 0-2.501-.452-3.163-.945v1.994c.476.39 1.675.884 3.452.884 2.625 0 4.01-1.172 4.01-3.249 0-1.213-.764-2.035-2.129-2.323 1.282-.411 1.82-1.316 1.82-2.467 0-1.748-1.386-2.715-3.618-2.715-1.612 0-2.666.494-3.266.864v1.995c.662-.432 1.571-.926 2.915-.926.91 0 1.488.432 1.488 1.193 0 .802-.496 1.234-1.509 1.234h-1.55v1.85h1.55c1.26 0 1.757.37 1.757 1.275 0 .822-.6 1.336-1.757 1.336ZM66.725 25.9v-1.995c-.765.514-2.047.966-3.245.966-1.799 0-2.48-.843-2.584-2.57h5.932v-1.295c0-3.598-1.591-4.956-4.051-4.956-2.997 0-4.424 2.283-4.424 5.408 0 3.598 1.778 5.346 4.92 5.346 1.57 0 2.728-.411 3.452-.905Zm-3.99-7.917c1.22 0 1.592 1.008 1.592 2.303v.206h-3.431c.062-1.645.661-2.509 1.84-2.509Zm11.487-1.727v4.092h-3.286v-4.092h-2.46v10.342h2.46v-4.317h3.286v4.317h2.46V16.256h-2.46Z" fill="#3F3F3F"/></g><defs><clipPath id="a"><path fill="#fff" transform="translate(.927 .197)" d="M0 0h88.073v39.177H0z"/></clipPath></defs></svg>