<svg width="23" height="23" viewBox="0 0 23 23" fill="none" xmlns="http://www.w3.org/2000/svg"><g clip-path="url(#a)" fill="#000"><path d="M22.954 11.274A12.428 12.428 0 0 0 11.5 3.7c-5 0-9.497 2.973-11.454 7.575a.576.576 0 0 0 0 .45A12.428 12.428 0 0 0 11.5 19.302c5.001 0 9.497-2.974 11.454-7.576a.575.575 0 0 0 0-.45ZM11.5 18.15c-4.456 0-8.47-2.602-10.296-6.65A11.278 11.278 0 0 1 11.5 4.852c4.456 0 8.47 2.601 10.296 6.648A11.278 11.278 0 0 1 11.5 18.15Z"/><path d="M11.5 7.09a4.415 4.415 0 0 0-4.41 4.41 4.415 4.415 0 0 0 4.41 4.41 4.415 4.415 0 0 0 4.41-4.41 4.415 4.415 0 0 0-4.41-4.41Zm0 7.669A3.262 3.262 0 0 1 8.241 11.5 3.262 3.262 0 0 1 11.5 8.241a3.262 3.262 0 0 1 3.259 3.26 3.262 3.262 0 0 1-3.259 3.258Z"/></g><defs><clipPath id="a"><path fill="#fff" d="M0 0h23v23H0z"/></clipPath></defs></svg>