<svg width="22" height="22" viewBox="0 0 22 22" fill="none" xmlns="http://www.w3.org/2000/svg"><path d="M9.982 20.354a1.45 1.45 0 0 0 2.054 0l8.062-8.062A6.46 6.46 0 0 0 22 7.712a6.44 6.44 0 0 0-1.898-4.585 6.43 6.43 0 0 0-4.58-1.898c-1.7 0-3.302.65-4.518 1.835a6.454 6.454 0 0 0-4.53-1.844 6.442 6.442 0 0 0-4.576 1.893A6.44 6.44 0 0 0 0 7.698c0 1.727.677 3.356 1.902 4.58l8.08 8.076ZM2.678 3.894a5.341 5.341 0 0 1 3.8-1.575c1.436 0 2.79.561 3.809 1.58l.332.331a.55.55 0 0 0 .78 0l.323-.323a5.348 5.348 0 0 1 3.809-1.579c1.436 0 2.786.561 3.8 1.575a5.341 5.341 0 0 1 1.574 3.804 5.34 5.34 0 0 1-1.579 3.804l-8.066 8.067a.372.372 0 0 1-.502 0l-8.075-8.076a5.345 5.345 0 0 1-1.58-3.804 5.36 5.36 0 0 1 1.575-3.804Z" fill="#000"/></svg>