<svg width="25" height="22" viewBox="0 0 25 22" fill="none" xmlns="http://www.w3.org/2000/svg"><path fill-rule="evenodd" clip-rule="evenodd" d="M23 9.403c0 4.158-3.232 7.403-7.066 7.403-3.834 0-7.066-3.245-7.066-7.403C8.868 5.245 12.1 2 15.934 2 19.768 2 23 5.245 23 9.403Zm2 0c0 5.193-4.06 9.403-9.066 9.403-2.832 0-5.36-1.346-7.022-3.455-.05.057-.106.11-.169.156L1.567 20.81a.975.975 0 0 1-1.381-.223 1.026 1.026 0 0 1 .227-1.41l7.176-5.303a.987.987 0 0 1 .291-.149 9.644 9.644 0 0 1-1.012-4.322C6.868 4.21 10.927 0 15.934 0 20.94 0 25 4.21 25 9.403Z" fill="#fff"/></svg>