<svg width="60" height="60" viewBox="0 0 60 60" fill="none" xmlns="http://www.w3.org/2000/svg"><circle cx="30" cy="30" r="29.5" stroke="#000"/><path d="m23.3 39.987.013-2.418 8.151-7.306c.659-.58 1.105-1.135 1.339-1.664a3.773 3.773 0 0 0 .364-1.586c0-.667-.147-1.265-.442-1.794a3.32 3.32 0 0 0-1.222-1.274c-.52-.312-1.118-.468-1.794-.468-.693 0-1.313.165-1.859.494-.537.32-.958.75-1.261 1.287A3.386 3.386 0 0 0 26.147 27h-2.782c0-1.213.273-2.275.819-3.185a5.767 5.767 0 0 1 2.275-2.145c.962-.52 2.063-.78 3.302-.78 1.179 0 2.236.269 3.172.806a5.814 5.814 0 0 1 2.21 2.184c.546.927.819 1.985.819 3.172 0 .858-.113 1.586-.338 2.184A5.37 5.37 0 0 1 34.61 30.9a19.395 19.395 0 0 1-1.69 1.664l-6.292 5.616-.299-.78h9.633v2.587H23.3Z" fill="#000"/></svg>