<svg width="60" height="60" viewBox="0 0 60 60" fill="none" xmlns="http://www.w3.org/2000/svg"><circle cx="30" cy="30" r="29.5" stroke="#000"/><path d="M30.059 40.351a6.603 6.603 0 0 1-2.613-.52 6.233 6.233 0 0 1-2.119-1.508 5.953 5.953 0 0 1-1.287-2.301l2.626-.728c.251.806.689 1.426 1.313 1.859a3.54 3.54 0 0 0 2.08.624c.685-.009 1.287-.169 1.807-.481.52-.312.927-.732 1.222-1.261.295-.537.442-1.153.442-1.846 0-1.04-.325-1.898-.975-2.574-.641-.676-1.482-1.014-2.522-1.014-.295 0-.598.043-.91.13-.303.087-.59.2-.858.338l-1.274-2.145 6.604-5.837.286.78h-9.1V21.28h11.258v2.587l-5.486 5.278-.026-.884c1.179 0 2.201.264 3.068.793a5.272 5.272 0 0 1 2.002 2.132c.477.893.715 1.894.715 3.003 0 1.196-.282 2.258-.845 3.185a5.98 5.98 0 0 1-2.249 2.184c-.936.529-1.989.793-3.159.793Z" fill="#000"/></svg>