<svg width="80" height="120" viewBox="0 0 80 120" fill="none" xmlns="http://www.w3.org/2000/svg"><path d="M-18.5 120c-54.312 0-98.5-26.916-98.5-60S-72.814 0-18.5 0 80 26.916 80 60s-44.188 60-98.5 60Zm0-118.859c-53.682 0-97.355 26.405-97.355 58.859s43.673 58.859 97.356 58.859c53.68 0 97.354-26.404 97.354-58.859S35.183 1.141-18.499 1.141Z" fill="#56A6AF"/><path d="m32.602 101.192-.198-.003-55.866-.554 11.81-25.67 1.145.006c16.89 0 33.36-4.229 44.057-11.312 6.475-4.251 10.475-8.382 11.766-16.922.478-14.496-13.895-24.1-21.56-27.145C7.766 12.465-6.87 11.64-16.49 11.64c-1.661 0-3.385.029-5.27.087-15.006.556-27.363 2.97-36.727 7.172l-7.598 3.683 1.537 1.867c6.157-4.206 15.5-6.59 19.544-7.623l.258-.067c5.446-1.273 12.341-2.113 20.507-2.494l13.047-.024-21.039 43.333-62.142-.552.04-.603c2.021-30.335 35.48-53.986 75.772-53.421l1.034-.005c31.324 0 58.557 13.32 69.378 33.934 10.074 25.13 3.642 46.693-19.096 64.144l-.153.121Zm-54.288-1.68 53.903.535c22.153-17.08 28.41-38.155 18.597-62.643C40.21 17.213 13.378 4.136-17.526 4.136l-1.037.004c-.505-.007-1-.011-1.49-.011-38.788 0-70.74 22.687-73.093 51.762l60.2.536 19.926-41.04-11.192.021c-8.07.378-14.895 1.208-20.262 2.462l-.246.063c-4.078 1.041-13.632 3.481-19.6 7.75l-.435.312-3.135-3.805 8.918-4.322c9.514-4.272 22.015-6.719 37.173-7.279 1.901-.06 3.636-.088 5.309-.088 9.727 0 24.526.833 40.69 8.042 7.904 3.138 22.759 13.104 22.254 28.301-1.36 9.025-5.53 13.34-12.275 17.768C23.305 71.815 6.6 76.114-10.509 76.114l-.412-.002-10.765 23.4Z" fill="#56A6AF"/><path d="m-28.219 57.364 19.207-41.806c9.81-.168 15.06 1.479 20.569 4.061L-4.87 56.475l-23.35.889Z" fill="#56A6AF"/><path d="m-29.127 57.97 19.745-42.977.359-.006c9.728-.167 15.116 1.44 20.822 4.114l.506.238-16.799 37.69-24.633.94Zm20.485-41.847-18.67 40.635 22.065-.84 16.05-36.02C5.5 17.469.363 16.018-8.642 16.124Zm6.919 40.264L8.5 35.2l.421.067c3.592.575 6.156 1.985 7.415 4.076 1.12 1.856 1.21 4.176.273 6.895-3.674 6.595-12.78 8.805-17.155 9.866l-1.177.284ZM9.16 36.464.36 54.705c4.507-1.127 12.11-3.383 15.209-8.93.78-2.294.72-4.292-.215-5.846-1.032-1.715-3.169-2.91-6.194-3.465Z" fill="#56A6AF"/><path d="m10.334 32.602 5.053-12.494C27.25 23.046 35.839 30.436 40.602 37.1c5.201 10.22-1.03 19.325-6.463 23.263-12.972 9.97-30.677 11.691-43.422 12.358l7.464-14.176C4.494 58 11.622 56.184 17.936 49.55c5.704-7.905.895-15.037-7.602-16.947Z" fill="#56A6AF"/><path d="m-10.258 73.344 8.078-15.34.31-.025c5.141-.445 12.747-1.842 19.387-8.82 2.26-3.14 2.9-6.352 1.805-9.231-1.23-3.231-4.639-5.76-9.118-6.766l-.655-.148 5.49-13.576.482.118c14.518 3.594 22.7 13.237 25.544 17.215 4.94 9.696.035 19.25-6.595 24.055C21.95 70.451 5.34 72.53-9.257 73.293l-1 .05Zm8.801-14.258-6.852 13.01C5.863 71.3 21.79 69.134 33.788 59.91c4.503-3.262 11.591-12.16 6.303-22.553-2.694-3.758-10.516-12.98-24.36-16.575l-4.618 11.421c4.534 1.187 7.98 3.888 9.282 7.316.864 2.268 1.218 5.908-1.995 10.362-6.824 7.18-14.537 8.715-19.857 9.205Z" fill="#56A6AF"/><path d="m38.054 100.346 8.19.272c20.575-7.935 37.77-34.408 25.126-58.7-7.83-12.812-25.855-28.17-46.792-31.714 50.556 23.14 38.844 70.09 13.476 90.142Z" fill="#56A6AF"/><path d="m46.344 101.193-9.866-.328 1.22-.967c14.762-11.667 23.279-31.069 21.2-48.277-1.465-12.113-8.65-29.043-34.554-40.9L20.4 8.914l4.279.723c21.183 3.587 39.308 19.091 47.184 31.98 6.613 12.7 4.575 24.379 1.705 31.95-4.692 12.371-15.08 22.94-27.113 27.581l-.11.044Zm-6.746-1.367 6.55.217c11.693-4.548 21.78-14.838 26.348-26.878 2.788-7.35 4.767-18.694-1.63-30.986-7.164-11.718-23.003-25.677-41.87-30.46 23 11.932 29.62 28.045 31.037 39.768 2.069 17.119-6.108 36.349-20.435 48.339Zm-21.723 11.175 3.792-1.463c4.46-1.721 8.423-3.407 11.782-6.606l.167-.159 8.11.057-1.13.989c-4.356 3.804-10.635 6.099-18.671 6.819l-4.05.363Zm16.194-7.084c-2.364 2.205-5.057 3.73-7.903 5.008 5.06-.911 9.23-2.577 12.448-4.973l-4.545-.035Zm-51.241 12.438a87.54 87.54 0 0 1-3.79-.081c-16.602-.902-31.396-5.267-45.234-13.345l-1.843-1.075 97.59.569-1.766 1.049c-14.593 8.669-29.3 12.883-44.957 12.883Zm-46.556-13.336c13.134 7.297 27.166 11.264 42.823 12.114 1.24.053 2.5.08 3.733.08 14.801 0 28.746-3.823 42.566-11.673l-89.123-.521Z" fill="#56A6AF"/></svg>