<svg width="86" height="120" viewBox="0 0 86 120" fill="none" xmlns="http://www.w3.org/2000/svg"><mask id="a" style="mask-type:alpha" maskUnits="userSpaceOnUse" x="-23" y="11" width="109" height="136"><path d="M-23 11.086H85.886v135.457H-23V11.086Z" fill="#fff"/></mask><g mask="url(#a)"><path fill-rule="evenodd" clip-rule="evenodd" d="M57.993 98.966c.184-.604.28-.856.42-1.548.194 1.105.378 1.877.644 2.84-.389-.579-.56-.848-1.064-1.292Zm-.665 15.07c-1.553.034-2.97.001-3.047-.199-.156-.415.284-.877.638-1.347.212-.281.853-.726.853-.726l1.946.766c.072.308.094.418.21.724-.176.144-.43.521-.6.782Zm-3.448-20.44c.29 1.254.61 2.205 1.037 3.446a16.944 16.944 0 0 0-2.99-.904c.363-.425 1.349-1.184 1.953-2.541Zm-7.18 1.877c1.521-1.232 2.253-2.777 1.978-5.342h.012c.93 1.89 1.575 3.926 2.059 5.786-1.08-.175-2.944-.357-4.049-.444ZM32.2 41.542c-.047.174 1.028 1.04 2.6.965l-2.344 4.467-.907-4.513-1.052 4.514-2.704-4.514s1.912.223 2.906-.92c-.848-.653-4.377-2.63-4.377-2.63l1.093-.963s6.345.263 8.268 0l1.041.963s-4.056 2.456-4.524 2.63ZM12.106 95.916c.483-1.86 1.112-3.897 2.043-5.79l.011.002c-.277 2.568.572 4.514 2.148 5.34-1.104.089-3.123.273-4.202.448Zm-4.168 1.126c.428-1.241.748-2.192 1.037-3.445.605 1.357 1.59 2.117 1.953 2.541a16.91 16.91 0 0 0-2.99.904Zm.681 16.795c-.155.414-5.954.117-6.985-.009-1.031-.122-4.8-.577-4.8-.577l.207-1.458 2.352-7.547s.553 1.183.837 1.7c.483.881 1.18 1.854 1.18 1.854l-.723.592s1.066.44 2.068.572c1.092.145 1.835-.011 1.835-.011l-.588 4.042 3.126-1.231s.642.445.853.726c.354.47.795.932.638 1.347ZM4.441 97.418c.142.692.237.944.422 1.548-.505.444-.676.713-1.065 1.292.266-.963.451-1.735.643-2.84Zm81.36 4.369c0-11.647-2.556-18.275-5.065-23.214-.496-3.859-1.803-7.467-4.332-11.85.022-.009.42-.057.547-.12.23-.107.43-.2.43-.607-1.12-6.604-10.988-12.31-15.966-13.532-1.247-.222-2.783-.081-3.576.093-.793.176-1.833.695-2.585 1.31-2.295 1.877-2.03 4.425-2.609 5.776-.577 1.346-1.82 2.767-2.858 3.392a4.767 4.767 0 0 1-1.154.523 4.58 4.58 0 0 1-.846.123c-.4-.015-.851-.109-1.03-.2 0 0 2.419-.591 3.048-1.558 0 0-2.813-.222-4.881-2.736-1.798-2.187-1.704-4.685-1.599-5.946.114-1.355.77-3.508 1.45-4.7 1.016-.96 2.544-1.508 4.208-1.509 2.017 0 3.075.925 4.19 3.658l.27.659.322-.635c.791-1.557 1.013-3.127.675-4.788 5.063-.098 8.707-2.056 10.552-5.68l.436-.854-.871.427c-2.053 1.009-3.96 1.656-5.423 2.135-1.942 0-5.313.025-6.582-.14.326-.136.634-.283.937-.428.995-.475 1.934-.912 3.364-.964.503-.018 1.235.108 1.532.39.322.306.625.769.749 1.142 1.39-2.56 1.102-6.175-1.688-7.124-1.932-.657-4.229-.518-4.229-.518-.168-1.164-1.883-2.648-2.725-2.608-.277.012-1.342.416-2.647.95l-6.37 2.561-.002-1.113c2.234-2.753 4.49-6.09 4.49-10.027.068-.733.084-1.417.056-2.063-.008-.157-.023-.308-.036-.459-.16-1.887-.76-3.396-1.831-4.548-1.637-1.76-4.273-2.615-8.056-2.615h-.245l-1.583 5.437-.033.113-1.797 6.715 2.93-15.569h-7.849l2.915 15.57-1.789-6.716-.032-.113-1.584-5.438h-.244c-3.784 0-6.42.856-8.056 2.616-1.071 1.152-1.671 2.66-1.832 4.548-.012.151-.027.302-.035.459-.029.646-.066 1.287-.041 2.067 0 3.938 2.354 7.27 4.586 10.023v1.066l-6.477-2.603h-.001c-1.273-.553-2.316-.947-2.79-.932-1.231.04-2.302 1.515-2.47 2.68 0 0-2.165-.324-4.228.517-2.35.957-2.926 2.943-2.574 5.151.094.59.416 1.273.975 2 .092-.166.29-.5.348-.58.049-.07.306-.434.422-.543.295-.282.743-.438 1.315-.438.034 0 .07 0 .106.002 1.43.042 2.37.49 3.365.965.302.144.61.29.937.426-1.27.166-4.551.166-6.493.168-1.464-.48-3.46-1.153-5.512-2.162l-.87-.427.435.854c1.844 3.624 5.488 5.582 10.552 5.68-.339 1.661-.116 3.23.674 4.788l.323.635.269-.66c1.114-2.73 2.17-3.654 4.183-3.657h.01c1.665 0 3.194.55 4.21 1.51.679 1.191 1.335 3.344 1.448 4.699.108 1.277.072 3.825-1.536 5.877-2.069 2.64-4.946 2.805-4.946 2.805.63.967 3.049 1.558 3.049 1.558-.18.091-.63.185-1.031.2a4.584 4.584 0 0 1-.847-.123 4.756 4.756 0 0 1-1.154-.523c-1.037-.625-2.28-2.046-2.858-3.392-.58-1.352-.313-3.899-2.608-5.776-.752-.615-1.792-1.133-2.585-1.31-.793-.175-2.33-.315-3.576-.093-4.978 1.222-14.846 6.928-15.966 13.532 0 .406.2.5.43.608.127.062.525.11.546.12-2.529 4.382-3.834 7.99-4.331 11.849-2.509 4.939-5.067 11.567-5.066 23.214-.6 9.454 2.095 18.282 4.51 24.919l.385 1.059 2.294-10.676 2.808 5.507 1.78-8.304.463-2.161 2.128 4.109.618-2.459c.518.496 1.49.887 1.49.887s-.285.996-.265 1.625c.018.585.525 1.198.525 1.198s-.583.843-.447 1.394c.136.55 1.035.862 1.035.862s-.45.722-.39 1.431c.075.873 1.116 1.248 1.116 1.248s.135.58.67.912c.536.332 2.694.271 2.694.271s.269 2.379.95 3.474c.816 1.31 3.55 2.327 3.747 2.231l1.203-.59c.216-.106.458-2.906-.084-4.135-.326-.742-2.393-2.485-2.393-2.485s.276-.764.3-1.27c.047-1.063-.3-1.864-.3-1.864 1.56-1.472 3.707-2.417 4.735-2.521 1.028-.103 5.649.639 6.38.765.734.125 1.64-1.11 1.348-1.988-.293-.879-.733-2.517-.733-2.517-.227-1.4-.022-2.481.61-3.214.75-.87 2.142-1.311 4.136-1.311.63 0 1.263.167 1.933.344.84.22 1.469.452 2.426.355.212-.021.432-.054.68-.11.93-.241 1.531-.885 2.095-1.713-.362 1.847-4.762 7.66-7.777 7.66 0 0-.79.492-2.067 1.808-1.079 1.111-2.205 2.251-3.509 2.588-1.19.219-2.513-.881-2.513-.881s-.848 1.177-.848 3.269c0 1.912 1.96 3.026 3.06 3.622-.242 3 .318 5.255 1.667 6.703.99 1.064 2.391 1.647 4.064 1.695 1.425 3.654 3.55 7.076 9.14 7.705.309.382 1.013 1.433 1.77 2.32a35.537 35.537 0 0 0 1.868 2.04c.655.686 1.035.965 1.053.954l.004-.003a.02.02 0 0 1 .005.003c.019.011.398-.266 1.05-.95a35.976 35.976 0 0 0 1.871-2.044c.758-.887 1.462-1.938 1.771-2.32 5.59-.629 7.715-4.051 9.14-7.705 1.672-.048 3.074-.631 4.063-1.695 1.35-1.448 1.91-3.703 1.667-6.703 1.1-.596 3.06-1.71 3.06-3.622 0-2.092-.847-3.269-.847-3.269s-1.323 1.1-2.515.881c-1.303-.337-2.428-1.477-3.507-2.588-1.277-1.316-2.066-1.808-2.066-1.808-3.016 0-7.417-5.813-7.778-7.66.563.828 1.165 1.472 2.094 1.713.218.05.413.079.601.099 0 .005.002.007.004.011.958.097 1.585-.135 2.425-.355.67-.177 1.304-.344 1.934-.344 1.995 0 3.385.441 4.135 1.311.632.733.838 1.814.61 3.214 0 0-.439 1.638-.732 2.517-.294.878.614 2.113 1.346 1.988.733-.126 5.354-.868 6.382-.765.86.087 8.454 3.359 10.204 3.171 1.046-.112 2.858-.661 4.009-1.378 1.733-1.082 2.338-3.082 2.338-3.082.382-.432.911-1.465 1.065-2.042l.251 1.174 1.78 8.304 2.81-5.507 2.292 10.676.386-1.059c2.415-6.637 5.11-15.465 4.51-24.919Z" fill="#070606"/></g><mask id="b" style="mask-type:alpha" maskUnits="userSpaceOnUse" x="26" y="0" width="11" height="11"><path d="M26.45.549h10.07v9.88H26.45V.55Z" fill="#fff"/></mask><g mask="url(#b)"><path fill-rule="evenodd" clip-rule="evenodd" d="M27.558 10.43h7.84l-1.47-2.614 2.591 1.507V1.64l-2.588 1.515L35.398.549h-7.81l1.456 2.612-2.595-1.52v7.668l2.589-1.495-1.48 2.616Z" fill="#070606"/></g><path fill-rule="evenodd" clip-rule="evenodd" d="m29.977 59.25-.023.26-2.36 15.423.177-.056v-.012l.2-.058a12.348 12.348 0 0 1 7.323.126L31.436 49.72l-1.459 9.53Zm6.903 16.34c2.5 1.29 4.501 3.304 5.606 5.64l6.044-11.36c-3.874 1.896-9.925 4.86-11.65 5.72Zm6.071 6.953c.42 1.302.658 2.652.658 3.764 0 1.423-.22 2.761-.653 3.987 2.451-.418 13.953-2.422 21.284-3.7-7.335-1.404-18.88-3.609-21.289-4.051Zm-44.305 4.05a13561.37 13561.37 0 0 0 21.285 3.701c-.433-1.224-.652-2.563-.652-3.987 0-1.113.237-2.464.658-3.766-2.41.443-13.955 2.648-21.29 4.052ZM14.357 69.87l6.045 11.36c1.102-2.334 3.102-4.347 5.6-5.638a3104.55 3104.55 0 0 0-11.645-5.721Zm6.202 21.83c-.368.68-1.251 2.347-3.299 6.276l-2.885 5.112 11.84-5.939a12.416 12.416 0 0 1-4.151-3.2 11.924 11.924 0 0 1-1.505-2.249Z" fill="#fff"/><path fill-rule="evenodd" clip-rule="evenodd" d="m22.604 91.714 8.86-15.335 8.784 15.335H22.604Zm17.223 1.042a10.347 10.347 0 0 0 2.256-6.449c0-4.748-3.218-8.769-7.618-10.06a10.761 10.761 0 0 0-6.043-.008l.002.008c-4.4 1.291-7.62 5.312-7.62 10.06 0 2.43.845 4.668 2.257 6.449 1.953 2.44 4.975 4.05 8.366 4.05 3.41 0 6.449-1.587 8.4-4.05Z" fill="#F60"/><path fill-rule="evenodd" clip-rule="evenodd" d="m31.462 79.173-6.28 11.158h12.493l-6.213-11.158Z" fill="#0B4DA0"/><path fill-rule="evenodd" clip-rule="evenodd" d="m27.549 97.681 3.91 26.353 3.795-26.337a12.402 12.402 0 0 1-7.705-.016Zm9.299-.634 3.905 2.058 7.677 3.966-2.871-5.087a721.109 721.109 0 0 1-2.199-4.262c-.418-.816-.8-1.56-1.036-2.012-.41.795-.914 1.546-1.5 2.239a12.386 12.386 0 0 1-3.976 3.098Z" fill="#fff"/><path fill-rule="evenodd" clip-rule="evenodd" d="M23.008 28.333c-.666 0-1.207.53-1.207 1.183s.541 1.185 1.207 1.185c.665 0 1.206-.532 1.206-1.185 0-.652-.54-1.183-1.206-1.183Zm8.109-3.278.327 4.104.325-4.104h-.652Zm.01-.942h.644l.428-1.692-.428-1.69h-.644l-.428 1.69.428 1.692Zm8.943 9.31c.75 0 1.36-.6 1.36-1.334a1.31 1.31 0 0 0-.471-.999 1.944 1.944 0 0 1-1.907.128c-.21.233-.34.535-.34.87 0 .736.61 1.335 1.359 1.335Zm-9.574-2.326a1.438 1.438 0 0 0-.426 1.018c0 .8.665 1.453 1.481 1.453.816 0 1.48-.652 1.48-1.453 0-.802-.664-1.453-1.48-1.453a1.49 1.49 0 0 0-1.043.423l-.012.012Zm-5.786 5.187.616.248c1.745.25 3.513.25 5.96.25h.33c2.414 0 4.32 0 6.185-.292l.48-.194a55.167 55.167 0 0 0-6.693-.41h-.216c-2.198 0-4.483.138-6.661.398Zm10.81-4.192c0 .652.54 1.183 1.206 1.183.664 0 1.206-.531 1.206-1.183 0-.653-.542-1.184-1.206-1.184-.665 0-1.206.53-1.206 1.184Zm-12.557 1.172a1.35 1.35 0 0 0 1.402-1.29 1.291 1.291 0 0 0-.305-.875 1.947 1.947 0 0 1-2.108-.002c-.18.217-.292.49-.303.79a1.347 1.347 0 0 0 1.314 1.377Z" fill="#FFDB00"/><path fill-rule="evenodd" clip-rule="evenodd" d="M37.465 30.136c.177.064.346.153.5.261a1.946 1.946 0 0 1-.111-.284c-.132.006-.26.013-.389.023Zm-12.637.456c.044.056.084.115.121.175.223-.265.507-.47.825-.601a11.003 11.003 0 0 0-.728-.053 2.083 2.083 0 0 1-.218.479Zm6.788 4.27c2.88 0 5.762.223 8.57.664l.448-.18v-.094l.001-.996a2.311 2.311 0 0 1-2.335-.766 2.144 2.144 0 0 1-1.573.688c-1.173 0-2.128-.936-2.128-2.086 0-.604.263-1.148.682-1.53-.511.17-1.01.39-1.509.665.12.284.18.581.18.888 0 1.299-1.077 2.356-2.4 2.356-1.324 0-2.401-1.057-2.401-2.356 0-.275.048-.543.143-.8a9.66 9.66 0 0 0-1.037-.516c.287.356.457.806.457 1.293 0 1.15-.954 2.086-2.126 2.086-.705 0-1.361-.35-1.754-.913a2.303 2.303 0 0 1-1.901.902 2.422 2.422 0 0 1-.67-.118l-.001 1.25.532.214c2.779-.43 5.782-.638 8.65-.65l.068-.002v.001h.104Z" fill="#FFDB00"/><path fill-rule="evenodd" clip-rule="evenodd" d="M27.794 32.092c0-.653-.54-1.184-1.207-1.184-.664 0-1.204.53-1.204 1.184 0 .652.54 1.183 1.204 1.183.667 0 1.207-.531 1.207-1.183ZM20.52 21.927c.297.08.592.168.878.264l.496-.482-.767-1.806-1.064.97.457 1.054Zm18.982-1.689.881.866.754-1.776-.906-.826-.729 1.736ZM41 21.709l.499.485c.284-.096.579-.185.875-.265l.459-1.055-1.064-.97L41 21.709Zm-19.244-2.381.754 1.775.881-.865-.728-1.736-.907.826Zm1.564 3.657.017.008c.137.064.273.13.41.2l.654-.553-.676-1.609-.877.862.473 1.091Zm-.944-.345-.118-.277-.166.162c.095.037.19.076.284.115Zm18.149 0 .284-.115h-.005l-.166-.162-.113.277Zm-4.38 1.468.59.579.022-.016.773-1.808-.745-.64-.64 1.885Zm-.656 2.737.68.022c.04.001 4.107.128 4.91.002a2.79 2.79 0 0 0 .497-.121l-3.502-.75 5.46-3.41c-2.676.509-5.43 1.975-8.045 4.257Zm-3.032 3.091a2.4 2.4 0 0 1 .714.445c1.452-.811 2.934-1.225 4.64-1.295.042-.2.115-.393.214-.571l-2.542-1.665a29.233 29.233 0 0 0-3.026 3.086Zm10.768-8.128c.21-.042.42-.085.627-.117l-.418-.377-.21.494Zm-7.705 3.909c.228-.188.457-.367.688-.543l-.385-.37-.303.913Zm4.372 4.983c.665 0 1.205-.53 1.205-1.184 0-.652-.54-1.183-1.205-1.183-.667 0-1.208.53-1.208 1.183s.541 1.184 1.208 1.184Zm-2.07-6.65c.238-.149.476-.294.714-.43l-.397-.337-.317.768Zm-.762-2.64.793.68.699-1.664-.869-.853-.623 1.836Zm1.434 1.23.657.555c.12-.062.241-.12.362-.178l.06-.029.474-1.095-.878-.861-.675 1.608Zm20.588 61.63 4.036.757c-.621-2.948-1.414-5.242-2.024-5.85-.822-.047-1.655-.156-2.342-.546l-.01.198h-.267c-.255 0-.503-.005-.74-.015.56 2.026 1.034 3.943 1.347 5.457Zm-4.442 8.688c.331 1.576 1.487 4.986 2.13 6.837.59-1.18.986-2.886 1.272-4.303.12-.592.35-4.596.36-6.514l-3.457.621c-.08 1.184-.273 3.056-.304 3.359Zm4.972-4.197c.02 1.61-.107 3.491-.236 5.133-.02.243-.051.544-.085.86-.07.668-.157 1.498-.12 1.792.317 2.163.753 4 1.504 6.337.055.174.113.368.172.573a8.625 8.625 0 0 1 2.324-1.143c.136-.475.263-.995.377-1.548.718-3.49.768-7.934.14-12.51l-.033-.221-4.043.727Zm-9.242 8.274c2.05.943 3.818 2 5.272 3.155a906.86 906.86 0 0 0-.66-1.868c-1.245-.57-2.74-.988-4.613-1.287Zm-6.329-5.474 1.855 3.631c1.051-.497 2.09-1.87 1.922-4.31l-3.777.68Zm5.734-1.031c.825 1.804 1.39 3.72 1.769 5.15.58-.594 1.458-1.812 1.93-2.923.092-.833.184-1.926.247-2.937l-3.946.71Zm14.627-5.263 4.216.79c-.466-1.953-1.352-5.075-2.597-6.941a9.941 9.941 0 0 1-2.931-.827c.024.287.04.576.043.626l.015.289h-.589c.646 1.202 1.304 3.357 1.843 6.063Zm.463 2.549c2.334 2.562 4.008 2.938 4.616 2.98a39.73 39.73 0 0 0-.313-2v-.003c-.003-.009-.131-.772-.32-1.694l-3.983.717Zm.205 1.784c.432 4.042.357 7.61-.228 10.887a28.63 28.63 0 0 1-.31 1.509 8.54 8.54 0 0 1 .707-.077l.418-1.738.108-.128-.547.199.91-4.94.45.387-.18-.533 2.924.519a34.576 34.576 0 0 0-.186-3.642l-.011-.11c-1.338-.242-2.286-.78-4.055-2.333Zm-10.3-6.138 3.03.568a97.592 97.592 0 0 0-1.35-5.34 6.145 6.145 0 0 1-1.554-.436l.037.3-.289.023c-.18.014-.572.048-.863.078.417 1.387.771 3.109.99 4.807Zm-10.72-2.008 3.183.596c-.056-.966-.186-2.411-.48-3.428a7.63 7.63 0 0 1-1.053-.301l-1.65 3.133Zm4.408.826 1.66.31a77.38 77.38 0 0 0-.527-3.997 2.92 2.92 0 0 1-1.052-.363v.006l.001.147-.123.082c-.12.08-.262.107-.425.127.299 1.19.419 2.725.466 3.688ZM24.365 23.62c.238.136.475.281.713.431l-.322-.767-.39.335Zm-5.316-1.93c.209.032.42.076.628.118l-.215-.494-.413.377ZM2.457 107.847c.107.034.23.068.363.099.405.092 1.383.061 1.904-.108.442-.142 1.1-.519 1.438-.901.948-.958 1.537-2.073 2.16-3.255.232-.44.464-.881.715-1.312.654-1.119 1.324-2.266 2.188-3.367-2.784 1.453-4.921 3.02-6.261 5.416-.067.117-.155.283-.257.474-.252.475-.598 1.127-.887 1.524-.27.37-.954 1.04-1.363 1.43Zm5.461-9.525-.095.268-.53 1.502c1.236-1.024 2.981-2.046 5.214-3.053-1.862.299-3.35.716-4.59 1.282Zm-3.424-9.344c.007 1.868.242 5.916.363 6.513.287 1.417.683 3.125 1.272 4.304 1.117-3.211 1.887-5.682 2.13-6.838-.03-.303-.223-2.179-.3-3.356l-3.465-.623Zm10.798 2.221c-.054 1.927.735 3.107 1.592 3.631l1.56-3.064-3.152-.567Zm-10.277 9.197c-.77.825-1.339 1.882-1.818 3.36-.115.352-.531 1.64-.828 2.559.203-.198.402-.416.535-.627.157-.25.393-.694.621-1.122.182-.343.358-.674.486-.89.515-.891.881-1.379 1.615-2.128a8.779 8.779 0 0 1-.61-1.152Zm5.346-21.654c-.397 1.265-.745 2.87-.972 4.483l2.155-.403c.071-.8.27-2.213.419-3.269.052-.365.096-.683.126-.907a5.854 5.854 0 0 1-.587-.099l-.225-.05.003-.08c-.262.128-.581.25-.919.325Zm5.789-.12c-.28.964-.41 2.326-.472 3.426l3.172-.595-1.647-3.132a7.532 7.532 0 0 1-1.053.3ZM9.427 92.757c.47 1.111 1.348 2.33 1.93 2.923.378-1.435.944-3.355 1.764-5.15l-3.947-.71c.06.955.154 2.047.253 2.937ZM6.452 78.69c-.612 2.18-1.072 3.974-1.372 5.34l3.037-.57c.211-1.655.57-3.377 1.002-4.807-.292-.03-.683-.063-.863-.078l-.29-.023.038-.3c-.439.198-.952.341-1.552.436Zm45.224 20.314c.878 1.122 1.564 2.298 2.186 3.366.278.476.528.968.77 1.443.578 1.133 1.123 2.203 2.023 3.112.248.28.64.54.993.718.209-.55.607-1.285.962-1.856-.172-.296-.342-.618-.487-.889a15.06 15.06 0 0 0-.258-.476l-.001-.003c-1.356-2.425-3.46-3.985-6.188-5.415Zm11.407 16.149c.758-.148.808-1.393.33-2.37-.328-.67-1.332-2.14-1.332-2.14l-3.869-.919c-.02.226-.032.455-.032.687 0 .76.175 1.682.39 2.374 1.588-.036 3.755 2.517 4.513 2.368Z" fill="#FFDB00"/><path fill-rule="evenodd" clip-rule="evenodd" d="m67.553 96.184.588 1.821-1.437-1.21-.415 2.26 1.776-.613-1.236 1.565 2.394.424-.595-1.89 1.435 1.203.418-2.274-1.775.637L69.9 96.6l-2.347-.416Zm5.627-16.913c2.691 3.775 3.644 7.75 4.282 10.41.111.465.212.882.308 1.243.253.94.82 1.462 1.37 1.968l.224.208c1.388 1.336 3.19 2.026 4.465 2.376.18.049.526.105.782.14-.275-3.013-.757-5.754-1.47-8.368l-.067-.25c-.04-.15-.08-.299-.122-.443a41.149 41.149 0 0 0-2.239-5.928c-.106-.154-.288-.499-.7-1.311a9.061 9.061 0 0 1-1.839.203c-1.333 0-2.615-.355-3.9-1.082.035.173.061.32.07.376l.047.27-.276.046c-.03.005-.517.085-.935.142ZM-.76 88.033l-.028.221c-.627 4.578-.577 9.021.14 12.511l.04.185c.124.57.293 1.353.53 2.019.33.934.996 2.187 1.398 2.912l.158-.596a57.36 57.36 0 0 1 .674-2.402c.652-2.03 1.221-3.909 1.578-6.341.037-.29-.05-1.118-.12-1.783a37.658 37.658 0 0 1-.085-.865c-.158-2.006-.259-3.66-.238-5.133l-4.046-.728Zm6.253 20.689-.388 2.663c1.276-.415 2.984-1.197 3.14-1.923.92-4.275 3.312-7.986 7.11-11.032l.825-1.591c-.639.226-1.231.452-1.795.684-2.03 1.546-3.132 3.435-4.299 5.436-.204.351-.401.712-.601 1.075-.71 1.293-1.444 2.631-2.605 3.778-.37.377-.819.613-1.387.91Zm21.578-83.918-.378.37c.23.176.46.355.688.543l-.31-.913Zm-.935-.138.021.014.006.005.589-.578-.64-1.883-.747.639.771 1.803ZM13.31 78.594a77.903 77.903 0 0 0-.525 3.995l1.664-.312c.048-.97.167-2.514.46-3.685-.162-.02-.304-.047-.425-.126l-.123-.083v-.154c-.407.233-.725.31-1.052.365Zm8.061-51.856c.126.049.279.097.46.132.51.098 3.711.03 4.902-.004l.683-.02c-2.615-2.283-5.371-3.749-8.049-4.26l5.46 3.412-3.456.74Zm3.716 2.348c1.758.072 3.28.508 4.769 1.364a2.41 2.41 0 0 1 .643-.45 29.142 29.142 0 0 0-3.08-3.15l-2.545 1.666c.098.177.17.37.213.57Zm-28.208 50.03c-1.242 1.863-2.127 4.983-2.594 6.936l4.18-.783c.522-2.633 1.204-4.832 1.876-6.064H.046l-.294-.001.016-.288c.002-.052.019-.34.043-.628a9.941 9.941 0 0 1-2.932.828Zm4.928.06c-.632.623-1.413 2.87-2.036 5.849l4.054-.759c.313-1.524.784-3.44 1.341-5.453-.237.01-.484.016-.74.016h-.27l-.007-.197c-.688.388-1.52.498-2.342.544Zm22.535-58.75.699 1.664.793-.68-.624-1.837-.868.853Zm27.011 62.396 2.18.409c-.222-1.547-.585-3.188-.995-4.49a4.131 4.131 0 0 1-.919-.325l.003.08-.224.051a5.868 5.868 0 0 1-.588.099c.03.225.075.546.127.914.149 1.058.347 2.473.416 3.262ZM83.704 96.69c-.918-.199-1.926-.583-2.925-1.112a1.51 1.51 0 0 1-.245.103c.529 9.155.147 15.489-1.233 20.502l1.764 8.212c1.968-5.7 4.293-13.918 3.744-22.588 0-1.699-.059-3.335-.18-4.992a11.4 11.4 0 0 1-.925-.126ZM15.61 77.47a2.29 2.29 0 0 0 1.031-.216l-.689-1.31a9.869 9.869 0 0 0-.343 1.525ZM2.28 66.929c-3.992 2.935-5.569 9.1-5.85 10.33-.07.347-.121.586-.159.752 1.428-.09 2.532-.439 3.808-1.196l.037-.156c.784-3.413 2.4-6.703 4.37-8.937-.572.136-1.086.094-1.531-.125a1.483 1.483 0 0 1-.675-.668Zm10.035 10.54c.782.087 1.716-.142 2.093-.534.193-.735.469-1.735.736-2.526l-.995-1.89c-.595 1.279-1.357 3.015-1.834 4.95ZM-.664 65.894v.05c0 .111.03.13.064.15.28.17 1.277.14 2.888-.63.555-.735 2.08-2.542 3.001-3.634l.197-.233c-1.033.167-2.382.192-2.982.04C.73 63.508-.418 65.051-.664 65.894Zm1.637-6.891c.547.053 1.722-.022 3.174-.573a27.863 27.863 0 0 1 1.674-1.428 2.24 2.24 0 0 0-.789-.898c-.766.33-1.833 1.011-3.026 1.931l-1.033.968Zm8.359 18.573c.951.15 1.586-.31 1.824-.526a43.57 43.57 0 0 1 2.262-5.918l-.766-1.454c-1.056 1.861-2.442 4.745-3.218 7.392l-.102.506Zm.154-10.236c.08.067.375.173.836.173.196 0 .391-.02.582-.057l-.005-.003c-.08-.047-.716-.483-.905-.622a4.53 4.53 0 0 0-.227.227 6.062 6.062 0 0 1-.28.282Zm-3.256.175c-1.78 1.745-3.598 4.121-4.977 9.244-.106.394-.158.888-.196 1.258 1.495-.02 2.918-.177 3.28-1.244 1.023-3.51 2.067-6.619 4.37-8.868a.69.69 0 0 1-.113-.121c-.7.088-1.733.129-2.364-.269Zm3.644.845c-2.3 2.072-3.263 4.92-4.367 8.704-.04.153-.095.387-.132.57 1.277-.06 2.262-.394 2.932-.999.872-2.953 2.206-5.971 3.6-8.15l-.346-.189c-.684.15-1.341.094-1.666.066l-.02-.001ZM-2.412 57.782c.768.178 2.436-.008 3.063-.2 1.035-.834 1.996-1.516 2.82-2.004a6.195 6.195 0 0 0-.739-.044c-1.41.18-3.235.975-5.144 2.248Zm10.107 7.282c-.53.641-.803 1.123-.941 1.424.028.082.36.233.685.284.483.048 1.294.019 1.532-.203.046-.04.087-.08.125-.118-.274-.245-.544-.521-.827-.81a26.656 26.656 0 0 0-.574-.577ZM-.13 59.82c-1.064.945-4.89 4.517-5.026 5.684-.024.318.123.5.161.528l-.163.223.164-.222c.446.316 2.377-.28 3.192-.541.394-1.218 1.844-3.172 3.922-5.278l.063-.064c-.791.102-1.788.112-2.313-.33Zm3.776.726c.618.043 1.815-.022 2.495-.316.09-.75.1-1.41.033-1.974a97.457 97.457 0 0 0-2.528 2.29Zm-.379 5.67a.2.2 0 0 0 .014.172c.065.113.222.19.308.208.288.06.822.168 2.208-.82.099-.14.225-.306.366-.489.245-.32.518-.678.758-1.046a4.874 4.874 0 0 1-.818-1.293c-1.161 1.076-2.5 2.556-2.836 3.268Zm-9.665-8.92c.668.316 1.808.14 2.74-.166l.15-.05c1.787-1.244 3.59-2.131 5.133-2.529a4.393 4.393 0 0 1-.516-1.002c-1.756.535-4.636 1.792-7.507 3.747Zm1.117 60.358c-.21.3-.439.775-.362.968.106.267 1.334.712 1.62.712 1.74-.015 4.481-.253 4.888-.426.058-.024.135-.26.07-.603-.065-.342-.22-.534-.303-.537h-.986c-.206.184-.733.582-1.47.582-.77 0-2.311-.792-2.808-1.058l-.65.362Zm6.701 1.43.021-.678c.01-.308-.067-.532-.25-.726l-.431-.46h2.8l-.628.489c-.4.311-.544.45-.895.785l-.618.59Zm18.781-89.308c.52 0 .944-.414.944-.922a.935.935 0 0 0-.944-.925.934.934 0 0 0-.941.925c0 .508.422.922.941.922Zm-1.377-11.738.901 2.063 1.07-.976-.926-2.181a5.353 5.353 0 0 0-.595.543 5.791 5.791 0 0 0-.45.551Zm1.123 12.625c.24.38.499.765.782 1.163.022-.451.18-.875.457-1.235a2.085 2.085 0 0 1-.081-.145c-.351.194-.761.27-1.158.217Zm-2.304-9.173c.18.005.356.011.53.024l.923-.84-.778-1.78c-.352.73-.58 1.603-.675 2.596Z" fill="#FFDB00"/><path fill-rule="evenodd" clip-rule="evenodd" d="m18.7 26.04.844 1.104c.085-.031.172-.057.26-.076l-.521-.574-.22-.24 3.048-.74-3.843-2.399 2.938 2.306-2.507.618Z" fill="#FFDB00"/><path fill-rule="evenodd" clip-rule="evenodd" d="M17.77 24.036c0 .388.024.774.07 1.158l1.07-.264-1.14-.894Zm51.78 90.494c.063-.754-1.71-2.52-1.71-2.52l-1.613-.383s.691 1.044.725 2.152c.033 1.107-.363 2.227-.363 2.227.773-.085 2.898-.723 2.961-1.476Z" fill="#FFDB00"/><path fill-rule="evenodd" clip-rule="evenodd" d="M55.923 115.525c.12 0 .23.005.324.015.454.051 1.65.478 3.563 1.171 2.314.838 5.475 1.983 6.484 1.983l.031-.001c.748-.018 2.8-.728 3.432-1.187.801-.582 1.977-1.744 1.93-2.561-.054-.923-1.075-2.168-1.085-2.181-.187-.336-.926-.59-1.607-.671.645.682 1.616 1.841 1.476 2.524-.182.885-.957 1.511-2.439 1.972-.953.296-2.14.364-2.19.367l-.4.023.118-.377c.005-.015.488-1.581.53-2.78.032-.932-.744-2.125-1.124-2.559-.228-.259-.91-.441-1.648-.465.395.529 1.012 1.436 1.177 2.124.36 1.523-.046 2.774-1.01 3.115-.585.208-1.468-.346-2.85-1.28-.66-.448-1.57-1.073-1.83-1.027a.808.808 0 0 0-.27.084l-.204.187c-.06.051-.116.112-.169.185a1.44 1.44 0 0 0-.13.296l-.031.227-.238.013c-3.94.149-4.281-.144-4.427-.269a.877.877 0 0 1-.303-.629c-.051-.833.853-1.844.956-1.957.216-.236.455-.445.644-.599a2.535 2.535 0 0 1-.741-.677 3.591 3.591 0 0 1-1.39 1.731c-1.166.768-2.1.847-2.513.851-.206.606-.579 1.753-.635 2.126-.036.243.047.535.212.744a.65.65 0 0 0 .438.264c.212.022 1.177-.137 2.11-.293 1.383-.231 2.928-.489 3.809-.489ZM28.696 9.753h5.5l-2.13-3.785 3.73 2.167V2.832l-3.733 2.186 2.133-3.793h-5.478l2.112 3.788-3.724-2.18v5.293l3.73-2.156-2.14 3.783Zm43.757 104.478c.185-.284.366-.656.51-1.005l-1.225-.29c.278.275.715 1.295.715 1.295Zm-12.96-8.034a7.422 7.422 0 0 0-1.196 2.899l3.449.837c1.282-.159 2.699.105 3.442.479.664.334.725.493.725.493l1.523.343c1.48-.224 3.244.317 3.868.927l1.875.456a7.383 7.383 0 0 0 .28-3.137l-13.966-3.297Zm10.577-3.223a8.534 8.534 0 0 1 3.93 4.513c.033-.222.065-.454.096-.697.165-1.348.26-2.877.289-4.674.004-.246-.053-2.665-.108-5.005-.038-1.612-.075-3.208-.093-4.093-1.192-.26-2.141-.664-3.486-1.814.013.127.024.248.03.34l.016.245-.422.073c.076.88.11 1.706.145 2.576l.035.85c.009.199.015.403.018.61l.85.15-.356.429.545-.2-.91 4.946-.352-.301a47.623 47.623 0 0 1-.227 2.052Zm4.354 8.726 1.756 8.194c.5-.914 1.409-2.624 2.025-4.051.752-1.74 2.073-9.493 1.117-21.233l-.048-.036c-.46-.348-.827-.626-1.65-1.607-.521.131-1.434.182-2.162.155.024 1.31.09 4.572.122 6.163l.018.909c.011 2.111-.023 4.857-.392 7.365-.17 1.158-.403 2.2-.691 3.097-.01.35-.042.701-.095 1.044Zm-77.853 2.77c.557 0 1.36.567 2.41 1.353.41.308.8.6.99.684.55.243 3.2.267 3.855.087.22-.06.485-.195.793-.353.537-.275 1.206-.616 1.963-.7.776-.084 2.562.211 4.136.474.93.155 1.895.32 2.107.293a.66.66 0 0 0 .438-.264 1.02 1.02 0 0 0 .211-.745c-.055-.374-.428-1.52-.633-2.126-.434.001-1.349-.083-2.514-.851a3.592 3.592 0 0 1-1.39-1.731c-.212.285-.44.493-.74.677.188.154.427.362.643.599.103.112 1.006 1.124.956 1.958a.883.883 0 0 1-.303.629c-.734.631-7.291.118-8.038.057-.495-.04-1.403-.179-2.281-.312-.949-.146-2.128-.323-2.373-.306-.44.037-1.58.526-2.143.976-.51.409-.581 1.225-.475 1.531.06.174.105.202.106.202.003.001.041.008.18-.043.193-.07.367-.261.418-.329.179-.35.889-1.621 1.547-1.748a.77.77 0 0 1 .137-.012Zm16.79-12.448c-1.363 1.595-2.821 3.704-3.332 5.537-.655 2.343.486 3.452.852 3.735.415.323.942.479 1.316.554l-.002-.006c-.282-.605-.667-1.434-.885-2.304l-.025-.096c-.207-.822-.422-1.672.002-3.196.212-.76 1.242-2.713 2.074-4.224Zm12.807 9.852c-1.406 1.197-2.904 2.55-4.559 4.054-.504.457-1.019.884-1.517 1.299-1.1.915-2.24 1.861-3.356 3.207-.884 1.039-1.524 3.495-1.507 4.998.024 2.303.996 4.19 2.021 5.991.432-9.852 5.017-16.197 8.977-18.73l-.059-.819Z" fill="#FFDB00"/><path fill-rule="evenodd" clip-rule="evenodd" d="M18.416 133.027c.787 2.046 1.61 3.497 2.605 4.578-2.53-10.821.729-19.136 5.421-21.934l-.114-1.593c-3.717 2.718-7.873 9.167-7.912 18.949Zm.166-30.474c-.57 1.159-1.575 3.668-1.8 4.835.328-.047.682-.08 1.056-.096.436-2.351 3.275-5.078 8.793-6.125l-.366-2.467-7.683 3.853Zm-5.558 2.787c-.259.34-.787 1.425-.768 2.498.019.986.304 1.845.574 2.443a3.61 3.61 0 0 1 .73-1.375c.632-.731 1.567-1.101 1.973-1.235.093-.965.77-2.851 1.358-4.271l-3.867 1.94Z" fill="#FFDB00"/><path fill-rule="evenodd" clip-rule="evenodd" d="M22.608 138.93c.949.604 2.032 1.015 3.297 1.249a52.941 52.941 0 0 1-.36-1.059c-6.623-3.705-2.516-15.502 1.002-21.972l-.01-.131c-4.263 2.979-6.923 11.286-3.93 21.913Zm-11.983-19.111c.272.373.716.819 1.298 1.113.733.37 1.873.586 3.14-.497 1.53-1.601 3.11-3.024 4.64-4.399.366-.329.729-.656 1.085-.98 1.759-1.595 3.575-3.244 5.275-4.656l-.127-1.761c-1.29 2.495-4.88 6.87-7.871 6.957-.538.378-1.102.953-1.697 1.56-1.134 1.158-2.415 2.465-3.996 2.852l-.106.016a3.453 3.453 0 0 1-1.641-.205Z" fill="#FFDB00"/><path fill-rule="evenodd" clip-rule="evenodd" d="M19.063 107.325c.506.065 1.006.189 1.514.322l.158.042c.77.205 1.498.397 2.208.296.121-.018.244-.041.367-.077.904-.269 1.852-1.789 2.39-3.008l.931-2.467c-4.305.888-7.089 2.689-7.569 4.892Zm7.64-4.907 1.267 17.65-.094.158c-4.339 7.463-2.714 14.469-.552 20.34.154.263.318.466.678.91.285.349.682.838 1.281 1.625.392.515.982 1.141 1.455 1.644l.046.047v-1.391c-5.859-8.802-3.418-16.327-1.037-21.248l-2.933-19.757-.11.022Z" fill="#FFDB00"/><path fill-rule="evenodd" clip-rule="evenodd" d="M26.712 119.432c-1.147.462-5.983 13.64-1.75 17.761-1.209-4.382-1.023-10.497 1.776-17.399l-.026-.362Zm24.938-13.256c.424 1.523.21 2.373.002 3.196l-.024.096c-.22.87-.605 1.698-.886 2.303a.032.032 0 0 1-.003.006c.376-.075.902-.23 1.317-.554.365-.283 1.507-1.392.852-3.735-.511-1.832-1.969-3.942-3.332-5.537.832 1.512 1.862 3.464 2.075 4.225Zm-14.941 6.446c3.96 2.533 8.545 8.878 8.977 18.729 1.025-1.8 1.997-3.687 2.02-5.99.018-1.504-.622-3.959-1.507-4.998-1.116-1.346-2.255-2.293-3.356-3.207-.498-.415-1.013-.842-1.516-1.3-1.655-1.503-3.153-2.856-4.56-4.053l-.058.819Z" fill="#FFDB00"/><path fill-rule="evenodd" clip-rule="evenodd" d="m36.608 114.007-.114 1.593c4.693 2.798 7.952 11.113 5.422 21.934.995-1.081 1.817-2.532 2.605-4.578-.04-9.783-4.196-16.231-7.913-18.949Zm.062-15.378-.365 2.467c5.518 1.048 8.356 3.774 8.793 6.125.374.016.727.049 1.056.096-.226-1.167-1.23-3.676-1.8-4.835l-7.683-3.853Zm9.375 4.701c.587 1.419 1.264 3.305 1.358 4.27.406.134 1.34.504 1.972 1.235a3.6 3.6 0 0 1 .73 1.375c.27-.598.556-1.457.574-2.444.02-1.072-.508-2.157-.767-2.496l-3.867-1.94Z" fill="#FFDB00"/><path fill-rule="evenodd" clip-rule="evenodd" d="m36.398 116.946-.01.131c3.518 6.47 7.626 18.267 1.003 21.972a59.8 59.8 0 0 1-.36 1.06c1.265-.235 2.348-.646 3.297-1.25 2.994-10.627.334-18.933-3.93-21.913Zm14.272 3.007-.107-.016c-1.58-.386-2.86-1.694-3.996-2.852-.594-.607-1.158-1.181-1.696-1.56-2.992-.087-6.58-4.461-7.871-6.957l-.127 1.762c1.699 1.411 3.515 3.06 5.274 4.655.357.325.72.651 1.086.981 1.529 1.375 3.11 2.797 4.64 4.399 1.267 1.082 2.407.866 3.14.496a3.75 3.75 0 0 0 1.298-1.113 3.455 3.455 0 0 1-1.64.205Z" fill="#FFDB00"/><path fill-rule="evenodd" clip-rule="evenodd" d="m36.305 102.362.932 2.467c.537 1.219 1.485 2.739 2.388 3.008.124.036.246.059.368.077.71.101 1.437-.091 2.207-.296l.158-.041c.508-.134 1.009-.258 1.516-.322-.48-2.204-3.265-4.005-7.569-4.893Zm-.184-.037-2.932 19.757c2.382 4.922 4.821 12.447-1.037 21.248v1.392l.045-.048c.474-.503 1.063-1.129 1.455-1.644.6-.787.997-1.275 1.282-1.625.36-.444.524-.646.678-.91 2.161-5.87 3.786-12.877-.552-20.34l-.094-.157 1.266-17.65-.11-.023Z" fill="#FFDB00"/><path fill-rule="evenodd" clip-rule="evenodd" d="M36.2 119.723c2.797 6.902 2.984 13.016 1.774 17.399 4.235-4.12-.603-17.299-1.75-17.761l-.025.362Zm-9.364-68.265c.316.509 1.604 2.51 2.377 3.65l1-6.56a77.983 77.983 0 0 1-1.726-.803v-.001c-.541-.266-1.097-.54-1.651-.77v4.484Zm-7.262 19.467 2.07 1.04-.054-2.492-2.016 1.452Zm4.233 2.125 2.1 1.043-.883-2.903-1.217 1.86Zm-4.934-34.748.001.037c-.003.038.02.145.212.36 1.063 1.201 5.478 2.494 9.555 2.815a42.689 42.689 0 0 1-4.157-2.398l-.826-.135c-1.758-.286-3.291-.535-4.74-.844-.012.055-.028.11-.045.165Zm6.701 30.746 1.058 3.278.762-5.032c-.551.576-1.343 1.378-1.82 1.754Z" fill="#FFDB00"/><path fill-rule="evenodd" clip-rule="evenodd" d="M22.91 66.766v5.542l2.067-3.387-.411-6.482c-1.187 2.054-2.772 3.605-4.624 4.514-1.067.523-2.72.813-2.79.825l-.621.107.335-.523c.621-.968 1.973-3.08 2.723-4.263-1.27.592-2.865 1.149-3.598 1.347-.574.126-1.416.215-2.245-.061-.015-.005-1.538-.543-2.982-2.142-.69-.822-1.546-2.183-1.71-3.342-.266-1.865-.92-3.255-2.055-4.375-.709-.698-1.663-.997-2.091-1.102l-.001.002-.246-.054c-.711-.155-1.505-.182-2.364-.08.14.332.4.74.682 1.06 1.482.048 2.634.51 3.427 1.375 1.245 1.36.96 3.698.772 5.245-.067.561-.126 1.045-.086 1.276.274 1.233 1.919 2.592 3.24 3.683.43.388 2.198 1.582 3.509 2.216l4.346 2.086 4.724-3.467Z" fill="#FFDB00"/><path fill-rule="evenodd" clip-rule="evenodd" d="M15.352 62.24c.503.155 1.214.317 1.938.28.328-.017 1.555-.171 3.549-1.475l1.778-1.615s.56-1.647.386-3.76a22.862 22.862 0 0 0-.155-1.358c-.698 2.514-1.829 4.056-3.372 4.593-.2.33-.5.726-.915 1.209l-.123.141-.018-.006c-.432.401-1.615 1.417-3.068 1.991Zm10.307-4.973.48 9.407.398-.383c.41-.39.796-.76 1.147-1.146l1.242-8.152c-.561-.797-1.604-2.452-2.2-3.408-.31 2.585-5.47 6.544-5.47 6.544-.096.172-1.04 4.21-2.035 5.854 2.27-1.005 4.14-3.214 5.32-6.309l1.118-2.407Zm-6.631-8.983c.35.672 1.003 1.972 1.32 3.462.264-.606.433-1.339.506-2.19.13-1.54-.393-3.937-.399-3.96l-.123-.56 1.115.547c1.562.767 2.966 2.055 4.181 3.837v-4.128l.794.259c.805.262 1.606.644 2.383 1.024-.956-1.41-2.374-3.748-2.698-4.284-2.045-.308-6.56-1.154-7.988-2.767a1.859 1.859 0 0 1-.06-.071 3.005 3.005 0 0 1-1.286.578c.14 1.014.608 2.267 1.015 3.06l.064.129v1.597l.09.124c.752 1.034 1.529 2.101 1.086 3.343Z" fill="#FFDB00"/><path fill-rule="evenodd" clip-rule="evenodd" d="m20.59 53.562-.01.482c-.017 1.045-.032 1.912-.375 3.058 2.644-2.79 2.586-7.814 2.586-7.814s2.039 3.891 1.153 6.906c.906-1.271 1.666-2.123 1.683-4.434-.732-1.406-1.93-3.245-3.637-4.468.126.973.146 1.88.06 2.703-.154 1.47-.644 2.669-1.46 3.567Zm-6.319-16.637c.62 1.293 1.388 1.985 1.854 1.985.718 0 1.484-.412 1.623-1.046l-3.477-.938Zm-3.206-1.149 5.255 6.997c-.355-.865-.671-1.899-.765-2.774-1.186-.392-2.256-2.017-2.835-3.562a23.133 23.133 0 0 1-1.655-.661ZM5.939 39.51c.043 0 .086 0 .129.002 1.628.048 2.702.56 3.742 1.054.517.248.951.45 1.441.614.091.029 1.88.584 3.129 1.007l-5.224-6.953c-.3-.074-1.52-.289-3.455.473-.822.324-1.408.884-1.743 1.666-.375.873-.396 1.971-.075 3.024.044-.052.092-.104.145-.157.48-.485 1.122-.73 1.91-.73Zm-6.093 2.03c1.85 2.223 4.734 3.388 8.59 3.468.538-1.238 1.887-2.007 3.88-2.233-.432-.137-.816-.261-.995-.319-1.15.442-6.55.548-7.854.36-1.296-.186-2.329-.666-3.621-1.276Zm10.799-7.293c2.633 1.425 6.427 2.484 12.61 3.526 1.072.14 1.954.19 2.665.15-1.792-.665-4.488-1.778-7.107-2.86-2.902-1.198-6.192-2.556-6.604-2.59-.643-.057-1.367 1.002-1.564 1.774Zm2.975 9.646c-1.997 0-3.823.48-4.176 1.864-.289 1.137-.285 2.215.014 3.278.914-1.77 2.102-2.91 4.445-2.913 1.495 0 2.89.387 4.004 1.098-.122-.43-.463-.924-.94-1.58l-.204-.281-.974-1.297a14.782 14.782 0 0 0-2.17-.169ZM42.7 27.929a.934.934 0 0 0-.942.925c0 .508.422.922.941.922.52 0 .943-.414.943-.922a.935.935 0 0 0-.943-.925Zm1.292-2.999 1.064.263c.046-.386.07-.77.07-1.147v-.005l-1.134.89Zm-2.262 5.632c.292.302.487.667.572 1.063.226-.323.44-.645.638-.96a1.883 1.883 0 0 1-1.146-.218c-.02.039-.041.078-.063.115Zm15.186 80.464.29.103a8.166 8.166 0 0 1-.032-.718c0-.458.064-1.063.17-1.627l-.009-.062c-.567-.297-1.017-.534-1.388-.912-1.114-1.102-1.797-2.383-2.458-3.623-.221-.415-.44-.827-.674-1.228-1.167-2.001-2.269-3.89-4.335-5.46a47.876 47.876 0 0 0-1.798-.674l.33.728.463.877c3.796 3.045 6.188 6.757 7.109 11.031.108.504.98 1.103 2.372 1.645l-.04-.08Z" fill="#FFDB00"/><path fill-rule="evenodd" clip-rule="evenodd" d="m40.746 25.556 3.24.765.216-.282-2.507-.618 2.924-2.294-3.873 2.429Zm2.403 1.524c.07.017.14.038.207.064l.573-.749-.203.178-.577.507ZM20.543 16.471l.884 2.08.909-.83-.74-1.764a7.497 7.497 0 0 0-1.053.514Zm45.306 86.414a7.71 7.71 0 0 0-5.939 2.763l13.435 3.171c-.744-3.391-3.817-5.934-7.496-5.934Zm4.626-13.512c1.421 1.382 2.398 2.093 3.257 2.372v.001c.21.068.857.193 1.063.216.968.102 1.632.092 1.958.03-.06-.288-.159-.714-.198-.886l-.013-.055c-1.57-6.742-2.896-8.796-4.299-10.97-.156-.242-.313-.486-.473-.738-1.615-.045-2.817-.52-3.787-1.057.05.309.09.6.092.62l.04.31h-.318l-.358-.002c1.406 2.646 2.478 6.227 3.036 10.159Zm-13.237 12.232c.688.699 1.039 1.139 1.58 2.073.127.217.305.551.488.895l.089.166c.118-.119.265-.263.42-.411l-.184-.572c-.287-1.334-.857-2.432-1.745-3.363a9.468 9.468 0 0 1-.648 1.212Zm8.897.574a8.51 8.51 0 0 1 3.028.661 65.89 65.89 0 0 0 .232-1.812l-2.915-.488-.345 1.639ZM29.17 16.56l.267 1.477.345-1.014-.612-.463Zm.89 4.942.31-1.226-.724-1.065.414 2.291Zm.939-1.797h.9l.826-1.216-.363-1.066h-1.826l-.362 1.066.825 1.216Zm-.679-6.058h2.26l1.119-.732-.677-.998h-3.144l-.677.998 1.118.732Zm-1.992 12.782a29.585 29.585 0 0 1 2.056 2.05l-.921-3.16-1.135 1.11Zm.297-12.892.29 1.61.716-.95-1.006-.66Zm-3.272 1.539c-.3.021-.586.055-.87.09l.183.537.687-.627Zm-2.06 2.851.716 1.705.916-.9-.594-1.75-1.038.945Zm-.941-2.247.614 1.466 1.086-.99-.274-.807c-.535.093-1.003.202-1.426.331Zm5.322 8.641.414 1.222 1.12-1.096-.37-1.269-1.164 1.143Zm-.904-2.663.619 1.823 1.196-1.174-.514-1.765-1.302 1.116Zm-.92-2.712.644 1.897 1.332-1.142-.61-2.096-1.366 1.341Zm-.868-2.557.583 1.717 1.397-1.372-.473-1.626-.04.002c-.022.001-.044.003-.067.003l-1.4 1.276Zm9.328 5.919 1.197 1.173.619-1.823-1.302-1.115-.514 1.765Zm3.659-3.575.916.9.715-1.706-1.037-.945-.594 1.75Zm.444-3.567a16.268 16.268 0 0 0-.87-.09l.688.627.182-.537Zm-2.479 1.568 1.397 1.372.584-1.717-1.4-1.276c-.023 0-.045-.002-.068-.003l-.04-.002-.473 1.626Zm-.866 2.966 1.332 1.144.645-1.897-1.366-1.342-.61 2.096Zm7.034-.576 1.07.977.9-2.062a5.608 5.608 0 0 0-.45-.552 5.455 5.455 0 0 0-.595-.543l-.925 2.18ZM40.56 17.72l.909.83.883-2.08a7.465 7.465 0 0 0-1.052-.513l-.74 1.764Zm-1.716-1.563 1.084.99.616-1.467a11.718 11.718 0 0 0-1.426-.33l-.274.807Zm-8.504.241h2.22l.822-.624-.856-1.056-1.082-.018-1.068.018-.857 1.056.821.624Zm3.124 1.639.267-1.477-.612.464.345 1.013Zm10.335 2.636.923.841c.174-.013.355-.019.53-.024-.096-.993-.324-1.866-.676-2.596l-.777 1.78Zm-10.959.829.413-2.291-.724 1.065.311 1.226Zm1.145-6.354.291-1.61-.997.66.706.95Zm-.551 10.17-.926 3.177a60.882 60.882 0 0 1 2.02-2.024l.042-.04-1.136-1.113Zm.251-.871 1.12 1.097.416-1.223-1.166-1.143-.37 1.27Zm4.713 14.669c-.982.64-2.352 1.419-4.254 2.418 4.396-.168 8.61-1.615 9.688-2.834a.745.745 0 0 0 .18-.439 2.474 2.474 0 0 1-.033-.124c-1.425.303-2.934.548-4.665.83l-.916.149Zm2.911 30.357-.053 2.492 2.07-1.04-2.017-1.452ZM32.685 48.54l1 6.555a161.77 161.77 0 0 0 2.378-3.638v-4.484c-.554.231-1.11.505-1.65.77-.427.21-1.194.563-1.727.798Zm5.226 22.653L37 74.089l2.096-1.042-1.185-1.854Zm7.243-33.32c.144.629.906 1.037 1.62 1.037.462 0 1.222-.681 1.84-1.955-1.03.314-2.19.621-3.46.918Zm3.833 8.25c2.354.004 3.541 1.144 4.456 2.912.299-1.062.302-2.14.013-3.278-.48-1.884-3.691-2.093-6.344-1.696l-1.094 1.462v.004l-.081.113c-.477.656-.817 1.15-.939 1.581 1.075-.685 2.421-1.07 3.855-1.094l.134-.005Z" fill="#FFDB00"/><path fill-rule="evenodd" clip-rule="evenodd" d="m42.559 45.042-.244 1.187c-.253 1.241-.276 2.388-.264 3.347.028.792.199 1.535.5 2.185.31-1.487.952-2.762 1.324-3.477-.366-1.026.095-1.93.76-2.885l-.012-.003.425-.58V43.22l.062-.126c.408-.795.877-2.05 1.017-3.063a3.009 3.009 0 0 1-1.274-.568 1.78 1.78 0 0 1-.054.062c-1.429 1.617-5.966 2.463-8.008 2.77-.328.543-1.741 2.873-2.695 4.28.78-.38 1.578-.76 2.38-1.023l.795-.259v4.127c1.215-1.78 2.618-3.07 4.181-3.836l1.107-.54Z" fill="#FFDB00"/><path fill-rule="evenodd" clip-rule="evenodd" d="m40.27 48.141.198 1.267.09.811c.043.413.09.84.095.882.352 2.373.917 5.114 2.192 6.204-.42-1.296-.49-2.37-.528-3.742-.817-.912-1.364-2.37-1.425-3.286l.02-.002c-.134-.552-.078-1.998.02-2.996-1.718 1.222-2.922 3.07-3.657 4.482.018 2.327.475 4.093 1.394 5.366-.005-.916.095-1.977.149-2.478.263-1.934.76-4.048 1.105-5.272l.348-1.236Zm-4.766 19.125.769 5.083 1.09-3.284c-.197-.193-.45-.436-.721-.696-.38-.365-.79-.758-1.138-1.103Zm15.082-24.491c1.994.226 3.342.995 3.88 2.233 3.856-.08 6.74-1.245 8.59-3.468-1.292.61-2.326 1.09-3.622 1.277-1.302.186-6.704.081-7.854-.361l-.994.319Z" fill="#FFDB00"/><path fill-rule="evenodd" clip-rule="evenodd" d="m40.52 60.035 1.542 1.01c1.992 1.303 3.22 1.459 3.549 1.475.69.035 1.364-.108 1.861-.256-1.743-.585-2.784-1.705-3.439-2.545-.087-.11-.218-.328-.345-.537l-.124-.202c-2.029-.497-2.952-2.4-3.515-4.623-.064.454-.11.868-.142 1.269-.165 2.621.355 3.83.36 3.84l.252.569Zm-5.303 5.11c.334.366.714.719 1.114 1.092.157.146.314.292.469.439l.437-9.42 1.114 2.401c1.187 3.111 3.059 5.321 5.328 6.326-.993-1.643-2.934-5.07-3.03-5.241l-.343-.604-1.194-.88c-1.662-1.227-2.628-3.088-2.937-5.676-.596.954-1.642 2.614-2.2 3.41l1.242 8.153Z" fill="#FFDB00"/><path fill-rule="evenodd" clip-rule="evenodd" d="M37.965 68.922 39.99 72.3v-5.534l4.724 3.467 4.346-2.086c1.313-.635 3.08-1.829 3.498-2.208 1.262-1.041 2.976-2.456 3.252-3.703.038-.22-.02-.704-.089-1.266-.188-1.547-.472-3.884.773-5.242.793-.866 1.946-1.328 3.427-1.376.282-.32.542-.728.682-1.06-.858-.102-1.651-.075-2.364.08l-.265.058v-.002c-.436.109-1.37.407-2.073 1.098-1.136 1.12-1.789 2.51-2.054 4.375-.166 1.159-1.021 2.52-1.703 3.334-1.445 1.6-2.972 2.145-2.987 2.15-.834.277-1.676.187-2.235.064-.743-.201-2.34-.758-3.61-1.35a1128.5 1128.5 0 0 0 2.722 4.263l.335.523-.62-.107c-.07-.012-1.724-.302-2.79-.825-1.85-.908-3.433-2.455-4.62-4.505l-.374 6.474Zm-1.002-30.997c.784.056 1.678.002 2.673-.164 6.208-1.047 10.004-2.101 12.613-3.51-.249-.742-1.315-1.757-1.674-1.757h-.004c-.31.044-3.085 1.185-5.77 2.29-2.78 1.143-5.871 2.414-7.838 3.142Zm10.383 2.074c-.096.913-.42 1.94-.764 2.772l5.255-6.996a23.08 23.08 0 0 1-1.655.662c-.58 1.545-1.65 3.17-2.836 3.562Zm6.385-4.747-5.21 6.936c1.238-.42 3.005-.969 3.132-1.009.487-.163.921-.365 1.438-.612 1.04-.495 2.114-1.006 3.741-1.054.855-.027 1.543.18 2.09.639l.072.063c.319-1.575.339-3.788-1.78-4.503-1.78-.6-3.11-.504-3.483-.46Zm-6.696 40.693-.69 1.31c.385.184.768.22 1.033.214a9.912 9.912 0 0 0-.343-1.524Zm12.995-8.348c-.444.22-.959.26-1.532.125 1.971 2.234 3.587 5.523 4.372 8.937l.036.156c1.276.757 2.38 1.107 3.807 1.196a39.84 39.84 0 0 1-.159-.751c-.28-1.231-1.857-7.396-5.85-10.33a1.486 1.486 0 0 1-.673.667Zm-11.191 4.921-.995 1.89c.267.792.542 1.792.735 2.527.378.392 1.312.621 2.094.534-.477-1.935-1.24-3.671-1.834-4.95Zm11.643-10.881c-.6.151-1.95.127-2.982-.04l.197.233c.92 1.092 2.446 2.9 3 3.635 1.611.769 2.61.8 2.89.629.033-.021.063-.039.063-.15v-.05c-.246-.843-1.395-2.386-3.168-4.257Zm6.015-3.127c-.644.48-1.478.537-2.472.458 2.335 2.104 4.27 4.341 5.16 5.98 1.05.515 2.117 1.027 2.518.867.12-.05.362-.216.359-.421-.33-1.881-2.554-4.629-5.565-6.884Z" fill="#FFDB00"/><path fill-rule="evenodd" clip-rule="evenodd" d="M60.98 58.035c-1.194-.92-2.26-1.6-3.028-1.931a2.207 2.207 0 0 0-.788.897c.445.343 1.018.831 1.675 1.429 1.451.551 2.625.626 3.174.574-.402-.376-1.035-.968-1.034-.969ZM53.552 77.07c-.776-2.647-2.163-5.53-3.219-7.392l-.765 1.454c.893 1.906 1.693 4 2.262 5.918.238.215.873.676 1.824.526l-.102-.505Zm19.106.067c-1.636-4.275-3.054-7.722-5.095-9.84-.662.015-1.534-.17-2.916-.603-.106.16-.25.3-.426.407-.301.183-.684.268-1.15.262 1.156 1.139 1.688 2.085 2.166 2.933l.21.371c1.005 1.74 1.84 4.295 2.262 6.007 1.512.975 2.902 1.695 5.326 1.444-.116-.303-.282-.737-.377-.981ZM53.219 67.058c-.095-.098-.182-.19-.227-.227-.19.14-.825.575-.905.622l-.005.003c.191.037.387.057.582.057.461 0 .757-.106.836-.173a6.082 6.082 0 0 1-.281-.282Zm1.173.726a.716.716 0 0 1-.113.121c2.303 2.249 3.348 5.358 4.37 8.868.363 1.066 1.785 1.224 3.28 1.245-.037-.371-.09-.865-.196-1.26-1.378-5.122-3.197-7.498-4.977-9.243-.631.398-1.664.357-2.364.269Zm-1.302.578c-.324.028-.982.085-1.665-.066l-.347.188c1.395 2.18 2.729 5.197 3.6 8.152.671.604 1.656.94 2.933.997a11.196 11.196 0 0 0-.132-.568c-1.104-3.784-2.068-6.633-4.367-8.704l-.022.001Zm7.165-12.829a6.11 6.11 0 0 0-.74.045c.826.488 1.786 1.17 2.822 2.004.626.192 2.294.378 3.062.2-1.909-1.273-3.734-2.069-5.144-2.249ZM54.717 65.64c-.282.29-.553.566-.826.81.037.038.078.078.124.119.238.222 1.05.25 1.532.203.325-.052.657-.202.685-.284-.138-.302-.411-.782-.941-1.424-.195.189-.386.384-.574.576Zm6.086-5.49.063.064c2.078 2.106 3.528 4.06 3.922 5.278.815.261 2.746.857 3.191.54l.164.223-.163-.222c.038-.028.185-.211.161-.529-.136-1.168-3.96-4.74-5.025-5.684-.526.442-1.522.431-2.313.33Zm-3.99-1.894c-.067.563-.057 1.224.033 1.974.68.294 1.877.358 2.495.317a97.561 97.561 0 0 0-2.528-2.29Zm.071 4.692a4.903 4.903 0 0 1-.818 1.293c.24.368.514.725.759 1.046.14.183.267.348.365.489 1.386.988 1.92.88 2.209.82a.524.524 0 0 0 .307-.208.2.2 0 0 0 .015-.172c-.336-.712-1.675-2.192-2.837-3.268Zm18.674 4.118c-1.189-.08-1.869-.452-2.526-.813l-.074-.04c-.21.337-.471.566-.793.698-.784.317-1.693-.026-2.949-.626-.09.246-.227.451-.41.613 2 2.295 3.424 5.753 4.935 9.696 2.458 1.881 4.418 1.89 6.025 1.58-.535-3.564-1.838-7.003-4.208-11.108Zm-5.128-9.035c-.45.389-1.082.595-1.862.61 2.495 2.152 4.238 4.53 4.645 6.36.141.073.277.146.406.218.68.372 1.219.666 2.326.68a1.55 1.55 0 0 0 .489-.09c-.693-3.226-3.592-5.981-6.004-7.778Zm-8.553-4.481a4.43 4.43 0 0 1-.516 1.001c1.543.398 3.345 1.285 5.132 2.53l.15.049c.932.307 2.072.483 2.74.166-2.87-1.955-5.75-3.212-7.506-3.747Z" fill="#FFDB00"/></svg>