<svg width="14" height="13" viewBox="0 0 14 13" fill="none" xmlns="http://www.w3.org/2000/svg"><path d="m13.695.532-.338 2.34c-.69-.06-1.237.06-1.642.36-.405.285-.682.698-.832 1.238-.135.525-.158 1.125-.068 1.8h2.88v5.783H8.137V6.045c0-1.965.465-3.45 1.396-4.455C10.463.57 11.85.217 13.695.532Zm-7.538 0-.337 2.34c-.69-.06-1.238.06-1.643.36-.404.285-.682.698-.832 1.238-.135.525-.158 1.125-.068 1.8h2.88v5.783H.6V6.045c0-1.965.465-3.45 1.395-4.455C2.925.57 4.312.217 6.157.532Z" fill="#981D15"/></svg>