<svg width="14" height="13" viewBox="0 0 14 13" fill="none" xmlns="http://www.w3.org/2000/svg"><path d="m13.695 12.467-.338-2.34c-.69.06-1.237-.06-1.642-.36-.405-.284-.682-.697-.832-1.237-.135-.525-.158-1.125-.068-1.8h2.88V.948H8.137v6.007c0 1.965.465 3.45 1.396 4.455.93 1.02 2.317 1.373 4.162 1.057Zm-7.538 0-.337-2.34c-.69.06-1.238-.06-1.643-.36-.404-.284-.682-.697-.832-1.237-.135-.525-.158-1.125-.068-1.8h2.88V.948H.6v6.007c0 1.965.465 3.45 1.395 4.455.93 1.02 2.317 1.373 4.162 1.057Z" fill="#981D15"/></svg>