<svg width="460" height="188" viewBox="0 0 460 188" fill="none" xmlns="http://www.w3.org/2000/svg"><path d="M75.71 188c-13.371 0-25.446-2.343-36.226-7.028-10.696-4.769-19.512-11.546-26.448-20.331C6.184 151.773 1.838 141.231 0 129.016l35.598-5.271c2.507 10.374 7.688 18.364 15.543 23.97 7.855 5.605 16.797 8.408 26.825 8.408 5.598 0 11.03-.878 16.294-2.635 5.265-1.757 9.569-4.351 12.911-7.781 3.426-3.43 5.139-7.656 5.139-12.676 0-1.84-.292-3.597-.877-5.27-.501-1.757-1.379-3.389-2.632-4.895-1.254-1.506-3.05-2.928-5.39-4.267-2.256-1.339-5.14-2.552-8.65-3.639l-46.879-13.805c-3.51-1.004-7.604-2.427-12.284-4.267-4.596-1.84-9.066-4.476-13.412-7.907-4.345-3.43-7.98-7.948-10.905-13.553-2.841-5.69-4.262-12.843-4.262-21.46 0-12.132 3.05-22.214 9.15-30.246 6.1-8.032 14.248-14.014 24.443-17.946C50.807 1.843 62.088-.081 74.456.003c12.45.167 23.565 2.3 33.342 6.4 9.777 4.1 17.966 10.082 24.568 17.946 6.601 7.781 11.365 17.32 14.289 28.614l-36.852 6.275c-1.337-5.856-3.802-10.793-7.395-14.809-3.593-4.016-7.897-7.07-12.91-9.161-4.93-2.092-10.112-3.221-15.544-3.389-5.348-.167-10.403.586-15.166 2.26-4.68 1.589-8.524 3.932-11.532 7.027-2.925 3.096-4.388 6.777-4.388 11.044 0 3.932 1.212 7.154 3.636 9.664 2.423 2.426 5.473 4.392 9.15 5.898a89.216 89.216 0 0 0 11.281 3.765l31.337 8.534c4.679 1.255 9.86 2.928 15.543 5.02 5.682 2.008 11.114 4.853 16.295 8.534 5.264 3.597 9.568 8.366 12.91 14.307 3.426 5.94 5.14 13.47 5.14 22.589 0 9.706-2.048 18.198-6.142 25.477-4.012 7.195-9.443 13.177-16.295 17.946-6.853 4.685-14.624 8.199-23.315 10.542C93.801 186.829 84.901 188 75.709 188Zm102.507-3.765V3.517h34.094v148.841h77.715v31.877H178.217Zm120.587 0L353.957 3.517h50.891L460 184.235h-35.097L375.767 24.851h6.518l-48.384 159.384h-35.097Zm33.092-37.65v-31.876h95.263v31.876h-95.263Z" fill="#F5F5F5"/></svg>