<svg width="402" height="402" viewBox="0 0 402 402" fill="none" xmlns="http://www.w3.org/2000/svg"><circle cx="201" cy="201" r="100" fill="#981D15"/><path d="M143.481 181.455V196h-.887v-14.545h.887ZM134.639 196l5.213-7.5-4.474-7.045h1.065l4.219 6.733h4.758l4.219-6.733h1.065l-4.488 7.052 5.22 7.493h-1.044l-4.858-6.967h-5L135.669 196h-1.03Zm19.079-14.545h.88v12.947h.085l9.283-12.947h.867V196h-.888v-12.933h-.085L154.591 196h-.873v-14.545Zm19.481 14.744c-.862 0-1.631-.163-2.308-.49-.677-.332-1.215-.784-1.612-1.357-.393-.577-.597-1.24-.611-1.988h.902c.014.591.182 1.115.504 1.569.322.45.753.803 1.293 1.058.544.256 1.15.384 1.818.384.724 0 1.359-.142 1.903-.426a3.27 3.27 0 0 0 1.286-1.151 2.993 2.993 0 0 0 .461-1.633c0-.644-.168-1.208-.504-1.691-.336-.487-.805-.866-1.406-1.136-.601-.275-1.3-.412-2.095-.412h-.54v-.824h.54c.677 0 1.283-.123 1.818-.369a3.06 3.06 0 0 0 1.264-1.058c.313-.455.469-.992.469-1.613 0-.582-.135-1.098-.405-1.548a2.846 2.846 0 0 0-1.122-1.058c-.474-.256-1.03-.384-1.669-.384-.616 0-1.174.126-1.676.377a2.985 2.985 0 0 0-1.186 1.058c-.294.455-.443.983-.448 1.584h-.873c.009-.753.198-1.418.568-1.996a3.856 3.856 0 0 1 1.498-1.349c.63-.327 1.34-.49 2.131-.49.805 0 1.51.168 2.117.504a3.65 3.65 0 0 1 1.42 1.364 3.66 3.66 0 0 1 .511 1.91c0 .843-.234 1.565-.703 2.166-.464.597-1.094 1.011-1.889 1.243v.078c.942.209 1.688.637 2.237 1.286.549.648.824 1.434.824 2.358 0 .757-.194 1.442-.582 2.052a4.112 4.112 0 0 1-1.605 1.449c-.677.355-1.454.533-2.33.533Zm8.253-.199v-14.545h.888v6.853h8.764v-6.853h.888V196h-.888v-6.868h-8.764V196h-.888Zm14.746 0v-14.545h8.097v.823h-7.209v6.03h6.775v.824h-6.775v6.044h7.379V196h-8.267Zm11.777 0v-14.545h.888v6.853h8.764v-6.853h.888V196h-.888v-6.868h-8.764V196h-.888Zm14.746 0v-14.545h.888v6.853h8.764v-6.853h.888V196h-.888v-6.868h-8.764V196h-.888Zm15.35-7.869h4.851c.895 0 1.664.156 2.308.468.649.313 1.146.756 1.492 1.329.345.568.518 1.238.518 2.01 0 .819-.173 1.534-.518 2.144a3.509 3.509 0 0 1-1.478 1.421c-.643.331-1.418.497-2.322.497h-5.454v-14.545h.887v13.728h4.567c.724 0 1.342-.137 1.854-.412a2.82 2.82 0 0 0 1.179-1.15c.27-.493.405-1.063.405-1.712.004-.866-.303-1.574-.924-2.123-.615-.554-1.453-.831-2.514-.831h-4.851v-.824Zm12.067-6.676V196h-.888v-14.545h.888Zm4.205 0h.88v12.947h.085l9.283-12.947h.867V196h-.888v-12.933h-.085L255.216 196h-.873v-14.545Zm6.782-3.637h.824c0 .592-.182 1.066-.547 1.421-.364.355-.864.532-1.498.532-.63 0-1.127-.177-1.492-.532-.364-.355-.547-.829-.547-1.421h.824c0 .374.1.675.298.902.199.227.505.341.917.341.412 0 .717-.114.916-.341.203-.227.305-.528.305-.902Zm-74.764 41.323-.191 4.297h-.796V220h-1.172v-.859h2.159ZM175.26 220v-14.545h.86v13.7h8.352v-13.7h.867V220H175.26Zm14.141-14.545h.881v12.947h.085l9.283-12.947h.866V220h-.888v-12.933h-.085L190.275 220h-.874v-14.545ZM213.03 220l-5.021-7.045h-2.408V220h-.887v-14.545h.887v6.683h1.868l4.894-6.683h1.065l-4.908 6.711 5.576 7.834h-1.066Zm2.294 0v-.845h.356c.596 0 1.074-.206 1.434-.618.365-.412.637-1.068.817-1.967.185-.9.301-2.084.348-3.552l.27-7.563h8.196V220h-.888v-13.722h-6.456l-.248 6.989c-.053 1.548-.197 2.82-.434 3.814-.232.994-.596 1.731-1.093 2.209-.498.473-1.172.71-2.025.71h-.277Z" fill="#fff"/><path d="M200.829 18.454V33h-.888V19.392h-.085l-3.267 2.166v-.951l3.239-2.152h1.001Zm-.269 364.745c-.861 0-1.631-.163-2.308-.49-.677-.332-1.214-.784-1.612-1.357-.393-.577-.597-1.24-.611-1.988h.902c.014.591.182 1.115.504 1.569.322.45.753.803 1.293 1.058a4.22 4.22 0 0 0 1.818.384c.725 0 1.359-.142 1.904-.426a3.267 3.267 0 0 0 1.285-1.151 2.993 2.993 0 0 0 .462-1.633c0-.644-.168-1.208-.505-1.691-.336-.487-.804-.866-1.406-1.136-.601-.275-1.299-.412-2.095-.412h-.54v-.824h.54c.677 0 1.283-.123 1.818-.369a3.054 3.054 0 0 0 1.264-1.058c.313-.455.469-.992.469-1.613 0-.582-.135-1.098-.405-1.548a2.846 2.846 0 0 0-1.122-1.058c-.473-.256-1.03-.384-1.669-.384-.615 0-1.174.126-1.676.377a2.991 2.991 0 0 0-1.186 1.058c-.294.455-.443.983-.447 1.584h-.874c.009-.753.199-1.418.568-1.996a3.86 3.86 0 0 1 1.499-1.349c.629-.327 1.34-.49 2.13-.49.805 0 1.511.168 2.117.504a3.643 3.643 0 0 1 1.42 1.364 3.66 3.66 0 0 1 .512 1.91c0 .843-.235 1.565-.703 2.166-.464.597-1.094 1.011-1.89 1.243v.078c.943.209 1.688.637 2.238 1.286.549.648.823 1.434.823 2.358 0 .757-.194 1.442-.582 2.052a4.098 4.098 0 0 1-1.605 1.449c-.677.355-1.454.533-2.33.533ZM371.081 208v-.675l4.708-5.426a31.042 31.042 0 0 0 1.598-1.974c.393-.54.675-1.028.846-1.463.17-.436.255-.891.255-1.364 0-.592-.139-1.115-.419-1.57a2.862 2.862 0 0 0-1.129-1.072c-.473-.256-1.013-.384-1.619-.384-.635 0-1.191.14-1.669.419-.479.28-.853.659-1.123 1.137a3.267 3.267 0 0 0-.397 1.612h-.86c0-.753.176-1.43.526-2.031a3.86 3.86 0 0 1 1.442-1.428c.615-.35 1.316-.525 2.102-.525.772 0 1.458.168 2.06.504a3.744 3.744 0 0 1 1.42 1.378c.346.577.519 1.231.519 1.96 0 .535-.093 1.051-.277 1.548-.18.493-.49 1.044-.931 1.655-.44.606-1.049 1.354-1.825 2.244l-3.949 4.553v.078h7.635V208h-8.913Zm-349.314-3.267v-.71l6.584-10.568h.54v1.37h-.462l-5.59 9.006v.078h8.403v.824h-9.475ZM28.5 208v-14.545h.867V208H28.5Zm344.672-30.623a.5.5 0 0 0 .705-.049l2.956-3.393a.5.5 0 0 0-.754-.657l-2.628 3.017-3.016-2.628a.5.5 0 0 0-.657.754l3.394 2.956ZM215.5 27l-.03.5h.01c.007 0 .018 0 .032.002l.133.01c.117.008.294.021.526.04.465.04 1.155.104 2.05.202 1.79.197 4.402.53 7.681 1.08 6.558 1.1 15.784 3.062 26.444 6.51 21.324 6.899 48.368 19.738 71.294 43.503l.72-.694c-23.074-23.918-50.28-36.829-71.706-43.76-10.715-3.466-19.989-5.438-26.587-6.545-3.299-.553-5.93-.89-7.737-1.088a83.712 83.712 0 0 0-2.613-.246 19.882 19.882 0 0 0-.138-.01l-.036-.002h-.009l-.002-.001c-.001 0-.002 0-.032.499Zm108.14 51.847c22.942 23.781 35.283 48.341 41.889 66.951 3.303 9.306 5.171 17.123 6.214 22.61.521 2.744.836 4.905 1.021 6.377.092.737.151 1.301.188 1.68.018.19.03.333.038.429l.009.107.002.026v.007l.499-.034.499-.035v-.002l-.001-.008-.002-.03-.009-.113a60.077 60.077 0 0 0-.231-2.151 104.554 104.554 0 0 0-1.03-6.44c-1.051-5.531-2.933-13.398-6.255-22.757-6.644-18.719-19.053-43.409-42.111-67.311l-.72.694ZM216.574 375.374a.499.499 0 0 1-.043-.705l2.982-3.37a.499.499 0 1 1 .749.662l-2.651 2.996 2.995 2.651a.499.499 0 1 1-.662.749l-3.37-2.983Zm.331-.374-.03-.499h.002l.008-.001.032-.002.133-.009c.117-.009.294-.022.526-.042a82.291 82.291 0 0 0 2.05-.201c1.79-.197 4.402-.531 7.681-1.081 6.558-1.099 15.784-3.061 26.444-6.51 21.324-6.898 48.368-19.737 71.294-43.502l.72.694c-23.074 23.918-50.28 36.829-71.706 43.76-10.715 3.466-19.989 5.438-26.587 6.545-3.299.553-5.93.889-7.737 1.088-.904.099-1.602.164-2.075.204-.236.02-.417.033-.538.042a7.538 7.538 0 0 1-.138.01l-.036.002a.034.034 0 0 1-.009.001h-.002l-.032-.499Zm108.14-51.847c22.942-23.781 35.283-48.341 41.889-66.951 3.303-9.306 5.171-17.123 6.214-22.61.522-2.744.836-4.905 1.021-6.377.092-.737.151-1.301.188-1.68.018-.19.03-.333.038-.429l.009-.107.002-.026v-.007l.499.034.499.035v.002l-.001.008-.002.03-.009.113a60.077 60.077 0 0 1-.231 2.151 104.554 104.554 0 0 1-1.03 6.44c-1.051 5.531-2.933 13.398-6.255 22.757-6.644 18.719-19.053 43.409-42.111 67.311l-.72-.694Zm-298.599-99.53a.5.5 0 0 0-.706.049l-2.956 3.393a.5.5 0 1 0 .754.657l2.628-3.017 3.016 2.628a.5.5 0 0 0 .657-.754l-3.393-2.956ZM184.117 374l.03-.499h-.001l-.008-.001-.033-.002a124.93 124.93 0 0 0-.132-.009c-.118-.009-.294-.022-.527-.042a82.291 82.291 0 0 1-2.05-.201c-1.79-.197-4.402-.531-7.681-1.081-6.558-1.099-15.784-3.061-26.444-6.51-21.323-6.898-48.368-19.737-71.294-43.502l-.72.694c23.074 23.918 50.28 36.829 71.706 43.76 10.715 3.466 19.989 5.438 26.587 6.545 3.299.553 5.93.889 7.737 1.088.904.099 1.602.164 2.075.204.236.02.417.033.538.042l.138.01.036.002.009.001h.003l.031-.499Zm-108.14-51.847c-22.942-23.781-35.283-48.341-41.889-66.951-3.303-9.306-5.171-17.123-6.214-22.61a103.078 103.078 0 0 1-1.02-6.377 59.882 59.882 0 0 1-.227-2.109 12.743 12.743 0 0 1-.008-.107l-.002-.026v-.006l-.001-.001-.499.034-.499.035v.002l.001.008.002.03.01.113a59.942 59.942 0 0 0 .231 2.151 104.06 104.06 0 0 0 1.03 6.44c1.05 5.531 2.932 13.398 6.254 22.757 6.644 18.719 19.053 43.409 42.111 67.311l.72-.694ZM184.449 26.507a.5.5 0 0 1 .043.706l-2.982 3.37a.5.5 0 0 1-.749-.662l2.65-2.996-2.995-2.65a.5.5 0 0 1 .662-.75l3.371 2.982Zm-.332.375.03.499h-.009l-.033.003a27.166 27.166 0 0 0-.659.05c-.465.04-1.155.104-2.05.202-1.79.197-4.402.53-7.681 1.08-6.558 1.1-15.784 3.062-26.444 6.51-21.323 6.898-48.368 19.738-71.294 43.503l-.72-.694c23.074-23.918 50.28-36.829 71.706-43.76 10.715-3.466 19.989-5.439 26.587-6.545 3.299-.553 5.93-.89 7.737-1.088a83.816 83.816 0 0 1 2.613-.246l.138-.01.036-.002.009-.001h.003l.031.499ZM75.977 78.729C53.035 102.51 40.694 127.07 34.088 145.68c-3.303 9.306-5.171 17.123-6.214 22.61a102.959 102.959 0 0 0-1.02 6.377 59.882 59.882 0 0 0-.227 2.109l-.008.106-.002.027v.006l-.001.001-.499-.034-.499-.036v-.002l.001-.007.002-.03a22.217 22.217 0 0 1 .049-.555c.037-.389.098-.963.191-1.709a104.06 104.06 0 0 1 1.03-6.44c1.052-5.531 2.933-13.398 6.255-22.757 6.644-18.719 19.053-43.409 42.111-67.311l.72.694Z" fill="#000"/><path d="M373.577 177.259a.5.5 0 0 0 .705-.049l2.956-3.393a.5.5 0 0 0-.754-.657l-2.628 3.016-3.016-2.627a.5.5 0 1 0-.657.754l3.394 2.956ZM215.905 26.882l-.03.499h.01l.032.003a25.66 25.66 0 0 1 .659.05c.465.04 1.155.104 2.05.202 1.79.197 4.402.53 7.681 1.08 6.558 1.1 15.784 3.062 26.444 6.51 21.324 6.898 48.368 19.738 71.294 43.503l.72-.694c-23.074-23.918-50.28-36.829-71.706-43.76-10.715-3.466-19.989-5.439-26.587-6.545-3.299-.553-5.93-.89-7.737-1.088a83.816 83.816 0 0 0-2.613-.246l-.138-.01-.036-.002-.009-.001h-.002l-.032.499Zm108.14 51.847c22.942 23.781 35.283 48.341 41.889 66.951 3.303 9.306 5.171 17.123 6.214 22.61.522 2.744.836 4.904 1.021 6.377.092.737.151 1.301.188 1.68.018.19.03.333.038.429l.009.106.002.027v.007l.499-.034.499-.036v-.002l-.001-.007-.002-.03-.009-.113a60.077 60.077 0 0 0-.231-2.151 104.554 104.554 0 0 0-1.03-6.44c-1.051-5.531-2.933-13.398-6.255-22.757-6.644-18.719-19.053-43.409-42.111-67.311l-.72.694Z" fill="#000"/><path d="m259.686 60.108 6.973-13.28 1.837.963-.822 1.566.157.083c.214-.145.494-.295.838-.45.344-.157.75-.238 1.218-.244.471-.01 1.005.143 1.605.458.78.41 1.372.972 1.777 1.687.405.716.587 1.536.546 2.46-.038.927-.331 1.913-.879 2.956-.548 1.044-1.192 1.848-1.931 2.412-.738.559-1.516.88-2.335.963-.817.08-1.616-.086-2.396-.495-.586-.308-1.015-.659-1.284-1.052-.266-.39-.434-.773-.505-1.147a5.864 5.864 0 0 1-.114-.958l-.114-.06-2.69 5.125-1.881-.987Zm6.28-7.484c-.356.679-.57 1.326-.642 1.94-.071.616.004 1.166.225 1.651.223.48.605.863 1.146 1.147.562.295 1.109.393 1.643.293.536-.103 1.036-.362 1.499-.777.468-.412.871-.94 1.21-1.586.335-.638.539-1.26.612-1.869.078-.606.003-1.156-.224-1.65-.224-.492-.618-.886-1.184-1.183-.545-.286-1.08-.388-1.605-.305-.52.085-1.009.328-1.466.73-.457.402-.862.938-1.214 1.609Zm9.033 11.569c-.586-.366-1.049-.805-1.387-1.318a3.147 3.147 0 0 1-.529-1.66c-.013-.59.17-1.186.549-1.793.326-.522.695-.89 1.106-1.101a2.62 2.62 0 0 1 1.314-.294c.464.016.938.106 1.423.269.484.163.961.354 1.432.575l1.447.686c.373.172.668.258.885.26.217 0 .393-.107.528-.324l.027-.042c.328-.526.434-1.027.317-1.502-.113-.472-.46-.89-1.043-1.253-.606-.379-1.168-.542-1.686-.491-.51.05-.934.195-1.269.438L276.66 55.2c.552-.437 1.129-.707 1.73-.812a4.204 4.204 0 0 1 1.817.08 6.17 6.17 0 0 1 1.747.755c.37.23.734.52 1.092.866.366.345.657.745.876 1.2.223.456.318.97.285 1.541-.03.568-.256 1.189-.677 1.864l-3.836 6.145-1.759-1.098.789-1.265-.072-.045a3.02 3.02 0 0 1-.953.36 3.302 3.302 0 0 1-1.247 0c-.459-.08-.943-.28-1.453-.598Zm1.294-1.201c.498.31.986.478 1.462.502.48.026.912-.062 1.295-.264.389-.203.698-.488.926-.853l.744-1.193c-.104.024-.266.007-.486-.053a6.881 6.881 0 0 1-.707-.248c-.256-.11-.504-.217-.745-.323-.238-.11-.438-.2-.599-.274a5.274 5.274 0 0 0-1.097-.375 1.939 1.939 0 0 0-.969.024c-.289.087-.534.292-.735.613-.278.446-.324.886-.137 1.32.189.431.538.805 1.048 1.124Zm7.141 2.861 1.774 1.256c-.234.38-.268.776-.103 1.19.17.416.5.797.991 1.145.498.353.999.547 1.501.584.505.033.917-.177 1.237-.63.192-.27.291-.553.298-.85a1.576 1.576 0 0 0-.226-.874c-.16-.281-.404-.538-.733-.77l-1.449-1.027.965-1.362 1.449 1.026c.491.347.937.495 1.339.444.402-.052.722-.246.961-.582.257-.364.332-.748.225-1.155-.1-.407-.382-.775-.846-1.103-.471-.334-.939-.506-1.402-.515-.461-.013-.817.142-1.067.463l-1.751-1.24c.365-.49.825-.82 1.38-.99.562-.17 1.164-.185 1.806-.043.649.14 1.29.435 1.924.884.661.468 1.158.979 1.49 1.533.333.555.498 1.113.495 1.673a2.67 2.67 0 0 1-.515 1.576c-.348.491-.779.789-1.295.894-.508.104-1.044.058-1.608-.138l-.065.093c.327.267.559.587.694.961.135.375.17.768.105 1.18a2.837 2.837 0 0 1-.509 1.197c-.386.545-.87.91-1.454 1.094-.579.188-1.21.202-1.893.044-.676-.16-1.352-.48-2.028-.958-.657-.465-1.174-.985-1.55-1.559-.37-.575-.574-1.16-.611-1.755-.033-.592.124-1.154.471-1.686Zm4.238 11.575 9.383-11.702 1.618 1.297-1.106 1.38.138.11c.239-.1.541-.193.909-.281.368-.088.782-.09 1.242-.005.464.08.96.332 1.488.756.687.55 1.161 1.216 1.422 1.996.261.78.283 1.619.065 2.519-.214.902-.69 1.813-1.427 2.733-.738.92-1.524 1.586-2.357 1.998-.831.407-1.657.574-2.477.5-.817-.08-1.569-.394-2.256-.945-.517-.415-.87-.84-1.06-1.278-.186-.434-.278-.842-.276-1.223a5.97 5.97 0 0 1 .071-.962l-.1-.08-3.621 4.516-1.656-1.329Zm7.594-6.145c-.479.598-.813 1.192-1.001 1.782-.188.59-.219 1.144-.095 1.663.127.515.429.963.906 1.345.495.397 1.014.598 1.556.602.546 0 1.086-.158 1.62-.476.538-.315 1.035-.757 1.492-1.326.45-.562.769-1.134.958-1.717.192-.58.223-1.135.095-1.663-.125-.525-.437-.987-.936-1.387-.48-.385-.986-.587-1.517-.606-.527-.017-1.053.129-1.579.436-.525.307-1.025.756-1.499 1.347Zm6.393 12.761c-.511-.466-.886-.982-1.127-1.547a3.166 3.166 0 0 1-.22-1.73c.094-.58.382-1.135.864-1.663.415-.455.844-.75 1.286-.883a2.621 2.621 0 0 1 1.345-.052c.454.1.904.273 1.352.521.447.248.882.523 1.304.825l1.3.936c.336.236.61.374.823.415.214.04.406-.034.578-.223l.034-.037c.418-.458.612-.931.583-1.42-.025-.484-.292-.958-.799-1.42-.528-.482-1.051-.745-1.569-.788-.512-.044-.954.024-1.328.202l-1.168-1.681c.621-.33 1.237-.493 1.847-.487.617.005 1.208.14 1.774.406a6.203 6.203 0 0 1 1.582 1.059c.321.293.627.643.917 1.048.297.406.512.852.645 1.338.136.49.137 1.013.002 1.569-.133.552-.467 1.122-1.003 1.71l-4.882 5.352-1.532-1.398 1.005-1.102-.063-.057a3.04 3.04 0 0 1-1.002.181 3.282 3.282 0 0 1-1.227-.225c-.437-.16-.877-.444-1.321-.85Zm1.49-.948c.433.395.882.648 1.347.757.467.113.908.105 1.321-.025.419-.13.774-.354 1.065-.672l.947-1.04c-.107.006-.263-.04-.468-.138a6.882 6.882 0 0 1-.651-.373 80.494 80.494 0 0 1-.674-.452l-.54-.377a5.278 5.278 0 0 0-1.012-.567 1.937 1.937 0 0 0-.957-.152c-.3.034-.578.19-.833.47-.354.389-.479.814-.374 1.275.108.457.384.888.829 1.294Zm21.443 2.133-.356 1.565a2.898 2.898 0 0 1-1.234-.36c-.374-.212-.76-.5-1.159-.866-.394-.37-.842-.796-1.341-1.282-.562-.55-1.133-.897-1.713-1.042-.577-.148-1.182-.108-1.816.121-.627.23-1.301.635-2.022 1.217l.093.097c.734-.213 1.441-.21 2.12.01.682.225 1.297.622 1.846 1.191.61.635 1.009 1.339 1.195 2.113.186.773.135 1.571-.151 2.393-.281.822-.823 1.62-1.629 2.395-.815.784-1.664 1.312-2.546 1.584-.88.274-1.742.296-2.588.066-.84-.23-1.613-.713-2.319-1.446-.705-.734-1.156-1.533-1.35-2.397-.188-.864-.099-1.761.267-2.692.37-.927 1.035-1.854 1.997-2.78l.778-.748c1.798-1.73 3.459-2.712 4.984-2.944 1.525-.232 2.913.278 4.165 1.531.408.403.764.77 1.069 1.1.308.328.596.596.864.806.274.21.556.332.846.368Zm-12.33 6.525c.41.426.871.69 1.381.79.517.1 1.056.042 1.616-.175s1.111-.587 1.654-1.109c.532-.512.903-1.03 1.114-1.556.211-.525.265-1.036.16-1.534-.101-.5-.36-.968-.777-1.401a2.888 2.888 0 0 0-.996-.697 2.422 2.422 0 0 0-1.112-.182 3.25 3.25 0 0 0-1.187.344c-.399.2-.801.488-1.207.866-.812.781-1.279 1.59-1.402 2.424-.12.838.132 1.582.756 2.23Zm6.867 10.297c-.656-.784-1.049-1.619-1.179-2.505-.129-.885-.006-1.76.37-2.624.376-.864.996-1.657 1.86-2.38.868-.727 1.762-1.2 2.683-1.42.92-.221 1.805-.19 2.653.094.849.284 1.602.818 2.258 1.603.656.784 1.049 1.619 1.179 2.504.129.886.004 1.762-.375 2.63-.38.866-1.004 1.663-1.872 2.389-.864.723-1.754 1.193-2.671 1.411-.917.218-1.8.184-2.649-.099-.848-.284-1.601-.818-2.257-1.603Zm1.372-1.138c.425.508.912.817 1.46.926.549.109 1.113.057 1.693-.157a5.554 5.554 0 0 0 1.682-.99 5.544 5.544 0 0 0 1.265-1.475c.317-.537.472-1.086.464-1.648-.007-.562-.223-1.097-.648-1.606-.429-.512-.92-.823-1.475-.932-.552-.107-1.122-.053-1.709.16a5.662 5.662 0 0 0-1.671.991 5.69 5.69 0 0 0-1.276 1.475c-.31.537-.459 1.085-.448 1.644.013.562.235 1.1.663 1.612Zm9.875.171 1.48-1.081 5.427 7.435-1.48 1.081-2.098-2.875-7.332 5.352-1.222-1.676 7.331-5.351-2.106-2.885Zm-.978 14.134 9.217-5.836 1.136 1.794-3.864 2.447.547.864 5.791.595 1.406 2.22-6.743-.732-2.447 6.611-1.41-2.226 1.925-5.112-.737-1.164-3.684 2.334-1.137-1.795Zm7.055 12.134c-.326-.609-.508-1.221-.546-1.834a3.162 3.162 0 0 1 .369-1.704c.282-.516.739-.943 1.369-1.28.543-.29 1.045-.425 1.508-.404.462.021.89.154 1.285.4.394.245.761.559 1.1.942.339.382.657.786.955 1.212l.913 1.316c.238.334.451.556.638.665.188.11.394.104.62-.017l.043-.023c.547-.293.888-.674 1.024-1.144.137-.466.044-1.001-.28-1.606-.337-.631-.743-1.053-1.217-1.266-.468-.212-.908-.296-1.319-.253l-.541-1.974c.696-.104 1.331-.052 1.904.157.58.211 1.092.535 1.536.974a6.18 6.18 0 0 1 1.139 1.526c.205.384.377.815.516 1.294.144.482.198.974.161 1.477-.034.507-.208 1-.521 1.479-.309.477-.814.903-1.515 1.278l-6.388 3.418-.978-1.829 1.315-.703-.04-.075a3.042 3.042 0 0 1-1.006-.163 3.265 3.265 0 0 1-1.081-.622c-.358-.297-.679-.71-.963-1.241Zm1.721-.397c.277.518.616.906 1.017 1.163.404.263.822.401 1.254.417.439.017.849-.076 1.229-.279l1.24-.663c-.103-.031-.235-.127-.396-.288a6.75 6.75 0 0 1-.489-.568 77.154 77.154 0 0 1-.485-.651c-.152-.214-.28-.392-.384-.535a5.236 5.236 0 0 0-.764-.872 1.94 1.94 0 0 0-.852-.463c-.294-.068-.608-.012-.942.166-.464.248-.723.607-.778 1.077-.05.467.066.966.35 1.496Z" fill="#981D15"/><path d="M216.573 375.324a.5.5 0 0 1-.043-.706l2.983-3.369a.501.501 0 0 1 .749.663l-2.652 2.995 2.995 2.652a.499.499 0 1 1-.663.748l-3.369-2.983Zm.332-.374-.03-.499h.001l.008-.001.033-.002.132-.009c.118-.009.294-.022.527-.042a81.725 81.725 0 0 0 2.05-.2c1.79-.196 4.402-.53 7.681-1.078 6.559-1.098 15.785-3.057 26.446-6.502 21.326-6.891 48.374-19.722 71.308-43.48l.72.695c-23.082 23.91-50.291 36.812-71.72 43.737-10.716 3.462-19.991 5.432-26.589 6.536-3.299.552-5.93.888-7.738 1.086a83.91 83.91 0 0 1-2.074.203c-.237.02-.417.033-.539.042a7.538 7.538 0 0 1-.138.01l-.035.002-.01.001h-.002l-.031-.499Zm108.156-51.813c22.949-23.774 35.298-48.33 41.91-66.938 3.306-9.304 5.177-17.121 6.222-22.608.522-2.743.837-4.904 1.022-6.377a59.003 59.003 0 0 0 .227-2.108l.009-.107.002-.026v-.007l.499.034.499.036v.002l-.001.008-.002.029a40.503 40.503 0 0 1-.049.555c-.037.389-.098.963-.192 1.709a103.973 103.973 0 0 1-1.032 6.439c-1.053 5.531-2.937 13.398-6.262 22.756-6.65 18.717-19.067 43.403-42.132 67.298l-.72-.695Z" fill="#000"/><path d="m350.648 254.76 9.911 4.559-3.315 7.207-9.911-4.558.359-.781 9.163 4.214 2.597-5.646-9.163-4.214.359-.781Zm-8.185 8.167 13.073 7.355-.414.737-2.124-1.195-.052.093c.325.378.583.798.775 1.259.189.465.274.956.256 1.472-.017.523-.179 1.057-.486 1.601-.432.768-1.018 1.318-1.759 1.651-.742.332-1.572.447-2.491.342-.915-.102-1.852-.422-2.809-.961-.957-.538-1.718-1.175-2.282-1.911-.562-.729-.896-1.498-1-2.307-.103-.802.059-1.583.486-2.342.304-.54.675-.957 1.111-1.249a3.563 3.563 0 0 1 1.398-.559 4.515 4.515 0 0 1 1.49.016l.042-.074-5.639-3.173.425-.755Zm7.883 5.413c-.809-.455-1.603-.739-2.382-.851-.775-.11-1.478-.038-2.109.215-.628.255-1.121.703-1.481 1.343-.365.647-.491 1.307-.38 1.978.113.678.421 1.318.924 1.921.5.608 1.149 1.136 1.945 1.584.797.448 1.581.729 2.354.843.772.114 1.472.043 2.099-.212.632-.254 1.132-.708 1.501-1.364.364-.648.493-1.307.386-1.975-.106-.663-.406-1.296-.903-1.902-.494-.598-1.146-1.125-1.954-1.58Zm-12.924 10.671c.491-.753 1.13-1.292 1.917-1.616.791-.321 1.654-.417 2.587-.289.934.128 1.857.489 2.77 1.083.916.597 1.62 1.295 2.11 2.095.495.803.755 1.63.781 2.484.027.853-.206 1.657-.697 2.411-.491.753-1.132 1.291-1.923 1.612-.791.321-1.653.417-2.587.289-.934-.127-1.857-.489-2.77-1.083-.912-.594-1.616-1.293-2.11-2.095-.495-.802-.755-1.63-.781-2.484-.022-.85.212-1.653.703-2.407Zm.672.438c-.416.639-.598 1.314-.547 2.026.048.715.294 1.404.739 2.066.442.666 1.039 1.245 1.793 1.736.754.491 1.523.803 2.307.935.788.134 1.518.081 2.189-.16.675-.238 1.221-.677 1.637-1.315.416-.639.596-1.315.542-2.029-.051-.711-.298-1.4-.74-2.067-.437-.663-1.033-1.241-1.787-1.732-.754-.491-1.524-.806-2.309-.944-.788-.135-1.518-.082-2.189.159-.674.245-1.219.687-1.635 1.325Zm-4.336 7.399 4.111 10.858-.657.883-8.752-6.512.517-.695 7.846 5.838-4.115-10.852.661-.889 8.753 6.512-.518.695-7.846-5.838Zm-4.884 9.198-.58.691c-.536-.4-1.124-.532-1.764-.395-.643.14-1.24.539-1.791 1.195-.572.682-.868 1.37-.888 2.064-.02.694.253 1.279.819 1.753.344.29.709.466 1.095.53.389.067.762.034 1.12-.098.358-.132.671-.346.937-.642l1.242-1.48.615.516-1.219 1.453c-.347.531-.508 1.036-.483 1.514.029.482.261.905.696 1.27.523.439 1.092.607 1.708.506.616-.101 1.176-.45 1.678-1.049.511-.609.776-1.246.796-1.91a2.119 2.119 0 0 0-.69-1.663l.57-.68c.442.401.732.87.869 1.406.139.542.13 1.101-.024 1.676-.155.581-.452 1.135-.894 1.661-.453.54-.949.925-1.487 1.153a2.97 2.97 0 0 1-1.606.246 2.822 2.822 0 0 1-1.465-.663c-.45-.377-.723-.814-.82-1.309-.1-.492-.049-.981.154-1.466l-.082-.068a1.955 1.955 0 0 1-.978.458c-.377.067-.766.04-1.166-.079a3.034 3.034 0 0 1-1.128-.612 2.927 2.927 0 0 1-.962-1.439c-.166-.553-.171-1.137-.013-1.753.162-.612.491-1.214.987-1.805.472-.562.986-.98 1.544-1.254.554-.271 1.109-.386 1.663-.348a2.882 2.882 0 0 1 1.547.621Zm-8.855 6.121 7.919 7.503-2.848 3.006c-.792.835-1.584 1.324-2.377 1.466-.79.145-1.484-.069-2.082-.643-.458-.439-.716-.931-.774-1.476-.054-.541.068-1.107.367-1.698a3 3 0 0 1-1.173.504 2.611 2.611 0 0 1-1.247-.057c-.412-.116-.801-.348-1.169-.697a2.86 2.86 0 0 1-.831-1.364 2.95 2.95 0 0 1 .043-1.584c.16-.54.471-1.054.933-1.542l3.239-3.418Zm.016 1.17-2.662 2.81c-.518.546-.785 1.124-.802 1.735-.017.61.218 1.146.706 1.608.478.453 1.008.671 1.59.656.583-.009 1.099-.251 1.548-.725l2.858-3.016-3.238-3.068Zm3.805 3.605-2.374 2.506c-.368.388-.625.787-.772 1.196a2.148 2.148 0 0 0-.093 1.193c.087.383.286.721.595 1.014.44.41.946.551 1.518.422.573-.123 1.167-.509 1.783-1.159l2.271-2.397-2.928-2.775Zm-14.452 5.63c.66-.61 1.412-.976 2.254-1.097.846-.118 1.706 0 2.58.352.874.353 1.681.929 2.42 1.728.742.804 1.253 1.653 1.533 2.548.283.9.333 1.766.15 2.6-.184.834-.606 1.556-1.266 2.166-.661.611-1.414.975-2.26 1.093-.845.118-1.705 0-2.579-.353-.874-.352-1.681-.928-2.42-1.728-.74-.8-1.251-1.649-1.534-2.548-.283-.899-.333-1.765-.149-2.599.187-.83.61-1.551 1.271-2.162Zm.545.59c-.56.517-.902 1.127-1.027 1.829-.128.705-.058 1.433.211 2.184.265.755.703 1.462 1.314 2.123.61.66 1.28 1.151 2.008 1.471.731.323 1.451.45 2.161.381.713-.066 1.349-.358 1.909-.875.56-.518.9-1.129 1.022-1.835.124-.702.054-1.43-.211-2.184-.262-.751-.699-1.457-1.309-2.117-.611-.661-1.28-1.154-2.008-1.481-.731-.324-1.451-.451-2.161-.381-.713.072-1.35.367-1.909.885Zm-6.9 1.432 2.435 3.064-.762.605c-.007.387.021.773.085 1.158.067.388.176.788.328 1.2.151.418.351.86.601 1.327.249.473.553.982.912 1.525l2.658 4.029-4.687 3.725-6.275-7.896-1.223.973-2.435-3.064.679-.539 1.922 2.418 7.012-5.571-1.922-2.419.672-.535Zm.878 4.301-4.904 3.897 5.762 7.251 3.386-2.691-2.19-3.349c-.63-.968-1.118-1.863-1.462-2.684a7.505 7.505 0 0 1-.592-2.424Zm-13.07 8.535c.768-.521 1.581-.778 2.438-.77.86.011 1.694.258 2.502.74.803.485 1.508 1.174 2.114 2.068.606.893.984 1.804 1.133 2.733.149.928.07 1.794-.238 2.598-.307.803-.841 1.463-1.601 1.979a4.165 4.165 0 0 1-1.803.707 3.878 3.878 0 0 1-1.841-.184 3.89 3.89 0 0 1-1.588-1.051l.728-.495a3.109 3.109 0 0 0 1.911.919c.74.087 1.451-.1 2.132-.563a3.283 3.283 0 0 0 1.284-1.625c.247-.665.303-1.392.168-2.182-.133-.786-.462-1.566-.988-2.342-.518-.764-1.117-1.36-1.795-1.786-.676-.423-1.372-.649-2.09-.677-.717-.029-1.389.17-2.016.595-.443.3-.787.662-1.031 1.086a3.006 3.006 0 0 0-.413 1.378c-.026.492.069.983.285 1.471l-.728.494a4.024 4.024 0 0 1-.409-1.868c.018-.63.184-1.226.496-1.787.312-.56.762-1.04 1.35-1.438Zm-1.034 13.02.41.715-7.096 4.073-.41-.715 3.154-1.81-5.02-8.747.751-.431 5.02 8.747 3.191-1.832Zm-14.756-3.269 4.783 9.805-3.722 1.815c-1.034.504-1.947.684-2.74.538-.79-.141-1.365-.585-1.724-1.331-.274-.573-.343-1.124-.206-1.654.138-.526.451-1.013.938-1.462-.435.113-.86.133-1.274.061a2.62 2.62 0 0 1-1.148-.491c-.345-.253-.628-.608-.85-1.063a2.862 2.862 0 0 1-.3-1.569 2.95 2.95 0 0 1 .596-1.468c.339-.45.811-.822 1.415-1.117l4.232-2.064Zm-.395 1.101-3.479 1.697c-.677.33-1.13.778-1.36 1.343-.23.566-.197 1.15.097 1.755.289.591.709.982 1.259 1.171.549.196 1.117.151 1.704-.135l3.734-1.822-1.955-4.009Zm2.298 4.711-3.102 1.514c-.481.234-.862.517-1.143.849-.282.338-.451.7-.506 1.085-.052.389.015.775.202 1.158.268.538.692.847 1.274.927.579.086 1.271-.067 2.075-.459l2.969-1.448-1.769-3.626Zm-16.45.652c.832-.343 1.664-.426 2.496-.247.834.183 1.599.592 2.297 1.226.697.634 1.254 1.454 1.67 2.46.417 1.011.602 1.985.554 2.922-.047.941-.301 1.771-.762 2.49-.461.718-1.108 1.249-1.939 1.592-.832.344-1.664.424-2.498.241-.834-.183-1.6-.592-2.297-1.226-.698-.634-1.254-1.454-1.67-2.46-.416-1.007-.601-1.981-.554-2.922.046-.941.3-1.771.761-2.49.464-.714 1.111-1.242 1.942-1.586Zm.307.742c-.705.291-1.237.744-1.598 1.359-.365.617-.551 1.325-.56 2.122-.013.8.152 1.615.496 2.447.344.831.801 1.523 1.373 2.076.573.557 1.205.926 1.894 1.107.692.186 1.39.133 2.094-.158.705-.291 1.237-.746 1.595-1.366.361-.615.548-1.322.561-2.122.014-.795-.15-1.608-.494-2.44-.343-.831-.799-1.526-1.369-2.085-.573-.557-1.205-.926-1.894-1.108-.694-.179-1.394-.123-2.098.168ZM26.637 223.622a.5.5 0 0 0-.705.051l-2.945 3.402a.5.5 0 0 0 .756.655l2.618-3.024 3.024 2.617a.5.5 0 1 0 .654-.756l-3.402-2.945Zm158.145 149.879.029-.499-.002-.001h-.008l-.032-.002-.133-.009a81.407 81.407 0 0 1-2.577-.235 138.28 138.28 0 0 1-7.684-1.056c-6.562-1.079-15.794-3.012-26.465-6.427-21.345-6.83-48.43-19.584-71.43-43.277l-.718.697c23.149 23.845 50.395 36.669 71.843 43.533 10.726 3.432 20.006 5.375 26.608 6.461 3.301.542 5.932.871 7.74 1.064.904.096 1.603.158 2.076.197.236.019.417.032.538.041l.138.009.036.002.009.001h.002c.001 0 .002 0 .03-.499ZM76.479 321.995c-23.016-23.709-35.435-48.229-42.1-66.819-3.332-9.294-5.225-17.106-6.285-22.59a101.89 101.89 0 0 1-1.04-6.374 59.188 59.188 0 0 1-.234-2.107 29.69 29.69 0 0 1-.009-.107l-.002-.026v-.008l-.5.036-.498.037v.01l.003.029.01.114c.008.1.021.248.04.442.04.388.101.962.197 1.708.192 1.492.517 3.672 1.05 6.436 1.07 5.528 2.976 13.389 6.327 22.738 6.703 18.698 19.19 43.349 42.324 67.178l.717-.697Z" fill="#000"/><path d="M148.107 344.961c.862.343 1.531.872 2.007 1.585.473.719.737 1.547.792 2.486.05.937-.124 1.908-.523 2.911-.399 1.003-.94 1.827-1.625 2.472-.684.645-1.445 1.066-2.283 1.263-.837.197-1.683.126-2.536-.214a4.154 4.154 0 0 1-1.598-1.094 3.874 3.874 0 0 1-.882-1.627 3.9 3.9 0 0 1-.023-1.904l.819.325a3.106 3.106 0 0 0 .313 2.097c.343.661.898 1.144 1.663 1.448a3.29 3.29 0 0 0 2.066.149c.689-.169 1.322-.532 1.899-1.087.576-.551 1.037-1.261 1.383-2.133.342-.858.498-1.687.47-2.488-.03-.796-.234-1.499-.614-2.109-.379-.609-.921-1.054-1.625-1.334a3.296 3.296 0 0 0-1.477-.243c-.492.033-.95.177-1.372.432a3.17 3.17 0 0 0-1.057 1.063l-.818-.325a4.027 4.027 0 0 1 1.316-1.388 3.855 3.855 0 0 1 1.756-.593c.639-.057 1.289.046 1.949.308Zm-10.407-4.518c.883.435 1.545 1.032 1.984 1.791.439.76.65 1.607.633 2.543-.018.937-.265 1.891-.744 2.864-.481.977-1.087 1.76-1.82 2.35-.738.587-1.529.947-2.376 1.079-.846.133-1.672.001-2.48-.396a4.157 4.157 0 0 1-1.392-1.097 4.247 4.247 0 0 1-.836-1.582 4.926 4.926 0 0 1-.152-1.927c.069-.689.283-1.397.64-2.123l.238-.484 7.75 3.811-.348.708-6.972-3.43c-.349.71-.519 1.42-.51 2.132.009.711.179 1.357.511 1.937a3.26 3.26 0 0 0 1.429 1.328c.65.32 1.319.422 2.009.308.683-.113 1.325-.404 1.925-.874.597-.472 1.088-1.085 1.475-1.839l.157-.319c.401-.815.619-1.618.654-2.408.029-.788-.131-1.503-.481-2.144-.351-.637-.901-1.14-1.649-1.508-.535-.263-1.036-.398-1.502-.406a3.437 3.437 0 0 0-1.262.202c-.37.14-.676.301-.918.482l-.567-.634c.31-.254.702-.468 1.178-.64.469-.17.996-.246 1.583-.226.583.017 1.197.184 1.843.502Zm-4.328-6.498-7.473 13.006-.733-.421 1.214-2.112-.092-.053a4.696 4.696 0 0 1-1.266.763 3.517 3.517 0 0 1-1.475.242c-.522-.022-1.055-.188-1.597-.5-.763-.438-1.308-1.03-1.634-1.774-.326-.744-.433-1.576-.32-2.494.11-.914.439-1.847.986-2.8.548-.952 1.192-1.707 1.932-2.264.734-.556 1.506-.883 2.316-.98.803-.095 1.582.074 2.338.508.537.309.951.683 1.239 1.122.284.436.466.904.546 1.402a4.52 4.52 0 0 1-.03 1.491l.074.042 3.224-5.61.751.432Zm-5.484 7.833c.463-.804.753-1.596.873-2.373.117-.774.051-1.478-.196-2.112-.25-.629-.693-1.127-1.33-1.492-.644-.371-1.302-.503-1.975-.398-.678.107-1.321.409-1.929.906-.612.495-1.146 1.139-1.601 1.931-.455.792-.743 1.574-.864 2.346-.121.771-.057 1.472.193 2.101.247.634.697 1.138 1.35 1.513.645.371 1.302.505 1.972.404.663-.099 1.299-.394 1.909-.885.603-.489 1.136-1.136 1.598-1.941Zm-12.353-1.833-.454.688-6.828-4.508.454-.687 3.034 2.003 5.557-8.416.723.477-5.557 8.417 3.071 2.026Zm-5.569-14.577-10.882 4.048-.88-.662 6.564-8.714.692.521-5.884 7.812 10.876-4.052.885.666-6.563 8.715-.692-.522 5.884-7.812Zm-8.96-13.323-12 13.772-.649-.565 12.002-13.771.647.564Zm-2.295 2.635a5.315 5.315 0 0 1 1.326 1.721c.306.643.478 1.318.517 2.023a5.608 5.608 0 0 1-.314 2.101 6.031 6.031 0 0 1-1.156 1.942 6.052 6.052 0 0 1-1.775 1.42 5.556 5.556 0 0 1-2.042.604 5.294 5.294 0 0 1-2.08-.23 5.326 5.326 0 0 1-1.886-1.078l-.188-.164 7.41-8.503.188.164Zm-.528.605-.101-.089-6.356 7.293.102.089a4.32 4.32 0 0 0 1.628.91 4.479 4.479 0 0 0 1.778.154 4.848 4.848 0 0 0 1.724-.551 5.186 5.186 0 0 0 1.478-1.189 5.084 5.084 0 0 0 1.148-2.203 4.657 4.657 0 0 0-.058-2.377c-.231-.78-.679-1.459-1.343-2.037Zm-.12-1.17.182.159-7.41 8.503-.182-.159a5.29 5.29 0 0 1-1.326-1.721 5.216 5.216 0 0 1-.507-2.024 5.418 5.418 0 0 1 .319-2.106 5.958 5.958 0 0 1 1.159-1.957 5.925 5.925 0 0 1 1.77-1.406 5.449 5.449 0 0 1 2.039-.598c.7-.061 1.39.016 2.07.231a5.289 5.289 0 0 1 1.886 1.078Zm-.528.605a4.38 4.38 0 0 0-1.623-.915 4.402 4.402 0 0 0-1.772-.15c-.6.068-1.174.248-1.725.541a5.16 5.16 0 0 0-1.47 1.178 5.096 5.096 0 0 0-1.151 2.209 4.566 4.566 0 0 0 .053 2.382c.221.784.666 1.466 1.333 2.048l.097.084 6.355-7.293-.097-.084Zm-6.821-5.49-11.354 2.425-.774-.783 7.759-7.669.61.616-6.957 6.875 11.35-2.429.778.788-7.759 7.668-.609-.616 6.956-6.875Zm-6.569-8.417-8.266 7.119-.566-.656 3.837-3.305-.82-.953-6.567.135-.732-.85 6.802-.122 1.38-7.094.723.839-1.237 6.259 1.076 1.248 3.804-3.277.566.657Zm-8.309-10.445c.376.505.62 1.043.733 1.615a3.07 3.07 0 0 1-.132 1.665c-.2.539-.578 1.015-1.132 1.428a2.819 2.819 0 0 1-1.107.524 2.353 2.353 0 0 1-1.163-.064c-.402-.12-.825-.342-1.268-.667a10.72 10.72 0 0 1-1.432-1.281c-.384-.405-.73-.763-1.04-1.076-.314-.31-.599-.522-.856-.638a.67.67 0 0 0-.726.072l-.365.271c-.638.475-.995 1.054-1.07 1.737-.077.682.148 1.377.674 2.083.467.627.998 1.051 1.595 1.274.59.222 1.166.257 1.726.105l.243.838a3.358 3.358 0 0 1-1.582.052 3.949 3.949 0 0 1-1.435-.631 5.124 5.124 0 0 1-1.172-1.146 4.648 4.648 0 0 1-.666-1.239 3.518 3.518 0 0 1-.208-1.325c.015-.448.136-.883.364-1.307.224-.42.577-.81 1.06-1.17l6.111-4.552.518.695-1.578 1.176.038.051c.44-.092.894-.105 1.361-.04.461.064.91.223 1.347.476.43.253.817.611 1.162 1.074Zm-.695.411c-.407-.547-.9-.932-1.48-1.156a3.468 3.468 0 0 0-1.847-.173c-.646.108-1.264.383-1.857.824l-1.287.959c.14.031.304.107.49.229.178.121.368.269.569.444.194.174.393.362.597.564.197.202.389.399.574.592.55.581 1.056 1.014 1.515 1.297.453.283.875.423 1.268.419.39-.007.766-.145 1.127-.414.596-.444.914-.999.954-1.667.04-.667-.167-1.307-.623-1.918Zm-17.881-7.926 8.518-5.36-.42-.667 3.715-2.338.462.733-3 1.888 4.184 6.648-9.233 5.81-.457-.727 8.535-5.372-3.31-5.259-8.536 5.372-.457-.728Zm5.216-10.504-11.574-.915-.518-.971 9.624-5.137.408.765-8.628 4.604 11.57.91.523.977-9.625 5.136-.408-.764 8.628-4.605Zm-6.682-15.959-9.192 4.201 1.303 2.817c.38.831.816 1.374 1.307 1.628.49.251 1.078.218 1.767-.097.68-.311 1.087-.731 1.22-1.26s.016-1.197-.353-2.002l-1.44-3.152.749-.343 1.44 3.152c.322.702.49 1.333.507 1.893.01.558-.132 1.044-.426 1.46-.295.416-.741.76-1.34 1.034-.602.275-1.158.386-1.667.332-.509-.053-.97-.272-1.385-.655-.42-.385-.795-.936-1.121-1.65l-1.64-3.585 9.923-4.536.348.763Zm3.085 6.75-6.257-.638-.399-.872 6.258.638.398.872ZM184.434 26.682a.5.5 0 0 1 .044.706l-2.976 3.375a.5.5 0 1 1-.75-.661l2.645-3-3-2.646a.5.5 0 0 1 .661-.75l3.376 2.976Zm-.331.375.031.499h-.009l-.033.003-.132.01a82.656 82.656 0 0 0-2.576.248c-1.79.199-4.401.538-7.679 1.093-6.557 1.112-15.779 3.09-26.433 6.558C125.961 42.405 98.94 55.294 76.057 79.1l-.72-.693c23.03-23.96 50.212-36.92 71.626-43.89 10.708-3.485 19.979-5.474 26.575-6.593 3.298-.559 5.928-.9 7.735-1.102a82.759 82.759 0 0 1 2.612-.25 25.126 25.126 0 0 1 .183-.014h.003l.032.499ZM76.057 79.1c-22.898 23.823-35.195 48.405-41.767 67.027-3.286 9.312-5.14 17.132-6.173 22.621a102.935 102.935 0 0 0-1.01 6.379 59.597 59.597 0 0 0-.222 2.109l-.008.107-.002.026v.008l-.5-.034-.498-.034v-.01l.003-.029a17.228 17.228 0 0 1 .047-.556c.037-.388.096-.963.188-1.709a103.58 103.58 0 0 1 1.019-6.442c1.041-5.532 2.908-13.403 6.213-22.768 6.61-18.731 18.974-43.444 41.99-67.388l.72.693Z" fill="#000"/><path d="m47.163 161.161-10.321-3.532 1.34-3.918c.373-1.088.89-1.862 1.553-2.321.658-.46 1.378-.554 2.16-.281.6.21 1.038.55 1.317 1.021.275.469.4 1.035.373 1.696.228-.387.513-.702.857-.945a2.63 2.63 0 0 1 1.158-.467c.423-.066.874-.016 1.353.148a2.86 2.86 0 0 1 1.322.895c.331.409.538.895.62 1.458.08.558.01 1.155-.207 1.791l-1.525 4.455Zm-.501-1.057 1.253-3.663c.244-.712.246-1.349.008-1.911s-.675-.951-1.311-1.169c-.623-.213-1.196-.192-1.719.065-.526.25-.895.684-1.106 1.303l-1.345 3.931 4.22 1.444Zm-4.96-1.697 1.118-3.266c.173-.506.241-.976.204-1.409a2.145 2.145 0 0 0-.41-1.124 1.987 1.987 0 0 0-.963-.675c-.57-.19-1.09-.107-1.557.248-.47.35-.85.948-1.14 1.795l-1.068 3.125 3.816 1.306Zm-.66-12.4 5.64-.887-3.297-4.662.39-.922 3.665 5.341 6.384-1.097-.39.922-5.567.918 3.225 4.631-.393.929-3.67-5.328-6.38 1.084.393-.929Zm15.896-8.201c-.4.806-.97 1.416-1.715 1.83-.748.412-1.593.609-2.535.592-.942-.018-1.902-.268-2.878-.751-.98-.485-1.76-1.096-2.342-1.833-.585-.738-.94-1.53-1.067-2.374-.126-.845.01-1.67.41-2.476.398-.807.972-1.416 1.72-1.827.748-.412 1.593-.609 2.535-.592.943.017 1.902.268 2.878.751.976.483 1.756 1.094 2.342 1.832.585.739.94 1.531 1.067 2.375.122.842-.016 1.667-.416 2.473Zm-.72-.356c.338-.683.44-1.375.306-2.075-.132-.705-.457-1.36-.977-1.966-.516-.61-1.178-1.114-1.984-1.513-.807-.399-1.607-.618-2.401-.657-.799-.042-1.517.097-2.155.415-.643.316-1.133.816-1.471 1.499-.338.683-.438 1.376-.3 2.078.135.701.46 1.356.977 1.966.513.607 1.172 1.111 1.979 1.51.806.399 1.607.621 2.404.667.798.041 1.516-.098 2.155-.416.64-.322 1.13-.825 1.467-1.508Zm6.068-3.997-3.386-1.962.488-.842a6.288 6.288 0 0 0-.502-1.046 6.783 6.783 0 0 0-.743-.998 10.082 10.082 0 0 0-1.045-1.016 18.238 18.238 0 0 0-1.406-1.086l-3.946-2.78 3.002-5.18 8.726 5.058.783-1.352 3.386 1.963-.435.749-2.673-1.549-4.491 7.748 2.673 1.55-.431.743Zm-2.389-3.683 3.142-5.419-8.013-4.645-2.169 3.742 3.262 2.318c.941.671 1.722 1.326 2.342 1.965.62.638 1.1 1.318 1.437 2.039Zm5.777-18.851.685.457-3.784 5.664-.685-.458 3.784-5.663Zm-7.849 2.657 9.071 6.06-.481.721-9.071-6.061.481-.72Zm3.977-5.953 9.071 6.061-.481.72-9.071-6.06.481-.721Zm13.736.12c-.547.714-1.226 1.202-2.035 1.464-.814.26-1.681.29-2.602.091-.922-.199-1.814-.63-2.679-1.293-.868-.665-1.516-1.415-1.944-2.25-.431-.838-.627-1.683-.588-2.536.04-.853.332-1.637.88-2.351.547-.714 1.227-1.2 2.04-1.46.814-.26 1.681-.29 2.603-.09.921.199 1.814.63 2.678 1.292.864.662 1.512 1.413 1.944 2.251.431.837.628 1.683.588 2.536-.043.85-.338 1.632-.885 2.346Zm-.637-.489c.464-.605.698-1.264.701-1.977.007-.717-.186-1.422-.579-2.117-.389-.698-.94-1.321-1.655-1.868-.714-.547-1.457-.917-2.228-1.109-.776-.194-1.507-.197-2.195-.008-.691.185-1.269.581-1.733 1.186-.463.605-.695 1.265-.695 1.981-.004.713.19 1.419.579 2.117.385.696.935 1.317 1.65 1.864.713.548 1.456.921 2.229 1.119.775.195 1.507.198 2.195.009.69-.193 1.267-.592 1.731-1.197Zm5.188-7.372-3.187-11.164.729-.825 8.175 7.222-.573.65-7.33-6.475 3.192 11.159-.734.83-8.175-7.223.573-.649 7.33 6.475Zm-7.097-12.23.545-.618c.444.392.678.842.703 1.35.025.509-.173 1-.593 1.476-.417.472-.88.727-1.387.765-.507.038-.983-.139-1.427-.53l.546-.618c.28.248.571.372.873.374.302.001.59-.152.863-.461.272-.309.39-.613.35-.912-.035-.303-.193-.579-.473-.827Zm18.34 1.807-7.436-7.983.634-.59 3.451 3.705.92-.857-.39-6.556.821-.765.387 6.792 7.142 1.103-.81.755-6.302-.992-1.206 1.123 3.422 3.674-.633.59Zm11.097-9.507c-.7.565-1.475.88-2.323.944-.852.06-1.702-.114-2.55-.525-.849-.41-1.615-1.039-2.3-1.886-.686-.852-1.14-1.733-1.358-2.645-.222-.916-.214-1.784.025-2.604.24-.82.709-1.512 1.409-2.077.7-.565 1.476-.878 2.327-.938.852-.06 1.702.114 2.55.524.849.41 1.615 1.04 2.299 1.887.684.848 1.137 1.73 1.359 2.645.222.916.214 1.784-.025 2.604-.242.816-.713 1.506-1.413 2.071Zm-.504-.624c.593-.48.975-1.065 1.147-1.757.175-.695.154-1.426-.064-2.193-.214-.77-.604-1.506-1.169-2.206-.565-.7-1.2-1.234-1.905-1.602-.707-.372-1.418-.547-2.13-.526-.716.018-1.37.266-1.964.745-.593.479-.974 1.066-1.142 1.762-.172.692-.15 1.424.063 2.194.212.766.6 1.5 1.165 2.2.565.7 1.2 1.237 1.903 1.612.708.372 1.418.547 2.131.526.717-.025 1.371-.277 1.965-.755Zm8.872-13.07.468.678-5.607 3.866-.468-.678 5.607-3.866Zm-8.275-.428 6.193 8.981-.714.492-6.192-8.981.713-.492Zm5.894-4.064 6.193 8.981-.714.492-6.192-8.981.713-.492Zm4.237-1.719-.421-.708 7.034-4.18.421.709-3.127 1.857 5.152 8.67-.745.443-5.152-8.67-3.162 1.879Zm15.907 7.07-6.881-13.328.751-.388 1.117 2.165.095-.049a4.668 4.668 0 0 1 .044-1.478c.098-.492.296-.95.596-1.37.301-.428.73-.785 1.285-1.071.782-.404 1.575-.542 2.377-.412.802.129 1.559.49 2.269 1.082.709.588 1.315 1.37 1.819 2.346s.79 1.926.857 2.85c.069.919-.075 1.745-.432 2.478-.355.727-.919 1.29-1.693 1.69-.552.284-1.09.429-1.615.433a3.568 3.568 0 0 1-1.474-.301 4.498 4.498 0 0 1-1.237-.832l-.076.039 2.968 5.749-.77.397Zm-3.612-8.853c.426.824.933 1.497 1.523 2.02.586.517 1.213.843 1.88.979.665.13 1.323.028 1.975-.309.661-.34 1.129-.822 1.404-1.444.278-.629.373-1.333.284-2.113-.084-.783-.336-1.58-.755-2.392-.419-.812-.92-1.478-1.503-1.997-.583-.52-1.206-.846-1.871-.977-.667-.135-1.335-.03-2.003.315-.661.341-1.13.82-1.408 1.439-.276.61-.373 1.306-.291 2.084.084.772.339 1.57.765 2.395Zm17.102-2.022c-.825.359-1.655.457-2.49.293-.837-.167-1.611-.561-2.32-1.182-.709-.621-1.281-1.431-1.715-2.43-.436-1.003-.639-1.973-.608-2.91.029-.943.267-1.777.715-2.504.448-.727 1.085-1.27 1.909-1.628.825-.36 1.656-.455 2.494-.288.837.168 1.61.562 2.319 1.183.709.621 1.281 1.431 1.715 2.43.435.998.638 1.968.609 2.91-.029.943-.268 1.777-.716 2.504-.45.722-1.087 1.263-1.912 1.622Zm-.32-.736c.699-.304 1.223-.767 1.572-1.389.353-.624.527-1.334.521-2.132-.002-.8-.183-1.612-.542-2.437-.359-.825-.829-1.508-1.411-2.05-.584-.546-1.222-.904-1.915-1.072-.695-.173-1.391-.107-2.09.197-.699.304-1.223.77-1.57 1.395-.349.622-.522 1.333-.521 2.132.001.796.18 1.606.539 2.43.359.825.828 1.512 1.407 2.06.584.547 1.222.904 1.915 1.072.698.167 1.396.098 2.095-.206Zm5.857-1.908-.281-.775.267-.097c.423-.153.731-.347.922-.583.191-.24.284-.55.282-.932.002-.384-.072-.868-.223-1.453a51.51 51.51 0 0 0-.626-2.168l-1.569-5.15 6.198-2.242 3.712 10.258-.808.293-3.432-9.484-4.621 1.672 1.392 4.58c.26.842.464 1.589.614 2.24.155.649.221 1.214.198 1.695-.019.476-.162.88-.429 1.213-.267.333-.693.606-1.276.817l-.32.116Zm12.153-10.984 3.132-.905c1.133-.328 2.09-.324 2.872.012s1.319 1.007 1.609 2.012c.194.669.214 1.276.061 1.823-.152.547-.462 1.018-.929 1.415-.468.391-1.078.695-1.828.912l-3.76 1.087-3.029-10.48.833-.24 2.8 9.688 2.927-.846c.846-.245 1.464-.623 1.853-1.134.393-.518.475-1.17.248-1.957-.226-.783-.644-1.288-1.252-1.516-.605-.235-1.33-.23-2.176.015l-3.132.905-.229-.791Z" fill="#000"/></svg>