<svg width="200" height="24" viewBox="0 0 200 24" fill="none" xmlns="http://www.w3.org/2000/svg">
<path fill-rule="evenodd" clip-rule="evenodd" d="M116.075 8.99636H124.247V23.7656H129.052V8.99636H137.223V5.97461H116.075V8.99636Z" fill="#981D15"/>
<path fill-rule="evenodd" clip-rule="evenodd" d="M159.023 23.8675H163.826V6.07642H159.023V23.8675Z" fill="#981D15"/>
<path fill-rule="evenodd" clip-rule="evenodd" d="M170.685 13.2597L178.939 6.07642H173.231L166.29 12.3874C165.676 12.9584 164.771 13.7978 164.771 14.7029C164.771 15.6103 165.51 16.348 166.004 16.7844L173.93 23.8675H179.719L170.439 15.9451C170.11 15.6768 169.659 15.0729 169.659 14.7029C169.659 14.1327 170.315 13.5624 170.685 13.2597Z" fill="#981D15"/>
<path fill-rule="evenodd" clip-rule="evenodd" d="M191.76 9.00006H199.522V5.97827H190.2C186.297 5.97827 184.45 7.15316 183.547 7.89162C181.123 9.93949 181.083 12.9941 181.083 15.1092C181.083 17.6265 181.247 19.8425 183.054 21.5877C185.024 23.5018 187.899 23.7693 189.543 23.7693H200V20.7483H192.211C190.2 20.7483 187.817 20.5802 186.75 18.8686C186.174 17.9284 186.052 16.2169 186.052 15.1758C186.052 14.6392 186.092 12.7587 186.42 11.8192C186.955 10.3079 188.516 9.00006 191.76 9.00006Z" fill="#981D15"/>
<path fill-rule="evenodd" clip-rule="evenodd" d="M146.019 6.10229H144.715C142.852 6.10229 140.354 8.11423 140.354 11.3615V18.3957C140.354 22.4746 142.852 23.6571 144.715 23.6571H146.019C145.608 21.9755 145.682 20.8983 146.244 19.2518V18.5043C145.596 16.6039 145.596 13.1533 146.244 11.2552V10.5046C145.684 8.85798 145.608 7.78176 146.019 6.10229ZM150.159 13.2159C149.917 14.3129 149.917 15.4458 150.16 16.5435H151.63C151.425 15.4442 151.425 14.3144 151.629 13.2159H150.159ZM147.296 13.2159C147.054 14.3129 147.054 15.4458 147.298 16.5435H148.768C148.563 15.4442 148.563 14.3144 148.766 13.2159H147.296ZM154.607 6.10229H153.17C152.698 7.05707 152.74 8.07905 153.339 9.01629H154.76C154.262 8.06985 154.213 7.06161 154.607 6.10229ZM151.744 6.10229H150.307C149.835 7.05707 149.877 8.07905 150.476 9.01629H151.897C151.399 8.06985 151.35 7.06161 151.744 6.10229ZM153.021 13.2159C152.78 14.3129 152.78 15.4458 153.023 16.5435H154.493C154.288 15.4442 154.288 14.3144 154.491 13.2159H153.021H153.021ZM148.882 6.10229H147.444C146.972 7.05707 147.014 8.07905 147.613 9.01629H149.034C148.536 8.06985 148.488 7.06161 148.882 6.10229ZM154.607 20.7263H153.17C152.698 21.6811 152.74 22.7031 153.339 23.6412H154.76C154.262 22.6948 154.213 21.6864 154.607 20.7263ZM151.744 20.7263H150.307C149.835 21.6811 149.877 22.7031 150.476 23.6412H151.897C151.399 22.6948 151.35 21.6864 151.744 20.7263ZM148.882 20.7263H147.444C146.972 21.6811 147.014 22.7031 147.613 23.6412H149.034C148.536 22.6948 148.488 21.6864 148.882 20.7263Z" fill="#981D15"/>
<path fill-rule="evenodd" clip-rule="evenodd" d="M59.4287 5.77124C57.6224 5.77124 56.431 6.24141 55.7328 7.68455L50.23 18.998C49.8425 19.7877 49.4068 19.8388 48.9982 18.998L43.495 7.68455C42.7969 6.24141 41.606 5.77124 39.7988 5.77124C37.8282 5.77124 36.0615 6.5769 36.0615 8.32282V23.7641H40.6614V10.8737C40.6614 10.7735 40.6614 10.5717 40.9079 10.5717C41.0722 10.5717 41.1953 10.8409 41.2363 10.941L46.8214 22.489C47.1498 23.1932 47.8891 23.9659 49.6139 23.9659C51.3384 23.9659 52.078 23.1932 52.4064 22.489L57.9508 10.941C58.0326 10.8073 58.1965 10.5381 58.3202 10.5381C58.402 10.5381 58.5664 10.6727 58.5664 10.8737V23.7641H63.1659V8.32282C63.1659 6.5769 61.4 5.77124 59.4287 5.77124Z" fill="white"/>
<path fill-rule="evenodd" clip-rule="evenodd" d="M81.4401 20.0859C80.7294 20.6683 79.8386 20.6683 78.9843 20.6683H74.5158C73.982 20.6683 73.0927 20.6974 72.7369 20.2899C72.6654 20.202 72.5585 20.0278 72.5585 19.1547V14.9368H78.9843C79.7669 14.9368 80.7294 14.9657 81.4049 15.4894C82.1525 16.0711 82.1876 16.9433 82.1876 17.7008C82.1876 18.3117 82.2241 19.4461 81.4401 20.0859ZM81.3337 11.8813H72.5585V10.2792C72.5585 10.0177 72.5585 9.5231 72.9154 9.26095C73.2359 9.05681 73.7694 9.02851 74.232 9.02851H85.7477V5.97314H71.2419C69.9256 5.97314 69.1417 6.38053 68.7144 6.72922C67.9672 7.36983 67.8604 8.24273 67.8604 8.94064V21.0177C67.8604 21.6001 67.9308 22.3264 68.5363 22.9081C68.9996 23.3446 69.7471 23.7237 71.0286 23.7237H81.4049C83.8612 23.7237 85.1423 22.8798 85.6761 22.3852C86.3888 21.7156 87.0291 20.4352 87.0291 17.8171C87.0291 15.9258 86.6725 14.3833 85.7477 13.3941C84.4652 12.0564 82.5798 11.8813 81.3337 11.8813Z" fill="white"/>
<path fill-rule="evenodd" clip-rule="evenodd" d="M109.601 5.76025C108.615 5.76025 107.506 5.96209 106.643 6.96876L96.9522 18.617C96.7874 18.8188 96.6237 19.0872 96.3763 19.0872C96.0481 19.0872 96.0481 18.9198 96.0481 18.617V5.96209H91.4497V21.4377C91.4497 22.3772 91.7781 23.9549 94.6113 23.9549C96.2535 23.9549 96.9522 23.4856 97.7322 22.5454L107.3 11.0974C107.629 10.6946 107.794 10.6288 107.876 10.6288C108.205 10.6288 108.122 10.8299 108.122 11.0974V23.7531H112.762V8.47938C112.762 5.82749 110.258 5.76025 109.601 5.76025Z" fill="white"/>
<path fill-rule="evenodd" clip-rule="evenodd" d="M31.2571 12.6795H25.5856L20.4366 2.65177C19.4093 0.670438 18.1772 0 15.7134 0C13.1263 0 12.018 0.670438 10.9907 2.65177L0.149414 23.7658H5.85808L14.8923 5.10171C15.0565 4.76543 15.3445 4.12783 15.7134 4.12783C16.0831 4.12783 16.3708 4.76543 16.5351 5.10171L20.2028 12.6795H16.4925L15.0308 15.835H21.7302L25.5695 23.7658H31.2782L27.2056 15.835H32.6872L31.2571 12.6795Z" fill="white"/>
</svg>
