<svg width="89" height="40" viewBox="0 0 89 40" fill="none" xmlns="http://www.w3.org/2000/svg">
<g clip-path="url(#clip0_235_13)">
<path d="M79.1459 0.197266H10.7811C5.33871 0.197266 0.926758 4.58226 0.926758 9.99142V29.5797C0.926758 34.9889 5.33871 39.3739 10.7811 39.3739H79.1459C84.5883 39.3739 89.0003 34.9889 89.0003 29.5797V9.99142C89.0003 4.58226 84.5883 0.197266 79.1459 0.197266Z" fill="#C1C1C1"/>
<path fill-rule="evenodd" clip-rule="evenodd" d="M22.4986 9.99146C22.4506 13.8385 22.1866 16.0007 20.7361 17.4436C19.2856 18.8865 17.112 19.1491 13.2446 19.1969V19.7656C17.112 19.8135 19.2856 20.0761 20.7361 21.5189C22.1866 22.9618 22.4506 25.124 22.4986 28.971H23.0704C23.1185 25.124 23.3824 22.9618 24.8329 21.5189C26.2835 20.0761 28.4571 19.8135 32.3244 19.7656V19.1969C28.4571 19.149 26.2835 18.8865 24.8329 17.4436C23.3824 16.0007 23.1185 13.8385 23.0704 9.99146H22.4986Z" fill="#3F3F3F"/>
<path d="M38.8972 29.5798V26.5984H46.5864V29.5798H48.9221V24.6656H47.5785V12.3083H38.7938L38.5458 19.4019C38.4632 21.7048 38.2151 23.5759 37.5537 24.6656H36.5615V29.5798H38.8972ZM40.7368 19.7309L40.9228 14.2411H45.0775V24.6656H39.91C40.3441 23.6993 40.6542 22.0338 40.7368 19.7309Z" fill="#3F3F3F"/>
<path d="M53.119 24.8713C51.8581 24.8713 50.618 24.419 49.9565 23.9255V25.92C50.432 26.3106 51.6308 26.8041 53.4084 26.8041C56.0334 26.8041 57.4183 25.6321 57.4183 23.5554C57.4183 22.3423 56.6536 21.5198 55.2894 21.232C56.5709 20.8208 57.1083 19.9161 57.1083 18.7646C57.1083 17.0169 55.7234 16.0505 53.4911 16.0505C51.8788 16.0505 50.8247 16.544 50.2253 16.9141V18.9086C50.8867 18.4768 51.7962 17.9833 53.1397 17.9833C54.0491 17.9833 54.6279 18.4151 54.6279 19.1759C54.6279 19.9777 54.1318 20.4095 53.119 20.4095H51.5688V22.26H53.119C54.3799 22.26 54.876 22.6302 54.876 23.5349C54.876 24.3573 54.2765 24.8713 53.119 24.8713Z" fill="#3F3F3F"/>
<path d="M66.7248 25.8994V23.905C65.9599 24.419 64.6782 24.8713 63.4796 24.8713C61.6813 24.8713 60.9992 24.0283 60.8959 22.3012H66.8283V21.0058C66.8283 17.4076 65.2368 16.0505 62.7769 16.0505C59.7798 16.0505 58.3535 18.3329 58.3535 21.4582C58.3535 25.0564 60.1311 26.8041 63.2727 26.8041C64.8439 26.8041 66.0011 26.3929 66.7248 25.8994ZM62.7356 17.9833C63.9551 17.9833 64.3271 18.9908 64.3271 20.2862V20.4918H60.8959C60.9579 18.8469 61.5574 17.9833 62.7356 17.9833Z" fill="#3F3F3F"/>
<path d="M74.2224 16.2561V20.3478H70.936V16.2561H68.4761V26.5984H70.936V22.2805H74.2224V26.5984H76.6823V16.2561H74.2224Z" fill="#3F3F3F"/>
</g>
<defs>
<clipPath id="clip0_235_13">
<rect width="88.0735" height="39.1766" fill="white" transform="translate(0.926758 0.197266)"/>
</clipPath>
</defs>
</svg>
