<svg width="244" height="64" viewBox="0 0 244 64" fill="none" xmlns="http://www.w3.org/2000/svg">
<path d="M228 0H16C7.16344 0 0 7.16344 0 16V48C0 56.8366 7.16344 64 16 64H228C236.837 64 244 56.8366 244 48V16C244 7.16344 236.837 0 228 0Z" fill="black"/>
<path fill-rule="evenodd" clip-rule="evenodd" d="M135.814 16C135.736 22.2267 135.311 25.7265 132.976 28.0619C130.641 30.3973 127.142 30.8223 120.916 30.8997V31.8203C127.142 31.8977 130.641 32.3227 132.976 34.6581C135.311 36.9935 135.736 40.4933 135.814 46.72H136.734C136.812 40.4933 137.237 36.9935 139.572 34.6581C141.907 32.3227 145.406 31.8976 151.633 31.8203V30.8997C145.406 30.8223 141.907 30.3973 139.572 28.0619C137.237 25.7265 136.812 22.2267 136.734 16H135.814Z" fill="white"/>
<path d="M31.3474 42.8806H35.3738V19.751H29.5171C23.6272 19.751 20.5324 22.7795 20.5324 27.239C20.5324 30.7999 22.2295 32.8966 25.2577 35.0598L20 42.8806H24.3593L30.216 34.1279L28.1861 32.7635C25.7236 31.0995 24.5256 29.8015 24.5256 27.006C24.5256 24.5433 26.256 22.8793 29.5504 22.8793H31.3474V42.8806ZM108.982 43.2134C110.812 43.2134 112.11 42.8806 113.075 42.1817V38.9535C112.077 39.6524 110.879 40.0851 109.215 40.0851C106.386 40.0851 105.222 37.8886 105.222 34.4275C105.222 30.7999 106.653 28.9363 109.248 28.9363C110.779 28.9363 112.276 29.4687 113.075 29.9679V26.6067C112.243 26.1407 110.779 25.8079 108.816 25.8079C103.758 25.8079 101.129 29.4355 101.129 34.5273C101.129 40.1183 103.691 43.2134 108.982 43.2134ZM84.2241 41.7491V38.5209C82.9928 39.3529 80.9297 40.0851 78.9996 40.0851C76.1046 40.0851 75.0064 38.7206 74.84 35.9251H84.3905V33.8284C84.3905 28.0044 81.8282 25.8079 77.8682 25.8079C73.0431 25.8079 70.747 29.502 70.747 34.5606C70.747 40.3846 73.6088 43.2134 78.6669 43.2134C81.1959 43.2134 83.0594 42.5478 84.2241 41.7491ZM47.9525 26.1407V32.7635H42.6615V26.1407H38.7015V42.8806H42.6615V35.8918H47.9525V42.8806H51.9124V26.1407H47.9525ZM69.782 39.7523H68.0183V26.1407H56.4713V27.5718C56.4713 31.6652 56.2051 36.9567 54.8075 39.7523H53.5762V46.7078H57.2367V42.8806H66.1216V46.7078H69.782V39.7523ZM96.8692 42.8806H101.362L95.0057 33.8617L100.596 26.1407H96.603L91.0125 33.8617V26.1407H87.0526V42.8806H91.0125V34.6604L96.8692 42.8806ZM77.8017 28.9363C79.765 28.9363 80.364 30.567 80.364 32.6636V32.9964H74.84C74.9399 30.334 75.9049 28.9363 77.8017 28.9363ZM64.0584 39.7523H58.4679C59.566 37.223 59.8655 32.6636 59.8655 29.7683V29.2691H64.0584V39.7523Z" fill="white"/>
<path d="M162.213 47.7052V42.8796H174.592V47.7052H178.353V39.7513H176.19V19.75H162.047L161.648 31.2316C161.515 34.959 161.115 37.9874 160.05 39.7513H158.453V47.7052H162.213ZM165.175 31.7641L165.474 22.8783H172.163V39.7513H163.844C164.543 38.1871 165.042 35.4914 165.175 31.7641Z" fill="white"/>
<path d="M185.111 40.084C183.081 40.084 181.085 39.3518 180.02 38.5531V41.7813C180.785 42.4136 182.715 43.2123 185.577 43.2123C189.803 43.2123 192.033 41.3153 192.033 37.9541C192.033 35.9905 190.802 34.6593 188.605 34.1934C190.669 33.5278 191.534 32.0635 191.534 30.1998C191.534 27.371 189.304 25.8069 185.71 25.8069C183.115 25.8069 181.418 26.6056 180.453 27.2046V30.4328C181.517 29.7339 182.982 28.9352 185.145 28.9352C186.609 28.9352 187.541 29.6341 187.541 30.8654C187.541 32.1633 186.742 32.8622 185.111 32.8622H182.616V35.8574H185.111C187.141 35.8574 187.94 36.4565 187.94 37.9208C187.94 39.252 186.975 40.084 185.111 40.084Z" fill="white"/>
<path d="M207.014 41.748V38.5198C205.782 39.3518 203.719 40.084 201.789 40.084C198.894 40.084 197.796 38.7195 197.63 35.924H207.18V33.8273C207.18 28.0033 204.618 25.8069 200.658 25.8069C195.833 25.8069 193.537 29.5009 193.537 34.5595C193.537 40.3835 196.398 43.2123 201.457 43.2123C203.986 43.2123 205.849 42.5467 207.014 41.748ZM200.591 28.9352C202.555 28.9352 203.154 30.5659 203.154 32.6625V32.9953H197.63C197.73 30.3329 198.695 28.9352 200.591 28.9352Z" fill="white"/>
<path d="M219.085 26.1398V32.7625H213.794V26.1398H209.834V42.8796H213.794V35.8908H219.085V42.8796H223.045V26.1398H219.085Z" fill="white"/>
</svg>
