<svg width="23" height="23" viewBox="0 0 23 23" fill="none" xmlns="http://www.w3.org/2000/svg">
<g clip-path="url(#clip0_175_11426)">
<path d="M22.954 11.2742C20.9968 6.67249 16.5007 3.69897 11.5 3.69897C6.49925 3.69897 2.00325 6.6724 0.0459551 11.2742C-0.0153184 11.4182 -0.0153184 11.5809 0.0459551 11.7249C2.00311 16.3271 6.49916 19.3009 11.5 19.3009C16.501 19.3009 20.997 16.3271 22.954 11.7249C23.0153 11.5809 23.0153 11.4182 22.954 11.2742ZM11.5 18.1494C7.04402 18.1494 3.02967 15.5474 1.20431 11.4996C3.02971 7.45224 7.04415 4.85055 11.5 4.85055C15.9559 4.85055 19.9703 7.45224 21.7957 11.4995C19.9703 15.5473 15.956 18.1494 11.5 18.1494Z" fill="black"/>
<path d="M11.5 7.08984C9.0682 7.08984 7.08984 9.06825 7.08984 11.5C7.08984 13.9318 9.06825 15.9102 11.5 15.9102C13.9318 15.9102 15.9102 13.9318 15.9102 11.5C15.9102 9.0682 13.9318 7.08984 11.5 7.08984ZM11.5 14.7587C9.70322 14.7587 8.24137 13.2969 8.24137 11.5001C8.24137 9.70331 9.70322 8.24146 11.5 8.24146C13.2968 8.24146 14.7586 9.70331 14.7586 11.5001C14.7586 13.2969 13.2968 14.7587 11.5 14.7587Z" fill="black"/>
</g>
<defs>
<clipPath id="clip0_175_11426">
<rect width="23" height="23" fill="white"/>
</clipPath>
</defs>
</svg>
