<svg width="22" height="22" viewBox="0 0 22 22" fill="none" xmlns="http://www.w3.org/2000/svg">
<path d="M9.98165 20.3536C10.2553 20.6272 10.6232 20.7798 11.009 20.7798C11.3903 20.7798 11.7671 20.6227 12.0363 20.3536L20.0979 12.292C21.3226 11.0673 21.9955 9.43881 22 7.71165C22 5.98 21.3271 4.35154 20.1024 3.12682C18.8777 1.90211 17.2537 1.22919 15.522 1.22919C13.8218 1.22919 12.2202 1.87968 11.0045 3.06402C9.78426 1.87519 8.17822 1.22021 6.47349 1.22021C4.74633 1.22021 3.12235 1.89313 1.89763 3.11336C0.67292 4.33808 0 5.96654 0 7.69819C0 9.42535 0.677406 11.0538 1.90212 12.2785L9.98165 20.3536ZM2.67822 3.89395C3.69209 2.88008 5.04241 2.31932 6.47798 2.31932C7.91354 2.31932 9.26835 2.88008 10.2867 3.89844L10.6187 4.23041C10.7219 4.33359 10.8609 4.39191 11.009 4.39191C11.1525 4.39191 11.2961 4.33359 11.3993 4.23041L11.7223 3.90741C12.7406 2.88906 14.0909 2.32829 15.531 2.32829C16.9666 2.32829 18.3169 2.88906 19.3308 3.90292C20.3491 4.92127 20.9054 6.2716 20.9054 7.70716C20.9054 9.14273 20.3446 10.4931 19.3263 11.5114L11.2602 19.5775C11.1301 19.7076 10.8923 19.7076 10.7577 19.5775L2.68271 11.5024C1.66436 10.4841 1.10359 9.13375 1.10359 7.69819C1.10359 6.26263 1.66436 4.9123 2.67822 3.89395Z" fill="black"/>
</svg>
