<svg width="25" height="22" viewBox="0 0 25 22" fill="none" xmlns="http://www.w3.org/2000/svg">
<path fill-rule="evenodd" clip-rule="evenodd" d="M22.9999 9.40299C22.9999 13.561 19.7682 16.806 15.9339 16.806C12.0996 16.806 8.86787 13.561 8.86787 9.40299C8.86787 5.24501 12.0996 2 15.9339 2C19.7682 2 22.9999 5.24501 22.9999 9.40299ZM24.9999 9.40299C24.9999 14.5961 20.9409 18.806 15.9339 18.806C13.1024 18.806 10.5741 17.4597 8.91157 15.3506C8.86255 15.4081 8.80641 15.4608 8.74337 15.5073L1.56702 20.8099C1.12283 21.1381 0.504389 21.0385 0.185683 20.5874C-0.133023 20.1364 -0.0313017 19.5047 0.412884 19.1765L7.58923 13.874C7.68032 13.8067 7.77873 13.7573 7.88039 13.7254C7.2334 12.4312 6.86787 10.9614 6.86787 9.40299C6.86787 4.20986 10.9269 0 15.9339 0C20.9409 0 24.9999 4.20986 24.9999 9.40299Z" fill="white"/>
</svg>
