<svg width="60" height="60" viewBox="0 0 60 60" fill="none" xmlns="http://www.w3.org/2000/svg">
<circle cx="30" cy="30" r="29.5" stroke="black"/>
<path d="M23.3 39.987L23.313 37.569L31.464 30.263C32.1227 29.6823 32.569 29.1277 32.803 28.599C33.0457 28.0703 33.167 27.5417 33.167 27.013C33.167 26.3457 33.0197 25.7477 32.725 25.219C32.4303 24.6817 32.023 24.257 31.503 23.945C30.983 23.633 30.385 23.477 29.709 23.477C29.0157 23.477 28.396 23.6417 27.85 23.971C27.3127 24.2917 26.8923 24.7207 26.589 25.258C26.2857 25.7953 26.1383 26.376 26.147 27H23.365C23.365 25.7867 23.638 24.725 24.184 23.815C24.7387 22.8963 25.497 22.1813 26.459 21.67C27.421 21.15 28.5217 20.89 29.761 20.89C30.9397 20.89 31.997 21.1587 32.933 21.696C33.869 22.2247 34.6057 22.9527 35.143 23.88C35.689 24.8073 35.962 25.8647 35.962 27.052C35.962 27.91 35.8493 28.638 35.624 29.236C35.3987 29.834 35.0607 30.3887 34.61 30.9C34.1593 31.4113 33.596 31.966 32.92 32.564L26.628 38.18L26.329 37.4H35.962V39.987H23.3Z" fill="black"/>
</svg>
