<svg width="13" height="20" viewBox="0 0 13 20" fill="none" xmlns="http://www.w3.org/2000/svg">
<path d="M6.059 19.351C5.13167 19.351 4.26067 19.1777 3.446 18.831C2.63133 18.4757 1.925 17.973 1.327 17.323C0.737667 16.673 0.308667 15.906 0.0400001 15.022L2.666 14.294C2.91733 15.1 3.355 15.7197 3.979 16.153C4.603 16.5777 5.29633 16.7857 6.059 16.777C6.74367 16.7683 7.346 16.608 7.866 16.296C8.386 15.984 8.79333 15.5637 9.088 15.035C9.38267 14.4977 9.53 13.8823 9.53 13.189C9.53 12.149 9.205 11.291 8.555 10.615C7.91367 9.939 7.073 9.601 6.033 9.601C5.73833 9.601 5.435 9.64433 5.123 9.731C4.81967 9.81767 4.53367 9.93033 4.265 10.069L2.991 7.924L9.595 2.087L9.881 2.867H0.781V0.279999H12.039V2.867L6.553 8.145L6.527 7.261C7.70567 7.261 8.72833 7.52533 9.595 8.054C10.4617 8.574 11.129 9.28467 11.597 10.186C12.0737 11.0787 12.312 12.0797 12.312 13.189C12.312 14.385 12.0303 15.4467 11.467 16.374C10.9123 17.3013 10.1627 18.0293 9.218 18.558C8.282 19.0867 7.229 19.351 6.059 19.351Z" fill="black"/>
</svg>
