<svg width="60" height="60" viewBox="0 0 60 60" fill="none" xmlns="http://www.w3.org/2000/svg">
<circle cx="30" cy="30" r="29.5" stroke="black"/>
<path d="M30.059 40.351C29.1317 40.351 28.2607 40.1777 27.446 39.831C26.6313 39.4757 25.925 38.973 25.327 38.323C24.7377 37.673 24.3087 36.906 24.04 36.022L26.666 35.294C26.9173 36.1 27.355 36.7197 27.979 37.153C28.603 37.5777 29.2963 37.7857 30.059 37.777C30.7437 37.7683 31.346 37.608 31.866 37.296C32.386 36.984 32.7933 36.5637 33.088 36.035C33.3827 35.4977 33.53 34.8823 33.53 34.189C33.53 33.149 33.205 32.291 32.555 31.615C31.9137 30.939 31.073 30.601 30.033 30.601C29.7383 30.601 29.435 30.6443 29.123 30.731C28.8197 30.8177 28.5337 30.9303 28.265 31.069L26.991 28.924L33.595 23.087L33.881 23.867H24.781V21.28H36.039V23.867L30.553 29.145L30.527 28.261C31.7057 28.261 32.7283 28.5253 33.595 29.054C34.4617 29.574 35.129 30.2847 35.597 31.186C36.0737 32.0787 36.312 33.0797 36.312 34.189C36.312 35.385 36.0303 36.4467 35.467 37.374C34.9123 38.3013 34.1627 39.0293 33.218 39.558C32.282 40.0867 31.229 40.351 30.059 40.351Z" fill="black"/>
</svg>
