<svg width="80" height="120" viewBox="0 0 80 120" fill="none" xmlns="http://www.w3.org/2000/svg">
<path d="M-18.4994 120C-72.8123 120 -117 93.0841 -117 60C-117 26.916 -72.8135 0 -18.4994 0C35.8135 0 80 26.916 80 60C80 93.0841 35.8123 120 -18.4994 120ZM-18.4994 1.14118C-72.1816 1.14118 -115.855 27.5459 -115.855 60C-115.855 92.4541 -72.1816 118.859 -18.4994 118.859C35.1816 118.859 78.8554 92.4553 78.8554 60C78.8554 27.5447 35.1828 1.14118 -18.4994 1.14118Z" fill="#56A6AF"/>
<path d="M32.602 101.192L32.404 101.189L-23.4621 100.635L-11.6521 74.9644L-10.5074 74.9713C6.38242 74.9713 22.8534 70.742 33.5497 63.6587C40.0248 59.4078 44.0252 55.2767 45.3163 46.7372C45.7936 32.2408 31.4208 22.6366 23.7553 19.5919C7.76739 12.4652 -6.86872 11.6401 -16.4903 11.6401C-18.1511 11.6401 -19.8749 11.6687 -21.7601 11.7269C-36.7659 12.2826 -49.1232 14.6962 -58.4872 18.8992L-66.0851 22.5818L-64.5479 24.4488C-58.3911 20.2435 -49.0476 17.8596 -45.0037 16.8257L-44.7462 16.7595C-39.3001 15.4859 -32.405 14.646 -24.2393 14.2649L-11.1919 14.2409L-32.231 57.5739L-94.373 57.0216L-94.333 56.4191C-92.3116 26.0841 -58.8524 2.43306 -18.5609 2.99795L-17.5273 2.99339C13.7972 2.99339 41.0298 16.3122 51.8509 36.9265C61.9247 62.0576 55.4931 83.6203 32.7554 101.071L32.602 101.192ZM-21.6857 99.5124L32.2174 100.047C54.3702 82.9676 60.6266 61.8922 50.8139 37.4035C40.2114 17.2148 13.3783 4.13572 -17.5262 4.13572L-18.5632 4.14028C-19.068 4.13343 -19.5636 4.12886 -20.0523 4.12886C-58.8409 4.12886 -90.7938 26.8156 -93.146 55.8907L-32.9452 56.427L-13.0199 15.3867L-24.2119 15.4083C-32.2814 15.7861 -39.1067 16.6157 -44.4737 17.8699L-44.7199 17.9326C-48.7981 18.9745 -58.3522 21.4144 -64.3202 25.6835L-64.7551 25.9951L-67.8902 22.1904L-58.9725 17.8676C-49.4585 13.5961 -36.9571 11.1494 -21.799 10.5891C-19.8978 10.5298 -18.1626 10.5012 -16.4903 10.5012C-6.76341 10.5012 8.03638 11.3343 24.2006 18.5432C32.1041 21.6814 46.9589 31.6474 46.4541 46.8445C45.0943 55.869 40.9245 60.1849 34.1793 64.6116C23.3055 71.8147 6.59875 76.1136 -10.5086 76.1136L-10.9206 76.1124L-21.6857 99.5124Z" fill="#56A6AF"/>
<path d="M-28.2188 57.3637L-9.01219 15.5576C0.798262 15.3899 6.04859 17.0366 11.5565 19.6191L-4.86871 56.4748L-28.2188 57.3637Z" fill="#56A6AF"/>
<path d="M-29.127 57.9698L-9.38243 14.9929L-9.02302 14.9872C0.705019 14.8205 6.09271 16.4273 11.7986 19.1011L12.3045 19.3385L-4.4938 57.0295L-29.127 57.9698ZM-8.64186 16.1226L-27.3116 56.7579L-5.24698 55.918L10.8028 19.8988C5.49977 17.4681 0.362789 16.0165 -8.64186 16.1226Z" fill="#56A6AF"/>
<path d="M-1.72266 56.3871L8.49986 35.1987L8.92109 35.266C12.5129 35.8412 15.0768 37.2506 16.3359 39.3424C17.4553 41.1979 17.5468 43.518 16.6094 46.2374C12.9352 52.8323 3.82986 55.0416 -0.54598 56.1029L-1.72266 56.3871ZM9.15917 36.4643L0.35939 54.705C4.86572 53.5775 12.4682 51.3225 15.5678 45.7741C16.3473 43.4814 16.2889 41.4832 15.3526 39.9289C14.3213 38.2137 12.1844 37.0189 9.15917 36.4643Z" fill="#56A6AF"/>
<path d="M10.3342 32.6025L15.3866 20.1077C27.2504 23.0462 35.8385 30.4365 40.6023 37.101C45.8034 47.3215 39.5711 56.4258 34.1387 60.3641C21.1669 70.3346 3.46203 72.0555 -9.2832 72.7219L-1.8192 58.5462C4.49447 57.9995 11.622 56.1839 17.9356 49.5491C23.6404 41.6441 18.8307 34.5117 10.3342 32.6025Z" fill="#56A6AF"/>
<path d="M-10.2578 73.3438L-2.18029 58.0041L-1.8701 57.9789C3.27148 57.5339 10.8774 56.1371 17.5173 49.1587C19.7768 46.0182 20.4178 42.8069 19.3224 39.9277C18.0919 36.697 14.6833 34.1681 10.2044 33.1616L9.54854 33.0144L15.0392 19.4377L15.5211 19.5564C30.0393 23.15 38.221 32.793 41.0654 36.7712C46.0044 46.4667 41.0997 56.0207 34.4701 60.8262C21.9504 70.4509 5.33978 72.529 -9.25743 73.2925L-10.2578 73.3438ZM-1.45691 59.0859L-8.30854 72.0965C5.86288 71.2988 21.789 69.1329 33.788 59.9098C38.2909 56.6483 45.3794 47.7494 40.0913 37.3566C37.3969 33.5987 29.5746 24.3768 15.7306 20.7821L11.1132 32.203C15.647 33.3899 19.0923 36.0911 20.3948 39.5192C21.259 41.7867 21.6127 45.4271 18.3998 49.8811C11.5756 57.0614 3.86324 58.5963 -1.45691 59.0859Z" fill="#56A6AF"/>
<path d="M38.0536 100.346L46.2445 100.618C66.8188 92.6834 84.0143 66.2102 71.3698 41.9178C63.5407 29.1058 45.5153 13.7477 24.5781 10.2043C75.1344 33.3441 63.4216 80.2936 38.0536 100.346Z" fill="#56A6AF"/>
<path d="M46.3441 101.193L36.4776 100.865L37.6989 99.898C52.4598 88.2305 60.9768 68.8292 58.8971 51.6213C57.4331 39.5076 50.2473 22.5782 24.3436 10.7201L20.4004 8.91479L24.679 9.63831C45.8623 13.225 63.9871 28.7292 71.8632 41.6177C78.4756 54.3179 76.4382 65.9968 73.5676 73.5674C68.8758 85.939 58.4873 96.5086 46.4552 101.149L46.3441 101.193ZM39.5978 99.826L46.1484 100.043C57.8406 95.4952 67.9281 85.2052 72.4962 73.1646C75.2845 65.8142 77.2635 54.4709 70.8651 42.1792C63.7022 30.4615 47.863 16.5025 28.9964 11.7198C51.9962 23.6509 58.6166 39.7644 60.0325 51.4867C62.102 68.6056 53.9249 87.8356 39.5978 99.826Z" fill="#56A6AF"/>
<path d="M17.875 111.001L21.6671 109.538C26.1265 107.817 30.0903 106.131 33.4486 102.932L33.6157 102.773L41.7264 102.83L40.5955 103.819C36.2403 107.623 29.9609 109.918 21.9246 110.638L17.875 111.001ZM34.069 103.917C31.7053 106.122 29.012 107.647 26.1665 108.925C31.2269 108.014 35.3955 106.348 38.6142 103.952L34.069 103.917Z" fill="#56A6AF"/>
<path d="M-17.1715 116.355C-18.4225 116.355 -19.6976 116.329 -20.9612 116.274C-37.5638 115.372 -52.3579 111.007 -66.1963 102.929L-68.0391 101.854L29.5515 102.423L27.7854 103.472C13.1916 112.141 -1.51434 116.355 -17.1715 116.355ZM-63.7285 103.019C-50.5941 110.316 -36.5623 114.283 -20.9052 115.133C-19.6644 115.186 -18.4053 115.213 -17.1715 115.213C-2.37051 115.213 11.5743 111.39 25.3943 103.54L-63.7285 103.019Z" fill="#56A6AF"/>
</svg>
