<svg width="86" height="120" viewBox="0 0 86 120" fill="none" xmlns="http://www.w3.org/2000/svg">
<mask id="mask0_114_2402" style="mask-type:alpha" maskUnits="userSpaceOnUse" x="-23" y="11" width="109" height="136">
<path d="M-23 11.0864H85.8864V146.543H-23V11.0864Z" fill="white"/>
</mask>
<g mask="url(#mask0_114_2402)">
<path fill-rule="evenodd" clip-rule="evenodd" d="M57.9929 98.9661C58.1773 98.3616 58.2723 98.1104 58.4138 97.4182C58.6066 98.5229 58.7911 99.2947 59.0572 100.258C58.6681 99.6792 58.4976 99.4098 57.9929 98.9661ZM57.3277 114.036C55.7754 114.07 54.3573 114.037 54.2813 113.837C54.1248 113.422 54.5652 112.96 54.9191 112.49C55.1309 112.209 55.7721 111.764 55.7721 111.764L57.7178 112.53C57.7905 112.838 57.8123 112.948 57.9275 113.254C57.7519 113.398 57.4982 113.775 57.3277 114.036ZM53.8799 93.5968C54.1695 94.8496 54.4898 95.8007 54.9174 97.0419C53.9822 96.6531 52.9761 96.3602 51.9274 96.138C52.2896 95.7135 53.2757 94.9538 53.8799 93.5968ZM46.701 95.4716C48.2225 94.2402 48.9537 92.6945 48.6787 90.1302L48.691 90.1291C49.6217 92.0209 50.2662 94.0564 50.7497 95.9164C49.6703 95.7409 47.8055 95.5593 46.701 95.4716ZM32.2007 41.5407C32.1543 41.7151 33.2286 42.5806 34.8016 42.5055L32.4572 46.9731L31.55 42.46L30.498 46.9736L27.7937 42.46C27.7937 42.46 29.706 42.6832 30.6998 41.5407C29.8524 40.8868 26.323 38.9095 26.323 38.9095L27.4158 37.9468C27.4158 37.9468 33.7608 38.2096 35.6836 37.9468L36.725 38.91C36.725 38.91 32.6691 41.3657 32.2007 41.5407ZM12.1061 95.9164C12.5891 94.0553 13.2179 92.0193 14.1486 90.1258L14.1603 90.128C13.8831 92.6961 14.7316 94.6417 16.3079 95.4683C15.2039 95.5566 13.1855 95.7409 12.1061 95.9164ZM7.93839 97.0419C8.366 95.8007 8.68573 94.8496 8.97528 93.5968C9.57953 94.9538 10.565 95.7135 10.9278 96.138C9.87859 96.3602 8.87299 96.6531 7.93839 97.0419ZM8.61922 113.837C8.46382 114.251 2.66502 113.954 1.63371 113.828C0.602964 113.706 -3.16676 113.251 -3.16676 113.251L-2.95938 111.793L-0.606655 104.246C-0.606655 104.246 -0.05439 105.429 0.230129 105.946C0.713083 106.827 1.41012 107.8 1.41012 107.8L0.687368 108.392C0.687368 108.392 1.75278 108.832 2.75501 108.964C3.84669 109.109 4.58957 108.953 4.58957 108.953L4.00153 112.995L7.12843 111.764C7.12843 111.764 7.77013 112.209 7.98142 112.49C8.33526 112.96 8.77573 113.422 8.61922 113.837ZM4.44088 97.4182C4.58342 98.1104 4.67789 98.3616 4.86291 98.9661C4.35815 99.4098 4.18655 99.6792 3.79806 100.258C4.06413 99.2947 4.24915 98.5229 4.44088 97.4182ZM85.8018 101.787C85.8018 90.1401 83.2451 83.5119 80.7358 78.5726C80.2395 74.7144 78.9332 71.1058 76.4038 66.7237C76.4256 66.7144 76.8242 66.6656 76.9505 66.6036C77.1808 66.4961 77.3809 66.4023 77.3809 65.9959C76.2607 59.3924 66.3931 53.6857 61.4149 52.4642C60.1684 52.242 58.6318 52.3825 57.8391 52.5574C57.046 52.7335 56.0057 53.2524 55.2539 53.8673C52.9587 55.7443 53.2248 58.2915 52.6452 59.6425C52.0677 60.9891 50.8246 62.4103 49.7871 63.0345C49.3304 63.3104 48.9503 63.4673 48.6334 63.5578C48.3058 63.6334 48.0235 63.6724 47.7871 63.6812C47.3863 63.6664 46.9358 63.572 46.7564 63.481C46.7564 63.481 49.1756 62.8897 49.805 61.9227C49.805 61.9227 46.9922 61.7011 44.924 59.1867C43.1258 57.0003 43.2197 54.5019 43.3254 53.2409C43.4394 51.8861 44.0956 49.7332 44.7754 48.5418C45.791 47.5819 47.3187 47.0329 48.9833 47.0323C51.0001 47.0329 52.0582 47.9566 53.1739 50.6898L53.4428 51.3485L53.7648 50.7139C54.5563 49.1567 54.7782 47.5874 54.4395 45.9265C59.5032 45.8278 63.1466 43.8696 64.9918 40.2456L65.4278 39.3922L64.5569 39.8194C62.5038 40.8276 60.5977 41.4748 59.1337 41.9537C57.1924 41.9531 53.8207 41.9789 52.5518 41.8133C52.8777 41.6778 53.1857 41.5308 53.4886 41.3865C54.4836 40.9115 55.4233 40.4738 56.8531 40.4217C57.3556 40.4042 58.0884 40.5303 58.3847 40.8117C58.7067 41.1178 59.0102 41.5807 59.1337 41.9537C60.5239 39.3938 60.2355 35.7791 57.4456 34.8297C55.5144 34.1731 53.217 34.3124 53.217 34.3124C53.0493 33.1479 51.3338 31.6642 50.492 31.7037C50.2147 31.7163 49.1499 32.12 47.8447 32.6543L41.4757 35.2153L41.4735 34.1024C43.7066 31.3494 45.9632 28.0112 45.9632 24.0745C46.0314 23.3417 46.047 22.6577 46.0185 22.0116C46.0112 21.8553 45.9962 21.7044 45.9833 21.553C45.8234 19.6656 45.2225 18.1567 44.1515 17.0048C42.5149 15.2452 39.8787 14.3895 36.0962 14.3895H35.8513L34.2677 19.8269L34.2348 19.9399L32.4377 26.6553L35.3678 11.0864H27.5193L30.4337 26.6553L28.645 19.9399L28.6132 19.8269L27.029 14.3895H26.7853C23.0011 14.3895 20.3655 15.2452 18.7288 17.0048C17.6578 18.1567 17.0575 19.6656 16.8971 21.553C16.8848 21.7044 16.8697 21.8553 16.8624 22.0116C16.8333 22.6577 16.7959 23.2995 16.8205 24.0795C16.8205 28.0167 19.1749 31.3494 21.4074 34.1024V35.1681L14.93 32.5649H14.9289C13.6561 32.012 12.6131 31.6176 12.1385 31.633C10.9077 31.6725 9.83666 33.1479 9.66897 34.3124C9.66897 34.3124 7.50406 33.9894 5.44089 34.8297C3.09096 35.7868 2.51521 37.773 2.86681 39.9813C2.96072 40.5704 3.28269 41.2543 3.84222 41.9806C3.93389 41.8149 4.13289 41.4809 4.1899 41.4008C4.23853 41.3317 4.49622 40.9675 4.61193 40.8578C4.90707 40.5758 5.35536 40.4201 5.92664 40.4201C5.96129 40.4201 5.99707 40.4206 6.03284 40.4217C7.46214 40.4639 8.40233 40.9115 9.39787 41.3865C9.70027 41.5308 10.0088 41.6778 10.3347 41.8133C9.06472 41.9789 5.78354 41.9795 3.84222 41.9806C2.37827 41.5006 0.38273 40.8276 -1.67038 39.8194L-2.54071 39.3922L-2.10526 40.2456C-0.260651 43.8696 3.3833 45.8278 8.44705 45.9265C8.10831 47.5874 8.33078 49.1567 9.12117 50.7139L9.4437 51.3485L9.71257 50.6898C10.8272 47.9593 11.8836 47.0351 13.8959 47.0323H13.9054C15.5712 47.0323 17.1 47.5814 18.1156 48.5418C18.7948 49.7332 19.4505 51.8861 19.5645 53.2409C19.6724 54.5183 19.6355 57.0662 18.0284 59.1181C15.9591 61.7587 13.0815 61.9227 13.0815 61.9227C13.7115 62.8897 16.1307 63.481 16.1307 63.481C15.9507 63.572 15.5007 63.6664 15.1 63.6812C14.8635 63.6724 14.5807 63.6334 14.2531 63.5578C13.9356 63.4673 13.5561 63.3104 13.0994 63.0345C12.0625 62.4103 10.8193 60.9891 10.2414 59.6425C9.66171 58.2915 9.92778 55.7443 7.63263 53.8673C6.88136 53.2524 5.84056 52.7335 5.04793 52.5574C4.2553 52.3825 2.71812 52.242 1.47161 52.4642C-3.50606 53.6857 -13.3736 59.3924 -14.4944 65.9959C-14.4944 66.4023 -14.2943 66.4961 -14.064 66.6036C-13.9371 66.6656 -13.5391 66.7144 -13.5178 66.7237C-16.0466 71.1058 -17.3524 74.7144 -17.8493 78.5726C-20.358 83.5119 -22.9159 90.1401 -22.9153 101.787C-23.5145 111.241 -20.8203 120.069 -18.4055 126.706L-18.0198 127.765L-15.7258 117.089L-12.9181 122.596L-11.1377 114.292L-10.6749 112.131L-8.54745 116.24L-7.92866 113.781C-7.41105 114.277 -6.439 114.668 -6.439 114.668C-6.439 114.668 -6.72351 115.664 -6.70395 116.293C-6.68606 116.878 -6.17907 117.491 -6.17907 117.491C-6.17907 117.491 -6.76208 118.334 -6.62569 118.885C-6.48986 119.435 -5.59103 119.747 -5.59103 119.747C-5.59103 119.747 -6.041 120.469 -5.98064 121.178C-5.90573 122.051 -4.86548 122.426 -4.86548 122.426C-4.86548 122.426 -4.73021 123.006 -4.19527 123.338C-3.65866 123.67 -1.50101 123.609 -1.50101 123.609C-1.50101 123.609 -1.23215 125.988 -0.551317 127.083C0.264784 128.393 2.99873 129.41 3.19605 129.314C3.39225 129.218 4.18264 128.829 4.39896 128.724C4.61528 128.618 4.85676 125.818 4.31511 124.589C3.98867 123.847 1.92159 122.104 1.92159 122.104C1.92159 122.104 2.19772 121.34 2.2212 120.834C2.26871 119.771 1.92214 118.97 1.92214 118.97C3.48112 117.498 5.62926 116.553 6.65722 116.449C7.68461 116.346 12.3056 117.088 13.0379 117.214C13.7713 117.339 14.6779 116.104 14.385 115.226C14.0916 114.347 13.6517 112.709 13.6517 112.709C13.4253 111.309 13.6304 110.228 14.2626 109.495C15.0128 108.625 16.4035 108.184 18.3985 108.184C19.0284 108.184 19.6606 108.351 20.3308 108.528C21.1715 108.748 21.7998 108.98 22.7568 108.883C22.9686 108.862 23.1889 108.829 23.4376 108.773C24.3672 108.532 24.9681 107.888 25.5321 107.06C25.1704 108.907 20.7696 114.72 17.7545 114.72C17.7545 114.72 16.9653 115.212 15.688 116.528C14.6092 117.639 13.4834 118.779 12.1793 119.116C10.9893 119.335 9.66562 118.235 9.66562 118.235C9.66562 118.235 8.81765 119.412 8.81765 121.504C8.81765 123.416 10.778 124.53 11.8786 125.126C11.636 128.126 12.1961 130.381 13.5449 131.829C14.5348 132.893 15.9362 133.476 17.6086 133.524C19.034 137.178 21.1598 140.6 26.749 141.229C27.0575 141.611 27.7618 142.662 28.5198 143.549C29.285 144.445 29.9111 145.113 30.3873 145.589C31.0425 146.275 31.422 146.554 31.4399 146.543L31.4444 146.54C31.4455 146.54 31.4494 146.543 31.4494 146.543C31.4678 146.554 31.8468 146.277 32.4997 145.593C32.976 145.115 33.6031 144.448 34.37 143.549C35.1275 142.662 35.8323 141.611 36.1414 141.229C41.7301 140.6 43.8558 137.178 45.2807 133.524C46.9526 133.476 48.355 132.893 49.3444 131.829C50.6932 130.381 51.2533 128.126 51.0113 125.126C52.1119 124.53 54.0717 123.416 54.0717 121.504C54.0717 119.412 53.2243 118.235 53.2243 118.235C53.2243 118.235 51.9006 119.335 50.7094 119.116C49.4064 118.779 48.2807 117.639 47.2024 116.528C45.9246 115.212 45.1359 114.72 45.1359 114.72C42.1197 114.72 37.7194 108.907 37.3583 107.06C37.9212 107.888 38.5227 108.532 39.4522 108.773C39.6702 108.823 39.8653 108.852 40.0531 108.872C40.0537 108.877 40.0548 108.879 40.0565 108.883C41.0146 108.98 41.6423 108.748 42.4824 108.528C43.1526 108.351 43.786 108.184 44.4159 108.184C46.4109 108.184 47.8011 108.625 48.5507 109.495C49.1829 110.228 49.3886 111.309 49.1616 112.709C49.1616 112.709 48.7223 114.347 48.4294 115.226C48.1348 116.104 49.0431 117.339 49.7754 117.214C50.5082 117.088 55.1287 116.346 56.1566 116.449C57.0174 116.536 64.6111 119.808 66.3607 119.62C67.4071 119.508 69.2187 118.959 70.3697 118.242C72.1025 117.16 72.7079 115.16 72.7079 115.16C73.0896 114.728 73.619 113.695 73.7727 113.118L74.0242 114.292L75.8046 122.596L78.6134 117.089L80.9058 127.765L81.292 126.706C83.7068 120.069 86.4016 111.241 85.8018 101.787Z" fill="#070606"/>
</g>
<mask id="mask1_114_2402" style="mask-type:alpha" maskUnits="userSpaceOnUse" x="26" y="0" width="11" height="11">
<path d="M26.4492 0.548584H36.5191V10.4297H26.4492V0.548584Z" fill="white"/>
</mask>
<g mask="url(#mask1_114_2402)">
<path fill-rule="evenodd" clip-rule="evenodd" d="M27.5582 10.4299H35.3978L33.9283 7.81631L36.5191 9.32251V1.64121L33.9311 3.15564L35.3984 0.548584H27.5884L29.044 3.16058L26.4492 1.64066V9.30934L29.0378 7.81411L27.5582 10.4299Z" fill="#070606"/>
</g>
<path fill-rule="evenodd" clip-rule="evenodd" d="M29.9772 59.2508L29.9543 59.5097L27.5938 74.9332C27.653 74.914 27.7117 74.8953 27.7715 74.8772V74.8651L27.9711 74.807C30.2092 74.1521 32.6022 74.1488 34.8375 74.7922C34.9951 74.8377 35.1466 74.8838 35.2942 74.9326L31.4361 49.7205L29.9772 59.2508Z" fill="white"/>
<path fill-rule="evenodd" clip-rule="evenodd" d="M36.8809 75.5899C39.38 76.8794 41.3812 78.8936 42.4857 81.2291L48.5299 69.8706C44.6562 71.7657 38.6047 74.7304 36.8809 75.5899Z" fill="white"/>
<path fill-rule="evenodd" clip-rule="evenodd" d="M42.9512 82.5427C43.3715 83.8454 43.6091 85.1953 43.6091 86.3071C43.6091 87.73 43.3894 89.0683 42.9562 90.2942C45.4073 89.8757 56.9093 87.872 64.2403 86.5935C56.9054 85.1898 45.3604 82.9854 42.9512 82.5427Z" fill="white"/>
<path fill-rule="evenodd" clip-rule="evenodd" d="M-1.35352 86.5934C5.97799 87.872 17.48 89.8751 19.9311 90.2942C19.4979 89.0704 19.2788 87.7315 19.2788 86.3071C19.2788 85.1936 19.5164 83.8432 19.9367 82.541C17.527 82.9842 5.9819 85.1892 -1.35352 86.5934Z" fill="white"/>
<path fill-rule="evenodd" clip-rule="evenodd" d="M14.3574 69.8708L20.4016 81.2293C21.5045 78.8965 23.5039 76.883 26.002 75.5923C24.2093 74.6977 17.747 71.5301 14.3574 69.8708Z" fill="white"/>
<path fill-rule="evenodd" clip-rule="evenodd" d="M20.5589 91.7002C20.1906 92.3803 19.3079 94.0473 17.2604 97.9757L14.375 103.088L26.2158 97.1491C24.6489 96.4113 23.2224 95.3138 22.0637 93.9485C21.4751 93.2536 20.9703 92.4994 20.5589 91.7002Z" fill="white"/>
<path fill-rule="evenodd" clip-rule="evenodd" d="M22.6035 91.7143L31.4649 76.3792L40.2475 91.7143H22.6035ZM39.8271 92.756C41.2386 90.9749 42.0832 88.7376 42.0832 86.3071C42.0832 81.5593 38.8651 77.5382 34.4649 76.2475C33.5007 75.9645 32.4833 75.8098 31.4274 75.8098C30.3844 75.8098 29.376 75.9618 28.4218 76.2393C28.4229 76.242 28.423 76.2437 28.4241 76.2475C24.0244 77.5382 20.8047 81.5593 20.8047 86.3071C20.8047 88.7376 21.6493 90.9749 23.0607 92.756C25.0143 95.1957 28.0361 96.8061 31.4274 96.8061C34.8377 96.8061 37.8758 95.2188 39.8271 92.756Z" fill="#FF6600"/>
<path fill-rule="evenodd" clip-rule="evenodd" d="M31.4617 79.1731L25.1816 90.3314H37.6753L31.4617 79.1731Z" fill="#0B4DA0"/>
<path fill-rule="evenodd" clip-rule="evenodd" d="M27.5488 97.6812L31.4594 124.034L35.2537 97.6971C32.7719 98.5099 30.0296 98.5045 27.5488 97.6812Z" fill="white"/>
<path fill-rule="evenodd" clip-rule="evenodd" d="M36.8477 97.047L40.7526 99.105L48.4302 103.071L45.5587 97.9838C44.7734 96.4771 43.988 94.9462 43.3603 93.7219C42.9416 92.9058 42.5604 92.162 42.3239 91.7095C41.9131 92.5054 41.41 93.2563 40.8242 93.9485C39.7342 95.2364 38.3681 96.2999 36.8477 97.047Z" fill="white"/>
<path fill-rule="evenodd" clip-rule="evenodd" d="M23.0082 28.3333C22.3424 28.3333 21.8008 28.8637 21.8008 29.5158C21.8008 30.1691 22.3424 30.7006 23.0082 30.7006C23.6733 30.7006 24.2139 30.1691 24.2139 29.5158C24.2139 28.8637 23.6733 28.3333 23.0082 28.3333Z" fill="#FFDB00"/>
<path fill-rule="evenodd" clip-rule="evenodd" d="M31.1172 25.0549L31.4436 29.1594L31.7689 25.0549H31.1172Z" fill="#FFDB00"/>
<path fill-rule="evenodd" clip-rule="evenodd" d="M31.1268 24.1126H31.7713L32.1995 22.421L31.7713 20.7305H31.1268L30.6992 22.421L31.1268 24.1126Z" fill="#FFDB00"/>
<path fill-rule="evenodd" clip-rule="evenodd" d="M40.0706 33.4229C40.8208 33.4229 41.4301 32.8239 41.4301 32.0889C41.4301 31.688 41.245 31.3336 40.9588 31.0901C40.6536 31.2914 40.2864 31.4082 39.8912 31.4082C39.5905 31.4082 39.3065 31.3391 39.0522 31.2179C38.8426 31.451 38.7129 31.7532 38.7129 32.0889C38.7129 32.8239 39.3222 33.4229 40.0706 33.4229Z" fill="#FFDB00"/>
<path fill-rule="evenodd" clip-rule="evenodd" d="M30.4963 31.0974C30.2335 31.3596 30.0703 31.7183 30.0703 32.1149C30.0703 32.9157 30.7349 33.5679 31.551 33.5679C32.3666 33.5679 33.0306 32.9157 33.0306 32.1149C33.0306 31.3135 32.3666 30.6619 31.551 30.6619C31.1441 30.6619 30.7757 30.8237 30.508 31.0848C30.5046 31.0892 30.5002 31.093 30.4963 31.0974Z" fill="#FFDB00"/>
<path fill-rule="evenodd" clip-rule="evenodd" d="M24.7109 36.2841L25.3264 36.5321C27.0709 36.7827 28.839 36.7827 31.2867 36.7827H31.6165C34.0296 36.7827 35.9363 36.7827 37.801 36.4904L38.2817 36.2957C36.0671 36.0242 33.8189 35.8865 31.588 35.8865H31.3722C29.1738 35.8865 26.8887 36.0236 24.7109 36.2841Z" fill="#FFDB00"/>
<path fill-rule="evenodd" clip-rule="evenodd" d="M35.5195 32.0919C35.5195 32.7436 36.0606 33.2745 36.7264 33.2745C37.3904 33.2745 37.9315 32.7436 37.9315 32.0919C37.9315 31.4387 37.3904 30.9077 36.7264 30.9077C36.0606 30.9077 35.5195 31.4387 35.5195 32.0919Z" fill="#FFDB00"/>
<path fill-rule="evenodd" clip-rule="evenodd" d="M22.9628 33.2643C23.7118 33.2884 24.3406 32.7103 24.3652 31.9747C24.377 31.6418 24.2585 31.3385 24.06 31.0993C23.7565 31.2946 23.396 31.4081 23.008 31.4081C22.6184 31.4081 22.2562 31.2935 21.9516 31.0977C21.7727 31.3138 21.6598 31.5869 21.6492 31.8864C21.6246 32.6214 22.2137 33.2401 22.9628 33.2643Z" fill="#FFDB00"/>
<path fill-rule="evenodd" clip-rule="evenodd" d="M37.4653 30.1356C37.6425 30.2003 37.8107 30.2886 37.965 30.3972C37.9203 30.3056 37.8834 30.2102 37.8537 30.1131C37.7224 30.1186 37.5933 30.1257 37.4653 30.1356ZM24.8285 30.5919C24.8716 30.6479 24.9118 30.7066 24.9493 30.7669C25.1717 30.502 25.4563 30.2963 25.7743 30.1658C25.5373 30.14 25.2953 30.123 25.046 30.1125C24.9945 30.2798 24.9219 30.44 24.8285 30.5919ZM31.6156 34.8621C34.4954 34.8621 37.3781 35.0853 40.1869 35.5258L40.6341 35.3464V35.2521C40.6346 34.9197 40.6346 34.516 40.6352 34.256C39.7749 34.4743 38.8493 34.1622 38.3004 33.4903C37.899 33.9247 37.3289 34.1775 36.7274 34.1775C35.5541 34.1775 34.5994 33.2423 34.5994 32.0921C34.5994 31.4882 34.8621 30.9435 35.2813 30.5618C34.7699 30.7318 34.2718 30.9523 33.7721 31.2266C33.8912 31.5107 33.9515 31.8085 33.9515 32.1151C33.9515 33.414 32.875 34.471 31.5513 34.471C30.2277 34.471 29.1505 33.414 29.1505 32.1151C29.1505 31.8403 29.1986 31.5721 29.2942 31.3154C28.9493 31.118 28.6044 30.9463 28.2567 30.7993C28.5435 31.1553 28.7145 31.6045 28.7145 32.0921C28.7145 33.2423 27.7603 34.1775 26.5876 34.1775C25.8833 34.1775 25.2265 33.8281 24.8341 33.2654C24.3914 33.8523 23.686 34.183 22.933 34.1666C22.6457 34.1572 22.43 34.1018 22.2623 34.0492L22.2617 35.2992L22.7939 35.5132C25.5725 35.0831 28.5759 34.8747 31.4434 34.8621L31.5122 34.8615V34.8621H31.6156Z" fill="#FFDB00"/>
<path fill-rule="evenodd" clip-rule="evenodd" d="M27.7942 32.0919C27.7942 31.4387 27.2537 30.9077 26.5868 30.9077C25.9233 30.9077 25.3828 31.4387 25.3828 32.0919C25.3828 32.7436 25.9233 33.2745 26.5868 33.2745C27.2537 33.2745 27.7942 32.7436 27.7942 32.0919Z" fill="#FFDB00"/>
<path fill-rule="evenodd" clip-rule="evenodd" d="M20.5197 21.9273C20.8171 22.0068 21.1123 22.0952 21.3979 22.1911L21.8943 21.709L21.1268 19.9033L20.0625 20.8736L20.5197 21.9273Z" fill="#FFDB00"/>
<path fill-rule="evenodd" clip-rule="evenodd" d="M39.502 20.2382L40.3835 21.1038L41.137 19.3283L40.2309 18.5022L39.502 20.2382Z" fill="#FFDB00"/>
<path fill-rule="evenodd" clip-rule="evenodd" d="M41 21.7087L41.4986 22.1936C41.7831 22.0976 42.0777 22.0087 42.374 21.9287L42.8329 20.8739L41.7686 19.9036L41 21.7087Z" fill="#FFDB00"/>
<path fill-rule="evenodd" clip-rule="evenodd" d="M21.7559 19.3283L22.5099 21.1032L23.3914 20.2382L22.6625 18.5022L21.7559 19.3283Z" fill="#FFDB00"/>
<path fill-rule="evenodd" clip-rule="evenodd" d="M23.3206 22.9845L23.3373 22.9927C23.4737 23.0574 23.6101 23.1227 23.7465 23.1935L24.4005 22.6395L23.7252 21.0312L22.8477 21.893L23.3206 22.9845Z" fill="#FFDB00"/>
<path fill-rule="evenodd" clip-rule="evenodd" d="M22.3763 22.6401L22.2578 22.3625L22.0918 22.5249C22.1868 22.5622 22.2813 22.6012 22.3763 22.6401Z" fill="#FFDB00"/>
<path fill-rule="evenodd" clip-rule="evenodd" d="M40.5254 22.6401C40.6204 22.6012 40.7149 22.5622 40.8094 22.5249H40.8043L40.6383 22.3625L40.5254 22.6401Z" fill="#FFDB00"/>
<path fill-rule="evenodd" clip-rule="evenodd" d="M36.1445 24.1075L36.7342 24.6867C36.7421 24.6812 36.7499 24.6763 36.7572 24.6708L37.5302 22.8634L36.7846 22.2239L36.1445 24.1075Z" fill="#FFDB00"/>
<path fill-rule="evenodd" clip-rule="evenodd" d="M35.4889 26.8449L36.1681 26.8669C36.2089 26.868 40.276 26.9947 41.0781 26.8691C41.2933 26.8345 41.4554 26.7912 41.5761 26.7478L38.0742 25.998L43.5331 22.5874C40.8584 23.097 38.1044 24.5626 35.4889 26.8449ZM32.457 29.9363C32.7203 30.0416 32.9618 30.1925 33.1714 30.3811C34.6231 29.5699 36.1055 29.1563 37.8103 29.0861C37.8534 28.8859 37.926 28.6928 38.025 28.5146L35.4828 26.8499C34.4481 27.7538 33.4352 28.7855 32.457 29.9363Z" fill="#FFDB00"/>
<path fill-rule="evenodd" clip-rule="evenodd" d="M43.2246 21.8081C43.4342 21.7664 43.6444 21.7225 43.8523 21.6907L43.4342 21.3145L43.2246 21.8081Z" fill="#FFDB00"/>
<path fill-rule="evenodd" clip-rule="evenodd" d="M35.5195 25.717C35.7476 25.5294 35.9773 25.35 36.2076 25.1745L35.8231 24.8037L35.5195 25.717Z" fill="#FFDB00"/>
<path fill-rule="evenodd" clip-rule="evenodd" d="M39.8921 30.7001C40.5573 30.7001 41.0972 30.1692 41.0972 29.5159C41.0972 28.8637 40.5573 28.3328 39.8921 28.3328C39.2252 28.3328 38.6836 28.8637 38.6836 29.5159C38.6836 30.1692 39.2252 30.7001 39.8921 30.7001Z" fill="#FFDB00"/>
<path fill-rule="evenodd" clip-rule="evenodd" d="M37.8223 24.0508C38.0604 23.9011 38.298 23.7557 38.5361 23.6191L38.1386 23.2834L37.8223 24.0508Z" fill="#FFDB00"/>
<path fill-rule="evenodd" clip-rule="evenodd" d="M37.0605 21.4092L37.8532 22.0899L38.5519 20.4257L37.6832 19.5728L37.0605 21.4092Z" fill="#FFDB00"/>
<path fill-rule="evenodd" clip-rule="evenodd" d="M38.4941 22.6397L39.1515 23.1948C39.2717 23.1334 39.3924 23.0752 39.5126 23.0171L39.573 22.988L40.047 21.8932L39.1694 21.0315L38.4941 22.6397Z" fill="#FFDB00"/>
<path fill-rule="evenodd" clip-rule="evenodd" d="M59.0821 84.2706L63.1184 85.027C62.4968 82.0793 61.7037 79.7855 61.0938 79.1761C60.2721 79.13 59.4392 79.0208 58.7517 78.6309L58.7428 78.8289H58.475C58.2196 78.8289 57.9719 78.8239 57.7344 78.8135C58.2956 80.8397 58.769 82.7567 59.0821 84.2706Z" fill="#FFDB00"/>
<path fill-rule="evenodd" clip-rule="evenodd" d="M54.6406 92.9579C54.971 94.5343 56.1269 97.9444 56.7709 99.7945C57.36 98.6158 57.7558 96.9088 58.0425 95.4915C58.1622 94.9002 58.3913 90.8961 58.402 88.9785L54.9447 89.5994C54.8648 90.7826 54.6719 92.6552 54.6406 92.9579Z" fill="#FFDB00"/>
<path fill-rule="evenodd" clip-rule="evenodd" d="M59.6121 88.7613C59.6317 90.3717 59.5048 92.252 59.3762 93.8936C59.3567 94.1366 59.3248 94.4383 59.2913 94.7542C59.2208 95.4218 59.1337 96.2517 59.1711 96.5462C59.488 98.709 59.924 100.546 60.6747 102.883C60.7301 103.057 60.7882 103.251 60.8475 103.456C61.5646 102.958 62.3433 102.575 63.1711 102.313C63.3075 101.838 63.4338 101.318 63.5479 100.765C64.2662 97.2746 64.3159 92.8312 63.6882 88.255L63.6552 88.0339L59.6121 88.7613Z" fill="#FFDB00"/>
<path fill-rule="evenodd" clip-rule="evenodd" d="M50.3691 97.0349C52.4206 97.9783 54.1875 99.0353 55.6419 100.19C55.3899 99.4736 55.0975 98.6481 54.9818 98.3217C53.7375 97.7529 52.2417 97.3338 50.3691 97.0349Z" fill="#FFDB00"/>
<path fill-rule="evenodd" clip-rule="evenodd" d="M44.041 91.5614L45.8957 95.192C46.9471 94.6951 47.9851 93.3221 47.818 90.8818L44.041 91.5614Z" fill="#FFDB00"/>
<path fill-rule="evenodd" clip-rule="evenodd" d="M49.7754 90.5301C50.5999 92.3336 51.1656 94.2495 51.544 95.6795C52.1248 95.086 53.0024 93.8683 53.4736 92.757C53.5658 91.9244 53.6575 90.8312 53.7206 89.8203L49.7754 90.5301Z" fill="#FFDB00"/>
<path fill-rule="evenodd" clip-rule="evenodd" d="M64.4021 85.2672L68.6184 86.0576C68.1517 84.1044 67.2657 80.9823 66.0214 79.1157C64.9845 78.9857 64.0198 78.7137 63.0896 78.2886C63.1142 78.576 63.1304 78.8645 63.1327 78.9155L63.1483 79.204L62.8543 79.2046C62.8543 79.2046 62.719 79.2046 62.5586 79.2046C63.2048 80.4058 63.8627 82.5609 64.4021 85.2672Z" fill="#FFDB00"/>
<path fill-rule="evenodd" clip-rule="evenodd" d="M64.8652 87.8163C67.199 90.3783 68.8725 90.7535 69.4812 90.7969C69.4214 90.2538 69.2437 89.2204 69.1677 88.7959L69.1671 88.7926C69.1654 88.7844 69.0369 88.0209 68.8485 87.0994L64.8652 87.8163Z" fill="#FFDB00"/>
<path fill-rule="evenodd" clip-rule="evenodd" d="M65.0701 89.5999C65.5022 93.6424 65.4267 97.2104 64.842 100.487C64.7509 100.998 64.6464 101.505 64.5312 101.996C64.7627 101.961 64.9991 101.935 65.2389 101.919L65.657 100.181L65.7649 100.053L65.2182 100.252L66.1288 95.3126L66.5777 95.6993L66.3971 95.1656L69.3217 95.685C69.3211 95.5259 69.3205 95.3674 69.3183 95.2111C69.2965 93.7663 69.2255 93.0061 69.1355 92.0435L69.1249 91.9327C67.7873 91.6913 66.8387 91.1527 65.0701 89.5999Z" fill="#FFDB00"/>
<path fill-rule="evenodd" clip-rule="evenodd" d="M54.7701 83.4623L57.8008 84.03C57.4777 82.5441 57.0043 80.672 56.4492 78.6897C55.8495 78.5948 55.3363 78.4511 54.8964 78.2537L54.9333 78.5531L54.6443 78.5767C54.4643 78.5915 54.0725 78.625 53.7812 78.6546C54.1977 80.0418 54.5521 81.7636 54.7701 83.4623Z" fill="#FFDB00"/>
<path fill-rule="evenodd" clip-rule="evenodd" d="M44.0508 81.4536L47.233 82.0498C47.1771 81.0839 47.0469 79.6386 46.7523 78.6222C46.4521 78.5668 46.0245 78.4379 45.6998 78.321L44.0508 81.4536Z" fill="#FFDB00"/>
<path fill-rule="evenodd" clip-rule="evenodd" d="M48.4584 82.2799L50.1185 82.5904C50.0079 81.4544 49.7222 79.3536 49.5909 78.5934C49.2633 78.5385 48.9464 78.4618 48.5394 78.2297V78.2363L48.54 78.3828L48.417 78.4645C48.2968 78.5451 48.1548 78.572 47.9922 78.5918C48.2907 79.7815 48.4109 81.3173 48.4584 82.2799Z" fill="#FFDB00"/>
<path fill-rule="evenodd" clip-rule="evenodd" d="M24.3652 23.6194C24.6034 23.756 24.8404 23.9013 25.0785 24.0511L24.7565 23.2837L24.3652 23.6194Z" fill="#FFDB00"/>
<path fill-rule="evenodd" clip-rule="evenodd" d="M19.0488 21.6907C19.2579 21.7225 19.4681 21.7664 19.6771 21.8081L19.4619 21.3145L19.0488 21.6907Z" fill="#FFDB00"/>
<path fill-rule="evenodd" clip-rule="evenodd" d="M2.45703 107.847C2.5638 107.881 2.68733 107.915 2.81981 107.946C3.2245 108.038 4.20271 108.007 4.72367 107.838C5.16582 107.696 5.82429 107.319 6.16247 106.937C7.10993 105.979 7.69853 104.864 8.32179 103.682C8.55376 103.242 8.78574 102.801 9.03728 102.37C9.69072 101.251 10.3615 100.104 11.2251 99.0029C8.44085 100.456 6.30389 102.023 4.96403 104.419C4.89696 104.536 4.8092 104.702 4.70746 104.893C4.45536 105.368 4.10936 106.02 3.82037 106.417C3.55039 106.787 2.8662 107.457 2.45703 107.847Z" fill="#FFDB00"/>
<path fill-rule="evenodd" clip-rule="evenodd" d="M7.9179 98.3215L7.82344 98.5897C7.68928 98.9687 7.48302 99.5529 7.29297 100.092C8.52886 99.068 10.274 98.0456 12.5065 97.0391C10.6451 97.338 9.15715 97.7554 7.9179 98.3215Z" fill="#FFDB00"/>
<path fill-rule="evenodd" clip-rule="evenodd" d="M4.49414 88.978C4.50085 90.8457 4.73562 94.8937 4.85691 95.491C5.14423 96.9083 5.53998 98.6158 6.12914 99.7946C7.24597 96.5836 8.01624 94.1132 8.25939 92.9574C8.22865 92.6541 8.03636 90.7782 7.95811 89.6011L4.49414 88.978Z" fill="#FFDB00"/>
<path fill-rule="evenodd" clip-rule="evenodd" d="M15.2917 91.199C15.2375 93.1259 16.0273 94.3063 16.8837 94.8301L18.4449 91.7661L15.2917 91.199Z" fill="#FFDB00"/>
<path fill-rule="evenodd" clip-rule="evenodd" d="M5.01533 100.396C4.24506 101.221 3.67602 102.278 3.19698 103.756C3.08239 104.108 2.66596 105.396 2.36914 106.315C2.57205 106.117 2.77104 105.899 2.90352 105.688V105.688C3.06115 105.438 3.29704 104.994 3.5251 104.566C3.70733 104.223 3.8834 103.892 4.01085 103.676C4.52622 102.785 4.89235 102.297 5.62573 101.548C5.47313 101.303 5.20761 100.852 5.01533 100.396Z" fill="#FFDB00"/>
<path fill-rule="evenodd" clip-rule="evenodd" d="M10.3613 78.7418C9.96386 80.0072 9.61562 81.6127 9.38867 83.2247L11.5435 82.8216C11.6151 82.0213 11.8141 80.6089 11.9627 79.553C12.0147 79.1877 12.0594 78.8701 12.0891 78.6458C11.927 78.6266 11.7162 78.5953 11.5022 78.547L11.2774 78.4966L11.2802 78.4165C11.0175 78.5454 10.6989 78.6672 10.3613 78.7418Z" fill="#FFDB00"/>
<path fill-rule="evenodd" clip-rule="evenodd" d="M16.1501 78.6217C15.8706 79.586 15.7392 80.9485 15.6777 82.0477L18.8505 81.4531L17.2026 78.3206C16.8773 78.4379 16.4502 78.5668 16.1501 78.6217Z" fill="#FFDB00"/>
<path fill-rule="evenodd" clip-rule="evenodd" d="M9.42704 92.7571C9.8977 93.8684 10.7753 95.0861 11.3572 95.6796C11.735 94.2452 12.3007 92.3255 13.1207 90.5297L9.17383 89.8193C9.23476 90.7754 9.3281 91.8669 9.42704 92.7571Z" fill="#FFDB00"/>
<path fill-rule="evenodd" clip-rule="evenodd" d="M6.4518 78.6892C5.83973 80.8711 5.37969 82.6648 5.08008 84.0311L8.11699 83.4617C8.32828 81.8063 8.68714 80.0835 9.11867 78.6541C8.82744 78.6245 8.43616 78.591 8.25617 78.5762L7.96662 78.5526L8.00407 78.2537C7.56528 78.4506 7.05214 78.5943 6.4518 78.6892Z" fill="#FFDB00"/>
<path fill-rule="evenodd" clip-rule="evenodd" d="M51.6758 99.0039C52.5545 100.126 53.2398 101.302 53.8625 102.37C54.1403 102.846 54.3902 103.338 54.6328 103.813C55.2096 104.946 55.7546 106.016 56.6546 106.925C56.9033 107.205 57.2946 107.465 57.6479 107.643C57.8569 107.093 58.2555 106.358 58.6099 105.787C58.4383 105.491 58.2678 105.169 58.123 104.898C58.0207 104.705 57.9318 104.537 57.8653 104.422L57.8636 104.419C56.5081 101.994 54.4036 100.434 51.6758 99.0039Z" fill="#FFDB00"/>
<path fill-rule="evenodd" clip-rule="evenodd" d="M63.083 115.153C63.841 115.005 63.8907 113.76 63.4128 112.783C63.0853 112.113 62.0813 110.643 62.0813 110.643L58.2121 109.724C58.192 109.95 58.1797 110.179 58.1797 110.411C58.1797 111.171 58.3552 112.093 58.5699 112.785C60.1585 112.749 62.325 115.302 63.083 115.153Z" fill="#FFDB00"/>
<path fill-rule="evenodd" clip-rule="evenodd" d="M67.5535 96.1841L68.1415 98.0051L66.7044 96.7946L66.2891 99.055L68.0655 98.4417L66.8285 100.007L69.2226 100.431L68.6278 98.5405L70.0627 99.7444L70.4814 97.4703L68.7061 98.1071L69.9 96.5999L67.5535 96.1841Z" fill="#FFDB00"/>
<path fill-rule="evenodd" clip-rule="evenodd" d="M73.1797 79.2713C75.8711 83.0456 76.8242 87.0206 77.462 89.6809C77.5732 90.1455 77.6738 90.5634 77.7705 90.9238C78.0226 91.8634 78.5906 92.3861 79.14 92.8918L79.3636 93.0997C80.7521 94.4364 82.5548 95.1264 83.8287 95.4758C84.0098 95.5247 84.3553 95.5812 84.6113 95.6168C84.3357 92.6028 83.8544 89.8624 83.1412 87.2482L83.0741 86.9981C83.0338 86.8478 82.9942 86.6992 82.9522 86.5549C82.3681 84.5474 81.6358 82.6084 80.7135 80.6272C80.6068 80.4731 80.4246 80.1281 80.0131 79.3157C79.3362 79.4539 78.7471 79.5187 78.1741 79.5187C76.841 79.5187 75.5587 79.1643 74.2736 78.437C74.3094 78.6103 74.3351 78.7579 74.3446 78.8133L74.391 79.0831L74.1154 79.1287C74.0858 79.1336 73.5984 79.2137 73.1797 79.2713Z" fill="#FFDB00"/>
<path fill-rule="evenodd" clip-rule="evenodd" d="M-0.759177 88.0332L-0.787686 88.2542C-1.41541 92.8321 -1.3651 97.275 -0.647382 100.765L-0.607137 100.95C-0.483604 101.52 -0.314793 102.303 -0.0777882 102.969C0.252566 103.903 0.917745 105.156 1.31965 105.881C1.36995 105.696 1.42306 105.495 1.4784 105.285C1.69528 104.469 1.94123 103.544 2.15196 102.883C2.80428 100.853 3.37332 98.9743 3.72995 96.5416C3.76684 96.2526 3.67964 95.4243 3.60977 94.759C3.57623 94.4414 3.54437 94.1375 3.5248 93.894C3.36717 91.8876 3.266 90.2344 3.28668 88.7611L-0.759177 88.0332Z" fill="#FFDB00"/>
<path fill-rule="evenodd" clip-rule="evenodd" d="M5.4934 108.722L5.10547 111.385C6.38105 110.97 8.08871 110.188 8.24523 109.462C9.1653 105.187 11.5572 101.476 15.3548 98.4301L16.1804 96.8389C15.541 97.0654 14.949 97.2908 14.385 97.5229C12.3548 99.0685 11.2531 100.958 10.0865 102.959C9.8819 103.31 9.68459 103.671 9.48503 104.034C8.77514 105.327 8.0412 106.665 6.87965 107.812C6.51017 108.189 6.06131 108.425 5.4934 108.722Z" fill="#FFDB00"/>
<path fill-rule="evenodd" clip-rule="evenodd" d="M27.0712 24.8037L26.6934 25.1745C26.9225 25.35 27.1528 25.5288 27.3809 25.717L27.0712 24.8037Z" fill="#FFDB00"/>
<path fill-rule="evenodd" clip-rule="evenodd" d="M26.1361 24.6658L26.1573 24.6801C26.159 24.6817 26.1612 24.6828 26.1629 24.6845L26.752 24.1069L26.1115 22.2239L25.3652 22.8629L26.1361 24.6658Z" fill="#FFDB00"/>
<path fill-rule="evenodd" clip-rule="evenodd" d="M13.3095 78.5935C13.1787 79.3559 12.8953 81.4556 12.7852 82.5893L14.4492 82.2772C14.4973 81.3069 14.6164 79.7634 14.9087 78.5918C14.7466 78.5715 14.6046 78.5452 14.4844 78.4657L14.3609 78.3834L14.3615 78.2369V78.2292C13.954 78.4618 13.6365 78.5386 13.3095 78.5935Z" fill="#FFDB00"/>
<path fill-rule="evenodd" clip-rule="evenodd" d="M21.3711 26.7375C21.4969 26.7868 21.65 26.8351 21.8306 26.8702C22.3404 26.9684 25.5422 26.9009 26.7333 26.8664L27.4164 26.8466C24.801 24.5632 22.0447 23.097 19.3672 22.5869L24.8261 25.9975L21.3711 26.7375ZM25.0866 29.0856C26.8446 29.1575 28.3678 29.5935 29.8558 30.4503C30.043 30.2666 30.2605 30.1146 30.4986 30C29.5042 28.8229 28.4734 27.7698 27.4192 26.8494L24.8736 28.5163C24.9715 28.6934 25.0441 28.886 25.0866 29.0856Z" fill="#FFDB00"/>
<path fill-rule="evenodd" clip-rule="evenodd" d="M-3.1212 79.116C-4.36268 80.9788 -5.2481 84.0992 -5.71484 86.0519L-1.53483 85.2692C-1.01331 82.6358 -0.330802 80.4374 0.340527 79.2049C0.18066 79.2049 0.0459461 79.2043 0.0459461 79.2043L-0.248075 79.2038L-0.232422 78.9158C-0.229628 78.8643 -0.213418 78.5757 -0.188823 78.2883C-1.12007 78.714 -2.08486 78.986 -3.1212 79.116Z" fill="#FFDB00"/>
<path fill-rule="evenodd" clip-rule="evenodd" d="M1.80671 79.1757C1.17507 79.7994 0.393623 82.0461 -0.228516 85.025L3.82517 84.2664C4.13763 82.7421 4.60941 80.8262 5.16615 78.8131C4.92914 78.8236 4.68152 78.8285 4.42551 78.8285H4.15664L4.14881 78.6316C3.46127 79.0205 2.6284 79.1302 1.80671 79.1757Z" fill="#FFDB00"/>
<path fill-rule="evenodd" clip-rule="evenodd" d="M24.3418 20.4257L25.0405 22.0904L25.8337 21.4092L25.2104 19.5728L24.3418 20.4257Z" fill="#FFDB00"/>
<path fill-rule="evenodd" clip-rule="evenodd" d="M51.3533 82.8219L53.5328 83.2305C53.3108 81.6837 52.9481 80.0431 52.5383 78.7415C52.2013 78.6675 51.8827 78.5457 51.6194 78.4163L51.6222 78.4969L51.3975 78.5474C51.1834 78.5956 50.9726 78.6263 50.8105 78.6455C50.8407 78.8715 50.8854 79.1918 50.9369 79.5599C51.0856 80.618 51.284 82.0326 51.3533 82.8219Z" fill="#FFDB00"/>
<path fill-rule="evenodd" clip-rule="evenodd" d="M83.7044 96.6892C82.786 96.4911 81.7782 96.1072 80.7793 95.5779C80.6993 95.6196 80.6177 95.6547 80.5339 95.681C81.0627 104.836 80.6814 111.17 79.3008 116.183L81.0649 124.395C83.0331 118.695 85.3578 110.477 84.8089 101.807C84.8089 100.108 84.7502 98.4724 84.6295 96.8148C84.3534 96.7857 83.9123 96.7347 83.7044 96.6892Z" fill="#FFDB00"/>
<path fill-rule="evenodd" clip-rule="evenodd" d="M15.6094 77.4692C15.8743 77.4747 16.2567 77.439 16.6412 77.2542L15.952 75.9443C15.8207 76.3771 15.6832 76.9163 15.6094 77.4692Z" fill="#FFDB00"/>
<path fill-rule="evenodd" clip-rule="evenodd" d="M2.28046 66.929C-1.71174 69.864 -3.2886 76.0287 -3.56921 77.2595C-3.63964 77.6062 -3.69106 77.8448 -3.72852 78.011C-2.30145 77.9216 -1.19748 77.5722 0.0792174 76.8147L0.115549 76.6589C0.900349 73.2456 2.51579 69.9562 4.48673 67.7221C3.91378 67.8576 3.39952 67.8159 2.95458 67.597C2.73658 67.4906 2.4666 67.2921 2.28046 66.929Z" fill="#FFDB00"/>
<path fill-rule="evenodd" clip-rule="evenodd" d="M12.3145 77.4689C13.0965 77.5561 14.0311 77.3268 14.4084 76.9352C14.6012 76.2002 14.8768 75.1997 15.144 74.4088L14.149 72.5181C13.5543 73.7977 12.7918 75.5338 12.3145 77.4689Z" fill="#FFDB00"/>
<path fill-rule="evenodd" clip-rule="evenodd" d="M-0.664062 65.8939V65.9438C-0.664062 66.0552 -0.634438 66.0733 -0.600341 66.0941C-0.320854 66.2642 0.677475 66.234 2.28844 65.4644C2.84294 64.7294 4.36838 62.9216 5.28901 61.83C5.35833 61.7483 5.42429 61.6704 5.48577 61.5969C4.45335 61.7637 3.10398 61.7889 2.50364 61.637C0.730576 63.5085 -0.418114 65.0514 -0.664062 65.8939Z" fill="#FFDB00"/>
<path fill-rule="evenodd" clip-rule="evenodd" d="M0.972656 59.0032C1.52045 59.0559 2.69486 58.9813 4.14651 58.43C4.80275 57.8327 5.3757 57.344 5.8212 57.0017C5.72561 56.813 5.61494 56.6452 5.48973 56.5009C5.36452 56.3556 5.21415 56.225 5.03249 56.1033C4.26613 56.4346 3.19905 57.1153 2.0062 58.0351C2.00676 58.0357 1.374 58.6275 0.972656 59.0032Z" fill="#FFDB00"/>
<path fill-rule="evenodd" clip-rule="evenodd" d="M9.33203 77.5762C10.2834 77.7259 10.9184 77.2657 11.156 77.0502C11.7244 75.1315 12.5249 73.0384 13.4176 71.1323L12.6523 69.6782C11.5959 71.5393 10.2096 74.4234 9.43432 77.0705L9.33203 77.5762Z" fill="#FFDB00"/>
<path fill-rule="evenodd" clip-rule="evenodd" d="M9.48633 67.3404C9.56514 67.4073 9.8614 67.5126 10.322 67.5126C10.5176 67.5126 10.7133 67.4934 10.9039 67.4556L10.8994 67.4534C10.8189 67.4056 10.1834 66.9701 9.99444 66.8308C9.94972 66.8687 9.8614 66.9603 9.76693 67.0584C9.65514 67.1753 9.55396 67.28 9.48633 67.3404Z" fill="#FFDB00"/>
<path fill-rule="evenodd" clip-rule="evenodd" d="M6.22995 67.5151C4.45073 69.2605 2.63183 71.6361 1.2534 76.7586C1.14719 77.153 1.09465 77.6472 1.05664 78.0174C2.55246 77.9971 3.97504 77.8397 4.3367 76.7728C5.35962 73.2629 6.40435 70.154 8.70732 67.9051C8.66428 67.8695 8.62739 67.8289 8.59385 67.7839C7.89457 67.8722 6.86103 67.9128 6.22995 67.5151Z" fill="#FFDB00"/>
<path fill-rule="evenodd" clip-rule="evenodd" d="M9.87418 68.3606C7.574 70.4323 6.61089 73.2807 5.50692 77.0643C5.46611 77.2168 5.41189 77.451 5.375 77.6331C6.6517 77.5749 7.63661 77.2398 8.30738 76.6353C9.17882 73.6816 10.5131 70.6637 11.9077 68.4845L11.5612 68.2964C10.877 68.4467 10.2196 68.3902 9.89542 68.3622C9.88816 68.3617 9.88089 68.3611 9.87418 68.3606Z" fill="#FFDB00"/>
<path fill-rule="evenodd" clip-rule="evenodd" d="M-2.41211 57.7815C-1.64352 57.9603 0.0244598 57.7738 0.650511 57.5818C1.68629 56.7481 2.64661 56.0663 3.47165 55.5776C3.238 55.549 2.99094 55.5342 2.73213 55.5337C1.3224 55.7136 -0.502653 56.5089 -2.41211 57.7815Z" fill="#FFDB00"/>
<path fill-rule="evenodd" clip-rule="evenodd" d="M7.69522 65.064C7.16587 65.7052 6.89197 66.1868 6.75391 66.4884C6.78186 66.5702 7.11389 66.7205 7.43921 66.772C7.92216 66.8197 8.73324 66.7907 8.97136 66.5691C9.01664 66.5285 9.058 66.4884 9.09601 66.4511C8.82155 66.206 8.55157 65.9295 8.26873 65.6404C8.08147 65.4479 7.89086 65.2532 7.69522 65.064Z" fill="#FFDB00"/>
<path fill-rule="evenodd" clip-rule="evenodd" d="M-0.130384 59.8198C-1.19411 60.7649 -5.01917 64.3368 -5.15556 65.504C-5.1796 65.8221 -5.03259 66.0048 -4.99458 66.0322L-5.1578 66.2549L-4.99402 66.0328C-4.54796 66.3493 -2.61726 65.7536 -1.80228 65.4919C-1.4082 64.2743 0.0417805 62.3205 2.12005 60.2137L2.18321 60.15C1.3917 60.2515 0.395052 60.2619 -0.130384 59.8198Z" fill="#FFDB00"/>
<path fill-rule="evenodd" clip-rule="evenodd" d="M3.64648 60.5464C4.26415 60.5887 5.46148 60.5239 6.14119 60.2299C6.23118 59.4801 6.2418 58.8192 6.17417 58.2559C5.51961 58.8208 4.30048 59.9283 3.64648 60.5464Z" fill="#FFDB00"/>
<path fill-rule="evenodd" clip-rule="evenodd" d="M3.26658 66.2162C3.2459 66.2821 3.25037 66.3353 3.28112 66.3885C3.34596 66.5009 3.50303 66.5788 3.58855 66.5964C3.87698 66.6556 4.41136 66.7637 5.7965 65.7758C5.896 65.6354 6.02233 65.4697 6.16263 65.2871C6.40802 64.9662 6.68136 64.6086 6.92116 64.2411C6.46951 63.7249 6.24983 63.2757 6.10338 62.9482C4.94183 64.0244 3.60309 65.5037 3.26658 66.2162Z" fill="#FFDB00"/>
<path fill-rule="evenodd" clip-rule="evenodd" d="M-6.39844 57.2959C-5.7299 57.6124 -4.59016 57.4363 -3.65835 57.1297L-3.50798 57.0809C-1.72094 55.8363 0.0817509 54.9489 1.62452 54.5512C1.39478 54.2106 1.21703 53.865 1.10859 53.5491C-0.646592 54.0844 -3.52699 55.341 -6.39844 57.2959Z" fill="#FFDB00"/>
<path fill-rule="evenodd" clip-rule="evenodd" d="M-5.28125 117.654C-5.49087 117.954 -5.72005 118.429 -5.64291 118.622C-5.5367 118.889 -4.30864 119.334 -4.02356 119.334H-4.023C-2.28235 119.319 0.458297 119.081 0.865231 118.908C0.922805 118.884 0.999944 118.648 0.934544 118.305C0.869703 117.963 0.714307 117.771 0.632138 117.768H-0.354452C-0.559595 117.952 -1.08727 118.35 -1.82344 118.35C-2.59482 118.35 -4.13535 117.558 -4.63172 117.292L-5.28125 117.654Z" fill="#FFDB00"/>
<path fill-rule="evenodd" clip-rule="evenodd" d="M1.41936 119.084L1.44115 118.406C1.45122 118.098 1.37408 117.874 1.19185 117.68L0.759766 117.22H3.56079L2.93194 117.709C2.53283 118.02 2.38806 118.159 2.03702 118.494L1.41936 119.084Z" fill="#FFDB00"/>
<path fill-rule="evenodd" clip-rule="evenodd" d="M20.2011 29.7763C20.7209 29.7763 21.1446 29.3622 21.1446 28.8537C21.1446 28.3436 20.7209 27.929 20.2011 27.929C19.6824 27.929 19.2598 28.3436 19.2598 28.8537C19.2598 29.3622 19.6824 29.7763 20.2011 29.7763Z" fill="#FFDB00"/>
<path fill-rule="evenodd" clip-rule="evenodd" d="M18.8242 18.0384L19.7253 20.1014L20.7952 19.1245L19.8689 16.9436C19.6353 17.1295 19.4402 17.3078 19.2742 17.4866C19.111 17.6638 18.9595 17.8492 18.8242 18.0384Z" fill="#FFDB00"/>
<path fill-rule="evenodd" clip-rule="evenodd" d="M19.9473 30.6628C20.1865 31.0434 20.4459 31.4285 20.7293 31.8261C20.7511 31.3747 20.9081 30.9513 21.186 30.5909C21.1569 30.5437 21.1301 30.4949 21.1049 30.4456C20.7539 30.6397 20.3436 30.716 19.9473 30.6628Z" fill="#FFDB00"/>
<path fill-rule="evenodd" clip-rule="evenodd" d="M17.6426 21.4901C17.8231 21.4951 17.9986 21.5011 18.1736 21.5137L19.0959 20.6734L18.3184 18.894C17.9657 19.6247 17.7387 20.4968 17.6426 21.4901Z" fill="#FFDB00"/>
<path fill-rule="evenodd" clip-rule="evenodd" d="M18.6991 26.0393L19.5443 27.144C19.6292 27.1128 19.7159 27.087 19.8042 27.0678C19.6438 26.8906 19.4353 26.6613 19.2827 26.494L19.063 26.2532L22.1111 25.5139L18.2676 23.1152L21.2055 25.4212L18.6991 26.0393Z" fill="#FFDB00"/>
<path fill-rule="evenodd" clip-rule="evenodd" d="M17.7695 24.0356C17.7701 24.4245 17.7936 24.8101 17.84 25.1941L18.9098 24.9303L17.7695 24.0356Z" fill="#FFDB00"/>
<path fill-rule="evenodd" clip-rule="evenodd" d="M69.5502 114.53C69.6134 113.776 67.8403 112.01 67.8403 112.01L66.2266 111.627C66.2266 111.627 66.918 112.671 66.9516 113.779C66.9851 114.886 66.5888 116.006 66.5888 116.006C67.3624 115.921 69.4871 115.283 69.5502 114.53Z" fill="#FFDB00"/>
<path fill-rule="evenodd" clip-rule="evenodd" d="M55.9226 115.525C56.0439 115.525 56.1529 115.53 56.2468 115.54C56.7013 115.591 57.8969 116.018 59.8103 116.711C62.1244 117.549 65.2854 118.694 66.2938 118.694C66.3045 118.694 66.3145 118.694 66.3251 118.693C67.0725 118.675 69.1245 117.965 69.7567 117.506C70.5583 116.924 71.7343 115.762 71.6868 114.945C71.6332 114.022 70.6125 112.777 70.6024 112.764C70.4152 112.428 69.6762 112.174 68.9948 112.093C69.6404 112.775 70.6114 113.934 70.4711 114.617C70.2888 115.502 69.5141 116.128 68.0322 116.589C67.0786 116.885 65.8925 116.953 65.8427 116.956L65.4425 116.979L65.5599 116.602C65.5649 116.587 66.0479 115.021 66.0893 113.822C66.1222 112.89 65.3464 111.697 64.9657 111.263C64.7377 111.004 64.0563 110.822 63.3184 110.798C63.7131 111.327 64.3302 112.234 64.4945 112.922C64.855 114.445 64.4492 115.696 63.4844 116.037C62.8997 116.245 62.0166 115.691 60.6353 114.757C59.9741 114.309 59.0652 113.684 58.8041 113.73C58.7069 113.743 58.618 113.771 58.5353 113.814L58.3307 114.001C58.2703 114.052 58.2155 114.113 58.1624 114.186C58.0898 114.306 58.0473 114.434 58.0328 114.482L58.0009 114.709L57.7633 114.722C53.8237 114.871 53.4816 114.578 53.3357 114.453C53.1529 114.296 53.0478 114.078 53.0327 113.824C52.9819 112.991 53.8857 111.98 53.9891 111.867C54.2049 111.631 54.4436 111.422 54.6325 111.268C54.3318 111.083 54.1032 110.875 53.8919 110.591C53.699 111.097 53.3027 111.795 52.5023 112.322C51.3362 113.09 50.4022 113.169 49.9886 113.173C49.7834 113.779 49.41 114.926 49.3541 115.299C49.3178 115.542 49.4011 115.834 49.566 116.043C49.6504 116.152 49.7952 116.285 50.0036 116.307C50.2161 116.329 51.1814 116.17 52.1138 116.014C53.4967 115.783 55.0417 115.525 55.9226 115.525Z" fill="#FFDB00"/>
<path fill-rule="evenodd" clip-rule="evenodd" d="M28.6957 9.7528H34.1955L32.0669 5.96755L35.7964 8.13525V2.83228L32.0625 5.01809L34.1961 1.22461H28.7181L30.8299 5.01315L27.1055 2.83228V8.12648L30.8366 5.96975L28.6957 9.7528Z" fill="#FFDB00"/>
<path fill-rule="evenodd" clip-rule="evenodd" d="M72.4527 114.231C72.6382 113.947 72.8193 113.575 72.9624 113.226L71.7383 112.936C72.0161 113.211 72.4527 114.231 72.4527 114.231Z" fill="#FFDB00"/>
<path fill-rule="evenodd" clip-rule="evenodd" d="M59.4931 106.197C58.9017 107.054 58.488 108.038 58.2969 109.096L61.7457 109.933C63.0275 109.774 64.445 110.038 65.1879 110.412C65.852 110.746 65.9129 110.905 65.9129 110.905L67.4361 111.248C68.9163 111.024 70.6798 111.565 71.3042 112.175L73.179 112.631C73.3998 111.929 73.5183 111.184 73.5183 110.411C73.5183 110.1 73.4971 109.794 73.4596 109.494L59.4931 106.197Z" fill="#FFDB00"/>
<path fill-rule="evenodd" clip-rule="evenodd" d="M70.0703 102.974C71.9082 103.979 73.2928 105.581 73.9999 107.487C74.0334 107.265 74.0647 107.033 74.0955 106.79C74.2615 105.442 74.356 103.913 74.385 102.116C74.3889 101.87 74.3319 99.4507 74.2772 97.1113C74.2391 95.4987 74.2017 93.9031 74.1844 93.0178C72.9921 92.7578 72.0429 92.3541 70.698 91.2039C70.7109 91.3306 70.7221 91.4518 70.7282 91.5445L70.7439 91.7891L70.3224 91.8615C70.3984 92.7419 70.4314 93.5679 70.4666 94.4379L70.5018 95.2875C70.5108 95.4866 70.5169 95.6906 70.5203 95.898L71.3699 96.0472L71.0139 96.4767L71.5589 96.2765L70.6494 101.223L70.2967 100.922C70.2123 101.85 70.1257 102.571 70.0703 102.974Z" fill="#FFDB00"/>
<path fill-rule="evenodd" clip-rule="evenodd" d="M74.4238 111.7L76.1796 119.894C76.6793 118.98 77.5887 117.27 78.2047 115.843C78.9571 114.103 80.278 106.35 79.3221 94.6104L79.274 94.5737C78.8146 94.2259 78.4473 93.9478 77.6234 92.9666C77.103 93.0982 76.1896 93.1492 75.4624 93.1218C75.4864 94.4327 75.5524 97.6936 75.5843 99.2854C75.5949 99.8372 75.6021 100.189 75.6021 100.194C75.6133 102.305 75.5792 105.051 75.2103 107.559C75.0398 108.717 74.8073 109.759 74.5189 110.656C74.5088 111.006 74.4769 111.357 74.4238 111.7Z" fill="#FFDB00"/>
<path fill-rule="evenodd" clip-rule="evenodd" d="M-3.42895 114.47C-2.87165 114.47 -2.0684 115.037 -1.01976 115.823C-0.608918 116.131 -0.219873 116.423 -0.0281448 116.507C0.521886 116.75 3.17143 116.774 3.82598 116.594C4.04566 116.534 4.31118 116.399 4.61861 116.241C5.15579 115.966 5.82488 115.625 6.58229 115.541C7.35758 115.457 9.14351 115.752 10.7181 116.015C11.6488 116.17 12.6125 116.335 12.8255 116.308C13.0334 116.285 13.1782 116.151 13.2626 116.044C13.4275 115.834 13.5108 115.542 13.4744 115.299C13.4191 114.925 13.0463 113.779 12.8411 113.173C12.4068 113.174 11.4923 113.09 10.3269 112.322C9.52585 111.794 9.13009 111.097 8.93725 110.591C8.7254 110.876 8.49677 111.084 8.19605 111.268C8.38498 111.422 8.62366 111.63 8.83998 111.867C8.94283 111.979 9.84614 112.991 9.79639 113.825C9.78074 114.078 9.67621 114.296 9.49343 114.454C8.75949 115.085 2.20161 114.572 1.45537 114.511C0.959564 114.471 0.0517902 114.332 -0.826359 114.199C-1.77494 114.053 -2.95437 113.876 -3.19865 113.893C-3.63856 113.93 -4.77887 114.419 -5.34176 114.869C-5.85154 115.278 -5.92309 116.094 -5.81744 116.4C-5.75763 116.574 -5.7118 116.602 -5.71124 116.602C-5.70788 116.603 -5.66987 116.61 -5.53013 116.559C-5.3384 116.489 -5.164 116.298 -5.11313 116.23C-4.93426 115.88 -4.22436 114.609 -3.56645 114.482C-3.52229 114.474 -3.47646 114.47 -3.42895 114.47Z" fill="#FFDB00"/>
<path fill-rule="evenodd" clip-rule="evenodd" d="M13.3611 102.022C11.9983 103.617 10.54 105.726 10.0291 107.559C9.37394 109.902 10.5154 111.011 10.8809 111.294C11.2957 111.617 11.8228 111.773 12.1973 111.848C12.1962 111.846 12.1956 111.844 12.1945 111.842C11.9134 111.237 11.5282 110.408 11.3097 109.538L11.2851 109.442C11.0777 108.62 10.8625 107.77 11.2868 106.246C11.4986 105.486 12.5294 103.533 13.3611 102.022Z" fill="#FFDB00"/>
<path fill-rule="evenodd" clip-rule="evenodd" d="M26.168 111.874C24.7616 113.071 23.2635 114.424 21.609 115.928C21.1053 116.385 20.5905 116.812 20.0925 117.227C18.9913 118.142 17.8527 119.088 16.7364 120.434C15.8521 121.473 15.2121 123.929 15.2288 125.432C15.2529 127.735 16.2249 129.622 17.2501 131.423C17.6816 121.571 22.2674 115.226 26.2267 112.693L26.168 111.874Z" fill="#FFDB00"/>
<path fill-rule="evenodd" clip-rule="evenodd" d="M18.416 133.027C19.2031 135.073 20.0253 136.524 21.0208 137.605C18.4904 126.784 21.7497 118.469 26.4423 115.671L26.3283 114.078C22.6111 116.796 18.4546 123.245 18.416 133.027Z" fill="#FFDB00"/>
<path fill-rule="evenodd" clip-rule="evenodd" d="M18.5817 102.553C18.0121 103.712 17.0071 106.221 16.7812 107.388C17.1105 107.341 17.4638 107.308 17.8383 107.292C18.2743 104.941 21.1133 102.214 26.6315 101.167L26.2654 98.7002L18.5817 102.553Z" fill="#FFDB00"/>
<path fill-rule="evenodd" clip-rule="evenodd" d="M13.0239 105.34C12.7651 105.68 12.2368 106.765 12.2564 107.838C12.2748 108.824 12.5599 109.683 12.8299 110.281C12.9814 109.755 13.2257 109.294 13.5605 108.906C14.1921 108.175 15.1273 107.805 15.5325 107.671C15.6264 106.706 16.3039 104.82 16.8908 103.4L13.0239 105.34Z" fill="#FFDB00"/>
<path fill-rule="evenodd" clip-rule="evenodd" d="M22.6075 138.93C23.5567 139.534 24.64 139.945 25.9055 140.179C25.7825 139.83 25.6618 139.477 25.5444 139.12C18.9216 135.415 23.0295 123.618 26.5472 117.148L26.5377 117.017C22.2738 119.996 19.6137 128.303 22.6075 138.93Z" fill="#FFDB00"/>
<path fill-rule="evenodd" clip-rule="evenodd" d="M10.625 119.819C10.8967 120.192 11.341 120.638 11.9229 120.932C12.6558 121.302 13.7955 121.518 15.0621 120.435C16.5932 118.834 18.1739 117.411 19.7022 116.036C20.0694 115.707 20.4316 115.38 20.7883 115.056C22.5468 113.461 24.3635 111.812 26.0628 110.4L25.9359 108.639C24.6452 111.134 21.0566 115.509 18.0649 115.596C17.5267 115.974 16.9632 116.549 16.3679 117.156C15.2337 118.314 13.9526 119.621 12.3724 120.008L12.2656 120.024C11.6597 120.098 11.0856 119.996 10.625 119.819Z" fill="#FFDB00"/>
<path fill-rule="evenodd" clip-rule="evenodd" d="M19.0625 107.325C19.5689 107.39 20.0692 107.514 20.5773 107.647L20.735 107.689C21.5058 107.894 22.233 108.086 22.9429 107.985C23.0642 107.967 23.1866 107.944 23.3101 107.908C24.2135 107.639 25.1615 106.119 25.6992 104.9L26.631 102.433C22.3264 103.321 19.5421 105.122 19.0625 107.325ZM26.7037 102.418L27.9698 120.068L27.8764 120.226C23.5371 127.689 25.162 134.695 27.3241 140.566C27.4779 140.829 27.6422 141.032 28.0022 141.476C28.2867 141.825 28.6836 142.314 29.2833 143.101C29.6752 143.616 30.2649 144.242 30.7384 144.745L30.7836 144.792V143.401C24.925 134.599 27.3655 127.074 29.7473 122.153L26.8144 102.396C26.7775 102.404 26.7406 102.411 26.7037 102.418Z" fill="#FFDB00"/>
<path fill-rule="evenodd" clip-rule="evenodd" d="M26.7118 119.432C25.5653 119.894 20.7285 133.072 24.9622 137.193C23.7531 132.811 23.9393 126.696 26.7375 119.794L26.7118 119.432Z" fill="#FFDB00"/>
<path fill-rule="evenodd" clip-rule="evenodd" d="M51.6505 106.176C52.0742 107.699 51.8596 108.549 51.6516 109.372L51.6276 109.468C51.4085 110.338 51.0234 111.166 50.7422 111.771C50.7416 111.773 50.7405 111.775 50.7394 111.777C51.1145 111.702 51.641 111.547 52.0558 111.223C52.4214 110.94 53.5628 109.831 52.9082 107.488C52.3968 105.656 50.939 103.546 49.5762 101.951C50.4079 103.463 51.4381 105.415 51.6505 106.176Z" fill="#FFDB00"/>
<path fill-rule="evenodd" clip-rule="evenodd" d="M36.709 112.622C40.6682 115.155 45.254 121.5 45.6856 131.351C46.7107 129.551 47.6828 127.664 47.7068 125.361C47.7236 123.857 47.0836 121.402 46.1993 120.363C45.083 119.017 43.9443 118.07 42.8432 117.156C42.3451 116.741 41.8303 116.314 41.3267 115.856C39.6721 114.353 38.1741 113 36.7677 111.803L36.709 112.622Z" fill="#FFDB00"/>
<path fill-rule="evenodd" clip-rule="evenodd" d="M36.6082 114.007L36.4941 115.6C41.1867 118.398 44.4461 126.713 41.9156 137.534C42.9112 136.453 43.7334 135.002 44.5205 132.956C44.4813 123.173 40.3253 116.725 36.6082 114.007Z" fill="#FFDB00"/>
<path fill-rule="evenodd" clip-rule="evenodd" d="M36.6708 98.6289L36.3047 101.096C41.8229 102.144 44.6614 104.87 45.0979 107.221C45.4719 107.237 45.8251 107.27 46.1544 107.317C45.9285 106.15 44.9241 103.641 44.3545 102.482L36.6708 98.6289Z" fill="#FFDB00"/>
<path fill-rule="evenodd" clip-rule="evenodd" d="M46.0449 103.33C46.6318 104.749 47.3093 106.635 47.4032 107.6C47.8085 107.734 48.7436 108.104 49.3753 108.835C49.7107 109.224 49.9549 109.684 50.1059 110.21C50.3759 109.612 50.6609 108.753 50.6794 107.766C50.6995 106.694 50.1713 105.609 49.9119 105.27L46.0449 103.33Z" fill="#FFDB00"/>
<path fill-rule="evenodd" clip-rule="evenodd" d="M36.3982 116.946L36.3887 117.077C39.9063 123.547 44.0142 135.344 37.3909 139.049C37.2741 139.406 37.1533 139.759 37.0304 140.109C38.2959 139.874 39.3792 139.463 40.3283 138.859C43.3222 128.232 40.662 119.926 36.3982 116.946Z" fill="#FFDB00"/>
<path fill-rule="evenodd" clip-rule="evenodd" d="M50.6702 119.953L50.5634 119.937C48.9832 119.551 47.7021 118.243 46.5673 117.085C45.9726 116.478 45.4091 115.904 44.8709 115.525C41.8792 115.438 38.2906 111.064 36.9999 108.568L36.873 110.33C38.5718 111.741 40.3884 113.39 42.147 114.985C42.5042 115.31 42.8664 115.636 43.2331 115.966C44.7619 117.341 46.3421 118.763 47.8737 120.365C49.1397 121.447 50.2795 121.231 51.0129 120.861C51.5948 120.567 52.0386 120.121 52.3108 119.748C51.8496 119.925 51.2756 120.027 50.6702 119.953Z" fill="#FFDB00"/>
<path fill-rule="evenodd" clip-rule="evenodd" d="M36.305 102.362L37.2368 104.829C37.7739 106.048 38.7225 107.568 39.6253 107.837C39.7488 107.873 39.8712 107.896 39.9931 107.914C40.7024 108.015 41.4302 107.823 42.2005 107.618L42.3581 107.577C42.8662 107.443 43.3665 107.319 43.8735 107.255C43.3939 105.051 40.6091 103.25 36.305 102.362ZM36.1211 102.325L33.1887 122.082C35.5705 127.004 38.0104 134.529 32.1523 143.33V144.722L32.1971 144.674C32.6711 144.171 33.2602 143.545 33.6521 143.03C34.2524 142.243 34.6493 141.755 34.9338 141.405C35.2938 140.961 35.4581 140.759 35.6118 140.495C37.7734 134.625 39.3983 127.618 35.0596 120.155L34.9662 119.998L36.2323 102.348C36.1954 102.34 36.1585 102.333 36.1211 102.325Z" fill="#FFDB00"/>
<path fill-rule="evenodd" clip-rule="evenodd" d="M36.1992 119.723C38.9974 126.625 39.1841 132.739 37.9745 137.122C42.2088 133.002 37.3714 119.823 36.2249 119.361L36.1992 119.723Z" fill="#FFDB00"/>
<path fill-rule="evenodd" clip-rule="evenodd" d="M26.8359 51.4579C27.1523 51.9669 28.4402 53.9684 29.2127 55.1077L30.2121 48.5481C29.699 48.3172 28.8767 47.9349 28.4871 47.7445L28.4866 47.744C27.9455 47.478 27.3899 47.2043 26.8359 46.9739V51.4579Z" fill="#FFDB00"/>
<path fill-rule="evenodd" clip-rule="evenodd" d="M19.5742 70.9253L21.6435 71.9642L21.5899 69.4729L19.5742 70.9253Z" fill="#FFDB00"/>
<path fill-rule="evenodd" clip-rule="evenodd" d="M23.8066 73.0491L25.9078 74.0929L25.0241 71.1902L23.8066 73.0491Z" fill="#FFDB00"/>
<path fill-rule="evenodd" clip-rule="evenodd" d="M18.873 38.3018L18.8742 38.3386C18.8714 38.377 18.8948 38.4839 19.0855 38.6989C20.1486 39.9002 24.564 41.193 28.6406 41.5144C26.7635 40.5573 25.3784 39.7082 24.484 39.1158L23.6584 38.9809C21.9004 38.6951 20.3666 38.4455 18.9189 38.1367C18.9055 38.1916 18.8904 38.247 18.873 38.3018Z" fill="#FFDB00"/>
<path fill-rule="evenodd" clip-rule="evenodd" d="M25.5742 69.0484L26.6318 72.3263L27.3937 67.2937C26.8425 67.8696 26.051 68.6716 25.5742 69.0484Z" fill="#FFDB00"/>
<path fill-rule="evenodd" clip-rule="evenodd" d="M22.9107 66.7658V72.3085L24.9773 68.9215L24.5659 62.4386C23.3786 64.4934 21.7939 66.044 19.9415 66.9534C18.8749 67.4761 17.2215 67.7658 17.1516 67.7778L16.5306 67.8853L16.8665 67.3615C17.487 66.3945 18.8392 64.2822 19.5887 63.0985C18.3199 63.6914 16.724 64.2476 15.9906 64.4462C15.4171 64.5723 14.5753 64.6612 13.7458 64.3848C13.7307 64.3798 12.208 63.8423 10.7642 62.2428C10.0744 61.4212 9.21754 60.0598 9.0532 58.9008C8.78768 57.0358 8.1348 55.6459 6.99897 54.5264C6.29019 53.8282 5.33602 53.5292 4.90784 53.4239L4.90672 53.4256L4.66134 53.3724C3.94976 53.2171 3.15602 53.1903 2.29688 53.2923C2.43718 53.6241 2.6971 54.0322 2.97882 54.3526C4.46066 54.3997 5.61327 54.8621 6.40589 55.7271C7.65129 57.0869 7.36677 59.4251 7.1784 60.9725C7.11076 61.5331 7.05151 62.0168 7.09232 62.2483C7.36565 63.4814 9.01072 64.8395 10.3321 65.931C10.7625 66.3188 12.53 67.5129 13.8408 68.1475L18.1868 70.2329L22.9107 66.7658Z" fill="#FFDB00"/>
<path fill-rule="evenodd" clip-rule="evenodd" d="M15.3516 62.2402C15.8552 62.3954 16.5662 62.5567 17.2901 62.5199C17.6182 62.5034 18.8452 62.3488 20.8385 61.045L22.6166 59.4296C22.6166 59.4296 23.1772 57.7835 23.0028 55.6707C22.9676 55.2429 22.9167 54.7925 22.848 54.3115C22.1498 56.8258 21.019 58.3677 19.4757 58.9047C19.2767 59.2343 18.9765 59.6309 18.5606 60.1136L18.4382 60.2551L18.4198 60.2491C17.9877 60.65 16.8049 61.6664 15.3516 62.2402ZM25.6591 57.2668L26.1392 66.6743C26.2717 66.5459 26.4047 66.4187 26.5372 66.2914C26.9464 65.9004 27.3332 65.5301 27.6837 65.1451L28.9257 56.9926C28.365 56.1962 27.322 54.5413 26.7261 53.5847C26.4153 56.1704 21.2566 60.1295 21.2566 60.1295C21.1599 60.3006 20.2152 64.3399 19.2208 65.9832C21.4902 64.9783 23.3611 62.7695 24.5417 59.6742L25.6591 57.2668Z" fill="#FFDB00"/>
<path fill-rule="evenodd" clip-rule="evenodd" d="M19.0283 48.2839C19.3777 48.9563 20.0311 50.2563 20.3481 51.746C20.6119 51.1399 20.7813 50.4071 20.854 49.5564C20.9847 48.0162 20.461 45.6192 20.4554 45.5951L20.3324 45.0361L21.447 45.5825C23.0094 46.3498 24.4129 47.6383 25.6281 49.4198V45.2923L26.4225 45.5506C27.2274 45.8134 28.0278 46.1951 28.8054 46.5753C27.849 45.1645 26.4314 42.8273 26.1072 42.2909C24.0619 41.9831 19.5471 41.1374 18.1189 39.5236C18.0982 39.5006 18.0781 39.477 18.0585 39.4529C17.6935 39.7392 17.2463 39.9411 16.7734 40.031C16.9121 41.0446 17.381 42.2985 17.788 43.0911L17.8517 43.22V44.8167L17.9423 44.9412C18.6941 45.9746 19.471 47.042 19.0283 48.2839Z" fill="#FFDB00"/>
<path fill-rule="evenodd" clip-rule="evenodd" d="M20.5908 53.562L20.5807 54.0441C20.5628 55.089 20.5477 55.9562 20.2051 57.102C22.8485 54.3112 22.7909 49.288 22.7909 49.288C22.7909 49.288 24.83 53.1791 23.9441 56.1937C24.8496 54.9228 25.6098 54.0715 25.6271 51.7601C24.8954 50.3538 23.6976 48.5146 21.9904 47.292C22.1162 48.265 22.1363 49.1717 22.0508 49.9945C21.896 51.4645 21.4058 52.6635 20.5908 53.562Z" fill="#FFDB00"/>
<path fill-rule="evenodd" clip-rule="evenodd" d="M14.2715 36.9255C14.8914 38.2178 15.6594 38.9095 16.125 38.9095C16.8433 38.9095 17.6086 38.4976 17.7477 37.864L14.2715 36.9255Z" fill="#FFDB00"/>
<path fill-rule="evenodd" clip-rule="evenodd" d="M11.0645 35.7756L16.3205 42.7729C15.965 41.908 15.6486 40.874 15.5553 39.9991C14.3686 39.607 13.2992 37.9817 12.7196 36.4366C12.1215 36.2221 11.5681 36.0016 11.0645 35.7756Z" fill="#FFDB00"/>
<path fill-rule="evenodd" clip-rule="evenodd" d="M5.93889 39.51C5.98193 39.51 6.02497 39.5106 6.06801 39.5122C7.69575 39.5605 8.7701 40.0717 9.80979 40.5665C10.3274 40.8138 10.7612 41.0162 11.2514 41.1802C11.3425 41.2088 13.1301 41.7644 14.38 42.1873L9.15635 35.2339C8.85562 35.1604 7.63594 34.9454 5.70133 35.7072C4.87907 36.0308 4.29271 36.5914 3.95789 37.373C3.58337 38.2457 3.56157 39.3444 3.88298 40.397C3.92714 40.3449 3.97521 40.2928 4.02776 40.2395C4.50736 39.7552 5.15018 39.51 5.93889 39.51Z" fill="#FFDB00"/>
<path fill-rule="evenodd" clip-rule="evenodd" d="M-0.154297 41.5405C1.69647 43.7625 4.57965 44.9276 8.43546 45.0076C8.97375 43.7697 10.3226 43.0007 12.3153 42.7747C11.8843 42.6375 11.4998 42.5136 11.3209 42.456C10.1711 42.8981 4.77027 43.0039 3.4673 42.8169C2.17103 42.6304 1.13805 42.1505 -0.154297 41.5405Z" fill="#FFDB00"/>
<path fill-rule="evenodd" clip-rule="evenodd" d="M10.6445 34.2471C13.2779 35.6715 17.0716 36.7307 23.2544 37.7729C24.3271 37.9122 25.2092 37.9621 25.9196 37.9232C24.1276 37.2584 21.4316 36.1449 18.8134 35.0638C15.9112 33.8653 12.6211 32.5066 12.2085 32.4737C11.5663 32.4156 10.8424 33.4748 10.6445 34.2471Z" fill="#FFDB00"/>
<path fill-rule="evenodd" clip-rule="evenodd" d="M13.6194 43.8931C11.6233 43.8931 9.79711 44.373 9.44383 45.7569C9.1554 46.894 9.15876 47.9723 9.45781 49.0348C10.3723 47.2658 11.5596 46.1255 13.9033 46.1222C15.3975 46.1222 16.7938 46.5094 17.9067 47.2203C17.7849 46.7897 17.4444 46.2961 16.9676 45.6406L16.7625 45.3587L15.7888 44.0615C15.0844 43.9556 14.341 43.8931 13.6194 43.8931Z" fill="#FFDB00"/>
<path fill-rule="evenodd" clip-rule="evenodd" d="M42.6991 27.929C42.1798 27.929 41.7578 28.3436 41.7578 28.8543C41.7578 29.3622 42.1798 29.7763 42.6991 29.7763C43.219 29.7763 43.6416 29.3622 43.6416 28.8543C43.6416 28.3436 43.219 27.929 42.6991 27.929Z" fill="#FFDB00"/>
<path fill-rule="evenodd" clip-rule="evenodd" d="M43.9922 24.9302L45.0559 25.1929C45.1023 24.8068 45.1252 24.4223 45.1252 24.046C45.1258 24.0444 45.1258 24.0422 45.1258 24.0405L43.9922 24.9302Z" fill="#FFDB00"/>
<path fill-rule="evenodd" clip-rule="evenodd" d="M41.7305 30.562C42.0217 30.8642 42.2168 31.229 42.3023 31.625C42.5281 31.3019 42.7411 30.9805 42.9401 30.6645C42.5466 30.7155 42.1385 30.6382 41.7936 30.4468C41.7735 30.4857 41.7528 30.5247 41.7305 30.562Z" fill="#FFDB00"/>
<path fill-rule="evenodd" clip-rule="evenodd" d="M56.9165 111.026L57.2066 111.129C57.1853 110.888 57.1741 110.648 57.1741 110.411C57.1741 109.953 57.2379 109.348 57.3441 108.784L57.3351 108.722C56.7678 108.425 56.3184 108.188 55.9466 107.81C54.8332 106.708 54.1501 105.427 53.4894 104.187C53.268 103.772 53.0484 103.36 52.8147 102.959C51.6481 100.958 50.5464 99.0681 48.4799 97.4983C47.9265 97.2783 47.3284 97.0523 46.6816 96.8247L47.0114 97.5526L47.4748 98.4302C51.2714 101.475 53.6632 105.187 54.5839 109.461C54.6923 109.965 55.5643 110.564 56.9556 111.106L56.9165 111.026Z" fill="#FFDB00"/>
<path fill-rule="evenodd" clip-rule="evenodd" d="M40.7461 25.5557L43.9859 26.3209L44.2022 26.039L41.6952 25.4208L44.6187 23.127L40.7461 25.5557ZM43.1491 27.08C43.219 27.0971 43.2883 27.1184 43.3565 27.1442L43.9295 26.395L43.726 26.5732C43.5572 26.7208 43.3308 26.9199 43.1491 27.08Z" fill="#FFDB00"/>
<path fill-rule="evenodd" clip-rule="evenodd" d="M20.543 16.471L21.4267 18.5504L22.3356 17.721L21.5955 15.957C21.1936 16.1194 20.8476 16.2883 20.543 16.471Z" fill="#FFDB00"/>
<path fill-rule="evenodd" clip-rule="evenodd" d="M65.8487 102.885C63.4546 102.885 61.3165 103.961 59.9102 105.648L73.3451 108.819C72.6006 105.428 69.5279 102.885 65.8487 102.885Z" fill="#FFDB00"/>
<path fill-rule="evenodd" clip-rule="evenodd" d="M70.4752 89.3726C71.8962 90.7548 72.8727 91.4657 73.7318 91.7454V91.746C73.9414 91.814 74.5887 91.939 74.795 91.9621C75.7626 92.0641 76.4266 92.0537 76.7531 91.9922C76.6922 91.7037 76.5943 91.2781 76.5546 91.1059L76.5423 91.051C74.9722 84.3087 73.6463 82.2551 72.2433 80.0808C72.0873 79.839 71.9297 79.5954 71.7704 79.3431C70.1549 79.2981 68.9532 78.8226 67.9833 78.2861C68.0336 78.5949 68.0722 78.8851 68.075 78.9059L68.1158 79.2164L67.7966 79.2153C67.7966 79.2153 67.6278 79.2148 67.4395 79.2137C68.8453 81.8597 69.9168 85.4409 70.4752 89.3726Z" fill="#FFDB00"/>
<path fill-rule="evenodd" clip-rule="evenodd" d="M57.2383 101.605C57.9258 102.304 58.2769 102.744 58.8179 103.678C58.9448 103.895 59.1226 104.229 59.3059 104.573L59.3948 104.739C59.5128 104.62 59.6598 104.476 59.8157 104.328L59.6307 103.756C59.3445 102.422 58.7738 101.324 57.8856 100.393C57.6843 100.866 57.3987 101.348 57.2383 101.605Z" fill="#FFDB00"/>
<path fill-rule="evenodd" clip-rule="evenodd" d="M66.1348 102.179C67.2074 102.215 68.2298 102.446 69.1633 102.84C69.2276 102.398 69.3461 101.485 69.3953 101.028L66.4802 100.54L66.1348 102.179Z" fill="#FFDB00"/>
<path fill-rule="evenodd" clip-rule="evenodd" d="M29.1699 16.5596L29.4371 18.0372L29.782 17.0231L29.1699 16.5596Z" fill="#FFDB00"/>
<path fill-rule="evenodd" clip-rule="evenodd" d="M30.0596 21.5024L30.3698 20.2764L29.6465 19.2107L30.0596 21.5024Z" fill="#FFDB00"/>
<path fill-rule="evenodd" clip-rule="evenodd" d="M30.9989 19.7049H31.8999L32.725 18.4889L32.3617 17.4226H30.536L30.1738 18.4889L30.9989 19.7049Z" fill="#FFDB00"/>
<path fill-rule="evenodd" clip-rule="evenodd" d="M30.3191 13.6467H32.5802L33.6987 12.9155L33.0223 11.9172H29.8781L29.2012 12.9155L30.3191 13.6467Z" fill="#FFDB00"/>
<path fill-rule="evenodd" clip-rule="evenodd" d="M28.3281 26.4288C29.0246 27.0563 29.7138 27.7447 30.3835 28.4797L29.4628 25.3181L28.3281 26.4288Z" fill="#FFDB00"/>
<path fill-rule="evenodd" clip-rule="evenodd" d="M28.625 13.5371L28.9145 15.1475L29.6312 14.1975L28.625 13.5371Z" fill="#FFDB00"/>
<path fill-rule="evenodd" clip-rule="evenodd" d="M25.3533 15.0764C25.0526 15.0973 24.7669 15.1313 24.4824 15.1664L24.6658 15.7034L25.3533 15.0764Z" fill="#FFDB00"/>
<path fill-rule="evenodd" clip-rule="evenodd" d="M23.293 17.9271L24.009 19.6318L24.9246 18.7328L24.331 16.9814L23.293 17.9271Z" fill="#FFDB00"/>
<path fill-rule="evenodd" clip-rule="evenodd" d="M22.3516 15.6802L22.9664 17.1463L24.052 16.1568L23.7775 15.3489C23.2431 15.4421 22.7747 15.5507 22.3516 15.6802Z" fill="#FFDB00"/>
<path fill-rule="evenodd" clip-rule="evenodd" d="M27.6738 24.3211L28.088 25.5431L29.2082 24.4472L28.8387 23.178L27.6738 24.3211Z" fill="#FFDB00"/>
<path fill-rule="evenodd" clip-rule="evenodd" d="M26.7695 21.6579L27.3889 23.4811L28.5851 22.3073L28.0714 20.5422L26.7695 21.6579Z" fill="#FFDB00"/>
<path fill-rule="evenodd" clip-rule="evenodd" d="M25.8496 18.9461L26.4941 20.8434L27.8261 19.7009L27.2163 17.6045L25.8496 18.9461Z" fill="#FFDB00"/>
<path fill-rule="evenodd" clip-rule="evenodd" d="M24.9824 16.389L25.5654 18.1064L26.9623 16.7345L26.4889 15.1077C26.4754 15.1088 26.4626 15.1093 26.4497 15.1099C26.4274 15.111 26.405 15.1126 26.3821 15.1132L24.9824 16.389Z" fill="#FFDB00"/>
<path fill-rule="evenodd" clip-rule="evenodd" d="M34.3105 22.3075L35.5073 23.4813L36.1255 21.6581L34.8242 20.543L34.3105 22.3075Z" fill="#FFDB00"/>
<path fill-rule="evenodd" clip-rule="evenodd" d="M37.9688 18.7328L38.8849 19.6323L39.6004 17.927L38.5629 16.9819L37.9688 18.7328Z" fill="#FFDB00"/>
<path fill-rule="evenodd" clip-rule="evenodd" d="M38.4133 15.1664C38.1293 15.1313 37.8443 15.0973 37.543 15.0764L38.2311 15.7034L38.4133 15.1664Z" fill="#FFDB00"/>
<path fill-rule="evenodd" clip-rule="evenodd" d="M35.9336 16.734L37.331 18.1064L37.9146 16.389L36.5149 15.1132C36.492 15.1126 36.4696 15.1115 36.4473 15.1099C36.4339 15.1093 36.4205 15.1088 36.407 15.1077L35.9336 16.734Z" fill="#FFDB00"/>
<path fill-rule="evenodd" clip-rule="evenodd" d="M35.0684 19.7008L36.4004 20.8439L37.0454 18.9466L35.6788 17.605L35.0684 19.7008Z" fill="#FFDB00"/>
<path fill-rule="evenodd" clip-rule="evenodd" d="M42.1016 19.1242L43.172 20.1011L44.0725 18.0387C43.9322 17.8429 43.7807 17.6575 43.622 17.4869C43.456 17.3086 43.2609 17.1303 43.0272 16.9438L42.1016 19.1242Z" fill="#FFDB00"/>
<path fill-rule="evenodd" clip-rule="evenodd" d="M40.5605 17.7207L41.4689 18.5501L42.3521 16.4707C42.0491 16.2886 41.7031 16.1202 41.3001 15.9573L40.5605 17.7207Z" fill="#FFDB00"/>
<path fill-rule="evenodd" clip-rule="evenodd" d="M38.8438 16.1571L39.9282 17.1466L40.5436 15.6804C40.1204 15.551 39.652 15.4424 39.1176 15.3491L38.8438 16.1571Z" fill="#FFDB00"/>
<path fill-rule="evenodd" clip-rule="evenodd" d="M30.3401 16.3978H32.5609L33.3815 15.7736L32.5263 14.7183L31.4441 14.7002L30.3759 14.7183L29.5195 15.7736L30.3401 16.3978Z" fill="#FFDB00"/>
<path fill-rule="evenodd" clip-rule="evenodd" d="M33.464 18.0372L33.7307 16.5596L33.1191 17.0236L33.464 18.0372Z" fill="#FFDB00"/>
<path fill-rule="evenodd" clip-rule="evenodd" d="M43.7988 20.6731L44.7217 21.514C44.8961 21.5008 45.0766 21.4953 45.2527 21.4904C45.156 20.4965 44.9285 19.6244 44.5764 18.8943L43.7988 20.6731Z" fill="#FFDB00"/>
<path fill-rule="evenodd" clip-rule="evenodd" d="M32.8401 21.5024L33.2532 19.2107L32.5293 20.2764L32.8401 21.5024Z" fill="#FFDB00"/>
<path fill-rule="evenodd" clip-rule="evenodd" d="M33.9853 15.1475L34.276 13.5371L33.2793 14.1975L33.9853 15.1475Z" fill="#FFDB00"/>
<path fill-rule="evenodd" clip-rule="evenodd" d="M33.434 25.3179L32.5078 28.4948C32.9522 28.0187 33.6302 27.3402 34.5285 26.4714C34.5442 26.456 34.5581 26.4429 34.5699 26.4313L33.434 25.3179Z" fill="#FFDB00"/>
<path fill-rule="evenodd" clip-rule="evenodd" d="M33.6855 24.4472L34.8057 25.5437L35.2205 24.3211L34.055 23.178L33.6855 24.4472Z" fill="#FFDB00"/>
<path fill-rule="evenodd" clip-rule="evenodd" d="M38.3983 39.116C37.4162 39.7551 36.0456 40.5345 34.1445 41.5344C38.5403 41.366 42.7539 39.9185 43.8321 38.6997L43.8327 38.6992C43.9573 38.5588 44.011 38.3651 44.0115 38.2615C43.9998 38.2203 43.9886 38.1786 43.9791 38.137C42.5543 38.4403 41.0445 38.6855 39.3139 38.9669L38.3983 39.116Z" fill="#FFDB00"/>
<path fill-rule="evenodd" clip-rule="evenodd" d="M41.309 69.4727L41.2559 71.9645L43.3252 70.9257L41.309 69.4727Z" fill="#FFDB00"/>
<path fill-rule="evenodd" clip-rule="evenodd" d="M32.6855 48.5408L33.6844 55.0949C34.4648 53.9485 35.7605 51.9432 36.0629 51.4572V46.9731C35.5089 47.2041 34.9533 47.4778 34.4122 47.7438C33.9857 47.9528 33.2194 48.306 32.6855 48.5408Z" fill="#FFDB00"/>
<path fill-rule="evenodd" clip-rule="evenodd" d="M37.9111 71.1926L37 74.0887L39.0962 73.0471L37.9111 71.1926Z" fill="#FFDB00"/>
<path fill-rule="evenodd" clip-rule="evenodd" d="M45.1543 37.873C45.298 38.5016 46.0598 38.9102 46.7748 38.9102C47.2359 38.9102 47.9956 38.229 48.6143 36.9553C47.5842 37.2685 46.4237 37.5762 45.1543 37.873Z" fill="#FFDB00"/>
<path fill-rule="evenodd" clip-rule="evenodd" d="M48.9874 46.1225C51.3413 46.1274 52.528 47.2672 53.4425 49.0345C53.7415 47.9732 53.7449 46.8942 53.4559 45.7566C52.9763 43.8731 49.765 43.6641 47.1121 44.0612L46.0182 45.5235L46.0187 45.5268L45.9366 45.6404C45.4598 46.2964 45.1199 46.7906 44.998 47.2212C46.073 46.5361 47.419 46.151 48.8533 46.1274L48.9874 46.1225Z" fill="#FFDB00"/>
<path fill-rule="evenodd" clip-rule="evenodd" d="M42.5586 45.0422L42.3149 46.2292C42.0617 47.4704 42.0393 48.6174 42.051 49.5756C42.079 50.3676 42.25 51.1109 42.5513 51.7614C42.8615 50.2744 43.5032 48.9991 43.875 48.2839C43.5088 47.2582 43.97 46.3548 44.6346 45.3987L44.6234 45.396L45.0477 44.8167V43.2189L45.1103 43.0933C45.5183 42.298 45.9873 41.0436 46.1265 40.0305C45.6586 39.9411 45.2154 39.7431 44.8532 39.4617C44.8358 39.4825 44.818 39.5034 44.7989 39.5242C43.3702 41.1407 38.8325 41.9875 36.7905 42.2942C36.463 42.8372 35.0499 45.1667 34.0957 46.5747C34.8755 46.1935 35.6742 45.8134 36.4764 45.5507L37.2712 45.2923V49.4193C38.4859 47.6383 39.8895 46.3493 41.4524 45.5825L42.5586 45.0422Z" fill="#FFDB00"/>
<path fill-rule="evenodd" clip-rule="evenodd" d="M40.2709 48.1414L40.4683 49.4084C40.471 49.4276 40.5135 49.816 40.5571 50.2191C40.6013 50.6316 40.6471 51.0589 40.6527 51.1011C41.0049 53.4745 41.57 56.2154 42.845 57.3053C42.4241 56.0086 42.3542 54.9341 42.3173 53.5628C41.5001 52.6512 40.9534 51.1933 40.892 50.2767L40.9126 50.2751C40.7779 49.7227 40.8338 48.2768 40.9316 47.2786C39.2139 48.5006 38.0104 50.3486 37.2754 51.761C37.2927 54.0883 37.75 55.8545 38.6689 57.127C38.6639 56.2105 38.7639 55.1502 38.8176 54.6489C39.0809 52.7148 39.5772 50.6014 39.9227 49.3766L40.2709 48.1414Z" fill="#FFDB00"/>
<path fill-rule="evenodd" clip-rule="evenodd" d="M35.5039 67.2661L36.2725 72.3486C36.7012 71.0601 37.2043 69.5457 37.3625 69.0647C37.1657 68.8716 36.9131 68.6292 36.642 68.3692C36.2619 68.0039 35.8521 67.6106 35.5039 67.2661Z" fill="#FFDB00"/>
<path fill-rule="evenodd" clip-rule="evenodd" d="M50.5859 42.7747C52.5798 43.0007 53.928 43.7697 54.4658 45.0076C58.3221 44.9276 61.2059 43.7625 63.0555 41.5405C61.7637 42.1505 60.7302 42.6304 59.4339 42.8169C58.1315 43.0034 52.7296 42.8981 51.5804 42.456C51.4015 42.5136 51.0169 42.6375 50.5859 42.7747Z" fill="#FFDB00"/>
<path fill-rule="evenodd" clip-rule="evenodd" d="M40.5191 60.0349L42.0624 61.0442C44.054 62.3485 45.2821 62.5038 45.6108 62.5202C46.3005 62.5548 46.9752 62.4116 47.4722 62.2641C45.7293 61.6793 44.6885 60.5587 44.0333 59.719C43.9461 59.6082 43.8148 59.3915 43.6879 59.1825C43.6415 59.1068 43.5985 59.0355 43.5638 58.9801C41.5353 58.4832 40.6119 56.5793 40.049 54.3568C39.9847 54.8109 39.9383 55.2251 39.907 55.626C39.7421 58.2473 40.2619 59.4551 40.267 59.4667L40.5191 60.0349ZM35.2166 65.1448C35.5515 65.5112 35.931 65.8639 36.3312 66.2369C36.4883 66.3828 36.6448 66.5287 36.7997 66.6757L37.2373 57.2562L38.3514 59.657C39.5381 62.7681 41.4095 64.9781 43.6795 65.9829C42.6857 64.3402 40.7455 60.9131 40.6482 60.7419L40.3061 60.1375L39.1121 59.2577C37.4497 58.0307 36.4844 56.1696 36.1747 53.5823C35.5794 54.5356 34.533 56.1965 33.9746 56.9929L35.2166 65.1448Z" fill="#FFDB00"/>
<path fill-rule="evenodd" clip-rule="evenodd" d="M37.9648 68.9219L39.99 72.2996V66.7657L44.7139 70.2328L49.0605 68.1474C50.3735 67.5116 52.1393 66.3181 52.5585 65.9391C53.8196 64.898 55.534 63.4829 55.8095 62.2361C55.8481 62.0167 55.7894 61.5318 55.7212 60.9701C55.5334 59.4233 55.2494 57.0856 56.4937 55.7275C57.2869 54.862 58.4395 54.3996 59.9214 54.3524C60.2031 54.0321 60.463 53.624 60.6033 53.2921C59.7453 53.1901 58.9515 53.2175 58.2394 53.3722L57.9739 53.4304L57.9733 53.4282C57.5379 53.5368 56.6033 53.8352 55.9012 54.5257C54.7654 55.6452 54.1125 57.0357 53.8475 58.9006C53.6815 60.0596 52.8257 61.4216 52.1438 62.2355C50.6994 63.8355 49.1717 64.3797 49.1566 64.3846C48.3232 64.6616 47.4814 64.5722 46.9219 64.4488C46.179 64.248 44.5814 63.6913 43.3114 63.0983C44.0605 64.2815 45.4132 66.3943 46.0336 67.3619L46.369 67.8846L45.7486 67.7782C45.6787 67.7656 44.0247 67.4765 42.9593 66.9533C41.1091 66.0449 39.5261 64.4981 38.3399 62.4478L37.9648 68.9219Z" fill="#FFDB00"/>
<path fill-rule="evenodd" clip-rule="evenodd" d="M36.9629 37.9255C37.7466 37.9814 38.6409 37.9271 39.6365 37.7609C45.8444 36.7144 49.6399 35.6596 52.2492 34.2505C52.0004 33.5094 50.9339 32.4941 50.575 32.4941H50.5711C50.2603 32.5375 47.4856 33.6789 44.8019 34.7831C42.0205 35.9267 38.9299 37.1981 36.9629 37.9255Z" fill="#FFDB00"/>
<path fill-rule="evenodd" clip-rule="evenodd" d="M47.3456 39.9987C47.25 40.9119 46.9252 41.9393 46.582 42.7714L51.8375 35.7751C51.3339 36.0011 50.7805 36.2222 50.1824 36.4366C49.6016 37.9818 48.5317 39.607 47.3456 39.9987Z" fill="#FFDB00"/>
<path fill-rule="evenodd" clip-rule="evenodd" d="M53.7311 35.2518L48.5215 42.1876C49.7591 41.7686 51.526 41.219 51.6529 41.1795C52.1397 41.0155 52.5741 40.8142 53.0905 40.5668C54.1302 40.072 55.2046 39.5608 56.8323 39.5126C57.6875 39.4862 58.3751 39.693 58.9212 40.1516C58.9469 40.173 58.971 40.1938 58.9944 40.2147C59.313 38.6404 59.3326 36.4272 57.2135 35.712C55.4332 35.1124 54.1034 35.2079 53.7311 35.2518Z" fill="#FFDB00"/>
<path fill-rule="evenodd" clip-rule="evenodd" d="M47.0349 75.9446L46.3457 77.2544C46.7303 77.4393 47.1126 77.4749 47.3776 77.4694C47.3032 76.916 47.1663 76.3774 47.0349 75.9446Z" fill="#FFDB00"/>
<path fill-rule="evenodd" clip-rule="evenodd" d="M60.0308 67.5973C59.5858 67.8161 59.071 67.8578 58.498 67.7223C60.4695 69.9559 62.085 73.2453 62.8698 76.6592L62.9056 76.8149C64.1823 77.5724 65.2862 77.9218 66.7133 78.0107C66.6758 77.845 66.625 77.6064 66.554 77.2598C66.2734 76.0289 64.6971 69.8643 60.7049 66.9292C60.5187 67.2923 60.2482 67.4909 60.0308 67.5973Z" fill="#FFDB00"/>
<path fill-rule="evenodd" clip-rule="evenodd" d="M48.8387 72.5181L47.8438 74.4088C48.1109 75.1997 48.3865 76.1996 48.5794 76.9352C48.9567 77.3268 49.8907 77.5561 50.6733 77.4689C50.1959 75.5338 49.4335 73.7977 48.8387 72.5181Z" fill="#FFDB00"/>
<path fill-rule="evenodd" clip-rule="evenodd" d="M60.4821 61.637C59.8818 61.7884 58.5324 61.7637 57.5 61.5969C57.5615 61.6704 57.6274 61.7483 57.6968 61.83C58.6174 62.9216 60.1428 64.7295 60.6973 65.4645C62.3083 66.2335 63.3066 66.2642 63.5861 66.0936C63.6202 66.0727 63.6498 66.0552 63.6498 65.9438V65.8939C63.4039 65.0514 62.2552 63.5085 60.4821 61.637Z" fill="#FFDB00"/>
<path fill-rule="evenodd" clip-rule="evenodd" d="M66.4972 58.5103C65.8527 58.9896 65.0187 59.0467 64.0254 58.9683C66.3602 61.0718 68.2948 63.3091 69.1847 64.9481C70.235 65.4626 71.3021 65.9754 71.7029 65.8153C71.8236 65.7659 72.0651 65.5992 72.0618 65.3935C71.7325 63.5126 69.5084 60.7652 66.4972 58.5103Z" fill="#FFDB00"/>
<path fill-rule="evenodd" clip-rule="evenodd" d="M60.9791 58.0354C59.7862 57.1155 58.7191 56.4348 57.9522 56.1035C57.7706 56.2247 57.6202 56.3553 57.4955 56.5006C57.3703 56.6449 57.2591 56.8127 57.1641 57.0014C57.609 57.3437 58.1825 57.8324 58.8388 58.4297C60.2904 58.9815 61.4643 59.0556 62.0126 59.0035C61.6113 58.6277 60.9785 58.0359 60.9791 58.0354Z" fill="#FFDB00"/>
<path fill-rule="evenodd" clip-rule="evenodd" d="M53.5516 77.0705C52.7763 74.4234 51.3895 71.5393 50.333 69.6782L49.5684 71.1323C50.461 73.0384 51.2609 75.1315 51.83 77.0496C52.0675 77.2652 52.7025 77.7259 53.6539 77.5762L53.5516 77.0705Z" fill="#FFDB00"/>
<path fill-rule="evenodd" clip-rule="evenodd" d="M72.6584 77.1366C71.0223 72.8621 69.6042 69.4153 67.5628 67.2975C66.901 67.3123 66.0295 67.1275 64.6466 66.6936C64.5415 66.8549 64.3973 66.9931 64.2212 67.1011C63.9199 67.2838 63.5371 67.3688 63.0703 67.3628C64.2268 68.502 64.759 69.4477 65.2369 70.2962L65.4471 70.667C66.4521 72.4063 67.2867 74.9624 67.7092 76.6737C69.2207 77.6495 70.6109 78.3686 73.0346 78.1179C72.9194 77.8146 72.7529 77.3807 72.6584 77.1366Z" fill="#FFDB00"/>
<path fill-rule="evenodd" clip-rule="evenodd" d="M53.219 67.0584C53.1245 66.9603 53.0368 66.8687 52.9915 66.8308C52.8026 66.9701 52.167 67.4056 52.0865 67.4534L52.082 67.4556C52.2732 67.4934 52.4688 67.5126 52.6639 67.5126C53.1251 67.5126 53.4208 67.4073 53.4996 67.3404C53.432 67.28 53.3308 67.1753 53.219 67.0584Z" fill="#FFDB00"/>
<path fill-rule="evenodd" clip-rule="evenodd" d="M54.3922 67.7837C54.3592 67.8286 54.3218 67.8692 54.2793 67.9054C56.5817 70.1538 57.627 73.2627 58.6494 76.7726C59.0116 77.8394 60.4342 77.9974 61.9294 78.0177C61.892 77.6469 61.8389 77.1533 61.7327 76.7583C60.3548 71.6358 58.5359 69.2602 56.7561 67.5149C56.125 67.9126 55.092 67.872 54.3922 67.7837Z" fill="#FFDB00"/>
<path fill-rule="evenodd" clip-rule="evenodd" d="M53.0904 68.3625C52.7657 68.3899 52.1083 68.447 51.4247 68.2961L51.0781 68.4843C52.4728 70.6641 53.807 73.6814 54.6785 76.6357C55.3492 77.2401 56.3342 77.5752 57.6109 77.6334C57.574 77.4507 57.5192 77.2171 57.4789 77.0646C56.375 73.281 55.4113 70.432 53.1117 68.3609C53.1044 68.3614 53.0977 68.362 53.0904 68.3625Z" fill="#FFDB00"/>
<path fill-rule="evenodd" clip-rule="evenodd" d="M60.2551 55.5334C59.9963 55.534 59.7493 55.5488 59.5156 55.5779C60.3407 56.066 61.301 56.7478 62.3368 57.5816C62.9628 57.7736 64.6308 57.96 65.3994 57.7812C63.4905 56.5087 61.6649 55.7134 60.2551 55.5334Z" fill="#FFDB00"/>
<path fill-rule="evenodd" clip-rule="evenodd" d="M54.7174 65.6402C54.4351 65.9293 54.1645 66.2057 53.8906 66.4509C53.9281 66.4882 53.9694 66.5282 54.0147 66.5688C54.2528 66.791 55.0645 66.8195 55.5469 66.7718C55.8722 66.7202 56.2042 66.5699 56.2322 66.4882C56.0941 66.1865 55.8208 65.7055 55.2909 65.0637C55.0958 65.253 54.9046 65.4477 54.7174 65.6402Z" fill="#FFDB00"/>
<path fill-rule="evenodd" clip-rule="evenodd" d="M60.8027 60.1498L60.8659 60.214C62.9442 62.3202 64.3941 64.2746 64.7882 65.4922C65.6026 65.7533 67.5339 66.349 67.9794 66.0325L68.1432 66.2547L67.98 66.0325C68.018 66.0046 68.1655 65.8219 68.1415 65.5043C68.0051 64.3365 64.1801 60.7647 63.1163 59.8196C62.5903 60.2622 61.5942 60.2513 60.8027 60.1498Z" fill="#FFDB00"/>
<path fill-rule="evenodd" clip-rule="evenodd" d="M56.8133 58.2561C56.7457 58.8189 56.7563 59.4798 56.8463 60.2302C57.526 60.5242 58.7233 60.5884 59.341 60.5467C58.687 59.9285 57.4678 58.8211 56.8133 58.2561Z" fill="#FFDB00"/>
<path fill-rule="evenodd" clip-rule="evenodd" d="M56.8842 62.9482C56.7372 63.2757 56.5175 63.7249 56.0664 64.2411C56.3056 64.6086 56.5795 64.9662 56.8249 65.2871C56.9652 65.4697 57.0916 65.6354 57.1905 65.7758C58.5762 66.7637 59.11 66.6556 59.399 66.5964C59.4845 66.5788 59.6416 66.5009 59.7064 66.3885C59.7372 66.3353 59.7417 66.2821 59.721 66.2162C59.3845 65.5037 58.0457 64.0244 56.8842 62.9482Z" fill="#FFDB00"/>
<path fill-rule="evenodd" clip-rule="evenodd" d="M75.5585 67.0663C74.3695 66.9868 73.6893 66.6138 73.0319 66.2534L72.9581 66.2134C72.7485 66.5496 72.4869 66.7789 72.165 66.9105C71.3813 67.2276 70.4724 66.8848 69.2164 66.2847C69.1264 66.531 68.9894 66.7361 68.8066 66.8979C70.8067 69.1929 72.2304 72.6512 73.7407 76.5939C76.1991 78.4753 78.1594 78.4835 79.7664 78.1736C79.231 74.6105 77.928 71.1713 75.5585 67.0663Z" fill="#FFDB00"/>
<path fill-rule="evenodd" clip-rule="evenodd" d="M70.4303 58.031C69.9792 58.4199 69.3476 58.6256 68.5684 58.6404C71.0625 60.7933 72.8059 63.1711 73.2134 65.0014C73.3543 65.0744 73.4901 65.1473 73.6187 65.2186C74.2995 65.5911 74.8378 65.8851 75.9446 65.8999C76.1492 65.895 76.3219 65.85 76.4337 65.8088C75.7406 62.5831 72.8423 59.8279 70.4303 58.031Z" fill="#FFDB00"/>
<path fill-rule="evenodd" clip-rule="evenodd" d="M61.8767 53.5493C61.7683 53.8647 61.5905 54.2103 61.3613 54.5514C62.9035 54.9491 64.7062 55.836 66.4933 57.0812L66.6436 57.13C67.5754 57.4366 68.7152 57.6127 69.3837 57.2962C66.5123 55.3413 63.6324 54.0841 61.8767 53.5493Z" fill="#FFDB00"/>
</svg>
