<svg width="14" height="13" viewBox="0 0 14 13" fill="none" xmlns="http://www.w3.org/2000/svg">
<path d="M13.695 12.4675L13.3575 10.1275C12.6675 10.1875 12.12 10.0675 11.715 9.7675C11.31 9.4825 11.0325 9.07 10.8825 8.53C10.7475 8.005 10.725 7.405 10.815 6.73H13.695V0.947501H8.1375V6.955C8.1375 8.92 8.6025 10.405 9.5325 11.41C10.4625 12.43 11.85 12.7825 13.695 12.4675ZM6.1575 12.4675L5.82 10.1275C5.13 10.1875 4.5825 10.0675 4.1775 9.7675C3.7725 9.4825 3.495 9.07 3.345 8.53C3.21 8.005 3.1875 7.405 3.2775 6.73H6.1575V0.947501H0.6V6.955C0.6 8.92 1.065 10.405 1.995 11.41C2.925 12.43 4.3125 12.7825 6.1575 12.4675Z" fill="#981D15"/>
</svg>
