<svg width="14" height="13" viewBox="0 0 14 13" fill="none" xmlns="http://www.w3.org/2000/svg">
<path d="M13.695 0.532498L13.3575 2.8725C12.6675 2.8125 12.12 2.9325 11.715 3.2325C11.31 3.5175 11.0325 3.93 10.8825 4.47C10.7475 4.995 10.725 5.595 10.815 6.27H13.695V12.0525H8.1375V6.045C8.1375 4.08 8.6025 2.595 9.5325 1.59C10.4625 0.569998 11.85 0.217498 13.695 0.532498ZM6.1575 0.532498L5.82 2.8725C5.13 2.8125 4.5825 2.9325 4.1775 3.2325C3.7725 3.5175 3.495 3.93 3.345 4.47C3.21 4.995 3.1875 5.595 3.2775 6.27H6.1575V12.0525H0.6V6.045C0.6 4.08 1.065 2.595 1.995 1.59C2.925 0.569998 4.3125 0.217498 6.1575 0.532498Z" fill="#981D15"/>
</svg>
