<svg width="460" height="188" viewBox="0 0 460 188" fill="none" xmlns="http://www.w3.org/2000/svg">
<path d="M75.7093 188C62.339 188 50.2639 185.657 39.4841 180.972C28.7879 176.203 19.9719 169.426 13.036 160.641C6.18376 151.773 1.83841 141.231 0 129.016L35.5984 123.745C38.1053 134.119 43.2863 142.109 51.1414 147.715C58.9964 153.32 67.9378 156.123 77.9655 156.123C83.5643 156.123 88.996 155.245 94.2605 153.488C99.5251 151.731 103.829 149.137 107.171 145.707C110.597 142.277 112.31 138.051 112.31 133.031C112.31 131.191 112.018 129.434 111.433 127.761C110.932 126.004 110.054 124.372 108.801 122.866C107.547 121.36 105.751 119.938 103.411 118.599C101.155 117.26 98.2716 116.047 94.7619 114.96L47.8824 101.155C44.3727 100.151 40.278 98.7284 35.5984 96.8878C31.0024 95.0471 26.5317 92.4117 22.1863 88.9813C17.841 85.551 14.2059 81.0331 11.2812 75.4275C8.44 69.7382 7.0194 62.5847 7.0194 53.9671C7.0194 41.8356 10.0695 31.7538 16.1697 23.7219C22.2699 15.69 30.4174 9.70785 40.6123 5.77556C50.8071 1.84326 62.0883 -0.0810551 74.4558 0.00261481C86.9069 0.169945 98.0209 2.30342 107.798 6.40305C117.575 10.5027 125.764 16.4848 132.366 24.3494C138.967 32.1303 143.731 41.6683 146.655 52.9632L109.803 59.2381C108.466 53.3815 106.001 48.4452 102.408 44.4292C98.8148 40.4133 94.5112 37.3595 89.4974 35.2678C84.5671 33.1762 79.3861 32.0467 73.9544 31.8793C68.6063 31.712 63.5507 32.465 58.7875 34.1383C54.1079 35.728 50.2639 38.0706 47.2556 41.1663C44.3309 44.2619 42.8685 47.9432 42.8685 52.2102C42.8685 56.1425 44.0802 59.3636 46.5035 61.8736C48.9269 64.2999 51.977 66.266 55.6538 67.772C59.3307 69.278 63.0911 70.533 66.935 71.537L98.2716 80.0709C102.951 81.3259 108.132 82.9992 113.815 85.0909C119.497 87.0989 124.929 89.9435 130.11 93.6248C135.374 97.2225 139.678 101.991 143.02 107.932C146.446 113.872 148.16 121.402 148.16 130.521C148.16 140.227 146.112 148.719 142.018 155.998C138.006 163.193 132.575 169.175 125.723 173.944C118.87 178.629 111.099 182.143 102.408 184.486C93.8009 186.829 84.9013 188 75.7093 188Z" fill="#F5F5F5"/>
<path d="M178.217 184.235V3.51658H212.311V152.358H290.026V184.235H178.217Z" fill="#F5F5F5"/>
<path d="M298.804 184.235L353.957 3.51658H404.848L460 184.235H424.903L375.767 24.8514H382.285L333.901 184.235H298.804ZM331.896 146.585V114.709H427.159V146.585H331.896Z" fill="#F5F5F5"/>
</svg>
